<svg id="Capa_1" data-name="Capa 1" xmlns="http://www.w3.org/2000/svg" viewBox="0 0 315.78 349.03"><defs><style>.cls-1,.cls-6{fill:#6b4d2f;}.cls-1,.cls-2,.cls-3,.cls-4,.cls-5{fill-rule:evenodd;}.cls-2{fill:#e5b1bb;}.cls-3{fill:#d2929f;}.cls-4{fill:#fff;}.cls-5{fill:#dad1c9;}</style></defs><title>1</title><path class="cls-1" d="M81.53,93.86a14.65,14.65,0,0,0-.93-1.65A19.37,19.37,0,0,0,77,87.85a18.79,18.79,0,0,0-10.7-4.49c-4.56-.46-9.32,1.12-13.61,2.58s-8.79,3.5-12,7c-5.88,6.54-7.66,16.38-7.46,24.9.2,9.32,3.43,18.7,10.3,25.17a25.78,25.78,0,0,0,12.82,6.67,22.28,22.28,0,0,0,9.38-.13,126.36,126.36,0,0,0,3.1,31.91A108.3,108.3,0,0,0,85.23,219c4,5.61,8.45,11.1,13.87,15.26A71.12,71.12,0,0,0,117,244a84.12,84.12,0,0,0,33.1,6.35h.26c-1.39,1.12-2.71,2.31-4,3.5a123.89,123.89,0,0,0-8.26,9.51c-2.84,3.5-5.68,7-8.52,10.57s-5.55,6.8-8,10.5a41.4,41.4,0,0,0-5.41,11.1,23.88,23.88,0,0,0-.86,11.83c1.06,4.75,5.61,6.27,10,6.34a29.88,29.88,0,0,0,12.36-3.11A52.76,52.76,0,0,0,149.44,303c1.38-1.12,2.77-2.38,4.09-3.64a63.93,63.93,0,0,0,.53,10.64,39.9,39.9,0,0,0,6.14,16.45,44.72,44.72,0,0,0,6.28,7.73c1.12,1.05,2.31,2.11,3.57,3.1l.33.2a2.11,2.11,0,0,0-.66.46c-.14.07-.2.13-.34.2a11,11,0,0,0-.85-.73,45.74,45.74,0,0,0-6.68-4.55c-4.62-2.65-11.16-5.82-16.25-2.78a8.82,8.82,0,0,0-4,6.87,14.89,14.89,0,0,0,2.32,8.46,40.32,40.32,0,0,0,10,11.62,43.5,43.5,0,0,0,7.26,4.69,20.51,20.51,0,0,0,7,2.38,2.61,2.61,0,0,0,1.85.92c2.11,0,4-1.18,5.74-2.17s3.44-1.79,5.09-2.71c3.37-1.79,6.61-3.64,9.84-5.62s6.41-4,9.51-6c1.59-1.06,3-2.11,4.56-3.3a17.07,17.07,0,0,0,2.65-2.25c2.37.86,5.21.8,7.59.8,3.17.06,6.28,0,9.45-.2A138.07,138.07,0,0,0,243.83,341c12.75-2.64,24.91-7.53,36.93-12.42a51,51,0,0,0,9-4.29,20.76,20.76,0,0,0,5.09-4.3c1.32,1.33,3.83,1.33,5.55,1.46,1.92.13,3.9.26,5.81.33,4,.13,8,.06,12-.14s8.12-.59,12.15-1.18a18.91,18.91,0,0,0,6.94-2,2.85,2.85,0,0,0,1.26-.26c2.71-1.45,4.09-4.36,5.15-7.07a41.24,41.24,0,0,0,2.11-7.93,48.31,48.31,0,0,0-.2-17.7c-1-4.56-3.63-9.84-8.65-10.77-6.21-1.12-10.77,4.16-13.08,9.25a31.89,31.89,0,0,0-3,15.72c-1.32-.06-2.77.07-4-.06a2.59,2.59,0,0,1-.73-.07,16.94,16.94,0,0,0,2.12-3.43,39.23,39.23,0,0,0,2.84-8.66,34.25,34.25,0,0,0,.79-10,53.65,53.65,0,0,0-2-10.11,87.83,87.83,0,0,0-7.2-18.1c1.58.34,3.17.6,4.75.8a65.82,65.82,0,0,0,13,.39c7.13-.52,18.69-1.85,18.56-11.43-.13-8.12-7.79-14.13-14.2-17.83a90.73,90.73,0,0,0-23.06-9.38,108.06,108.06,0,0,0-13.87-2.64c-2.31-.34-4.56-.53-6.87-.66a8.35,8.35,0,0,1-1.32-.07A122.57,122.57,0,0,0,302.56,194c12.15-15.92,21.4-35.34,21-55.76a81.35,81.35,0,0,0-7.14-31.11A98.23,98.23,0,0,0,308.64,93c-1.79-2.71-3.64-5.42-5.68-8a46.36,46.36,0,0,0-6.81-10.3c-1.25-1.46-2.57-2.91-4-4.3a15.34,15.34,0,0,0,5.28-5.61,25.13,25.13,0,0,0,3.11-12.55,34.79,34.79,0,0,0-9.91-24.11,42.89,42.89,0,0,0-10.11-7.8,32.36,32.36,0,0,0-12.75-4.29c-4.62-.33-9.51,1.18-13.93,2.44a38.07,38.07,0,0,0-12.36,5.61,20.27,20.27,0,0,0-7.79,10.77,14.5,14.5,0,0,0-.33,6.94A145.63,145.63,0,0,0,210,40a199.47,199.47,0,0,0-55.75,7.73c-17.64,5.16-34.68,13-49.55,23.85A119.47,119.47,0,0,0,84.57,90.16c-1,1.19-2,2.45-3,3.7Z" transform="translate(-33.22 -16)"/><path class="cls-2" d="M115.48,76.75c1.12.07,2.44.33,3.44-.2a.67.67,0,0,0,.13-1,6.25,6.25,0,0,0-3.3-.92,1.07,1.07,0,1,0-.27,2.11Z" transform="translate(-33.22 -16)"/><path class="cls-2" d="M107.88,80.85c2.05-.93,4.16-1.06,6.35-1.45.46-.07.33-.67,0-.73a10,10,0,0,0-7.07.46.94.94,0,1,0,.72,1.72Z" transform="translate(-33.22 -16)"/><path class="cls-2" d="M100.75,85.87c1.06.07,2.18.2,3.24.26a3.09,3.09,0,0,0,2.44-.46c.2-.13.13-.46,0-.66a3.22,3.22,0,0,0-2.44-.66c-1.06-.06-2.18-.2-3.24-.26s-1.12,1.71,0,1.78Z" transform="translate(-33.22 -16)"/><path class="cls-2" d="M94.8,90.63a21.61,21.61,0,0,0,2.71.46,6.25,6.25,0,0,0,2.65-.13.5.5,0,0,0,.06-.93,6.72,6.72,0,0,0-2.31-.59c-.86-.2-1.72-.33-2.64-.53-1.13-.27-1.59,1.52-.47,1.72Z" transform="translate(-33.22 -16)"/><path class="cls-2" d="M89.72,96c2,.59,4,1.19,6.14,1.65,1.79.4,3.9,1,5.75.59a.57.57,0,0,0,.13-1c-1.58-1-3.77-1.19-5.61-1.66s-3.9-1-5.88-1.58c-1.33-.4-1.85,1.65-.53,2Z" transform="translate(-33.22 -16)"/><path class="cls-2" d="M85.36,103.7c2.31.07,4.62.07,7,.14,1.06,0,2.18,0,3.24.07a8.79,8.79,0,0,0,3.5-.34c.46-.2.66-.92.13-1.18-2-.93-4.56-.53-6.67-.6-2.38-.07-4.82-.13-7.2-.26a1.09,1.09,0,1,0,0,2.17Z" transform="translate(-33.22 -16)"/><path class="cls-2" d="M81.92,108.79a61.18,61.18,0,0,0,8.46,1.59c2.71.26,5.94.79,8.52-.27a.52.52,0,0,0,0-1c-2.51-.79-5.48-.39-8.06-.59a74.36,74.36,0,0,1-8.59-1.06.68.68,0,0,0-.33,1.32Z" transform="translate(-33.22 -16)"/><path class="cls-2" d="M81.79,115.4c3.9-.33,7.6,3.37,11.56,2.18a.7.7,0,0,0,.13-1.25c-1.85-1-4.22-1-6.21-1.66s-3.76-1.58-5.68-.79c-.72.33-.72,1.58.2,1.52Z" transform="translate(-33.22 -16)"/><path class="cls-2" d="M80.6,121c2.18,1,5.62,2.77,8.13,1.72a.5.5,0,0,0,.06-.8,9.52,9.52,0,0,0-3.3-1.19,22.12,22.12,0,0,1-3.9-1.51c-1.19-.6-2.18,1.18-1,1.78Z" transform="translate(-33.22 -16)"/><path class="cls-2" d="M83.18,126.5a6.57,6.57,0,0,0,2.31.19c.66-.06.79-1.18.13-1.45a7.7,7.7,0,0,0-2.44-.4.84.84,0,0,0-.86.86.82.82,0,0,0,.86.8Z" transform="translate(-33.22 -16)"/><path class="cls-2" d="M94,194.08a9.89,9.89,0,0,0,3.76,1.25c.33,0,.4-.4.26-.6a10.67,10.67,0,0,0-3.17-2.18c-1-.59-1.91,1.06-.85,1.53Z" transform="translate(-33.22 -16)"/><path class="cls-2" d="M98.83,202.26c1.13.34,2.18.67,3.24,1.06a13.51,13.51,0,0,0,3,.79c.33,0,.4-.46.14-.65a11.12,11.12,0,0,0-2.84-1.2c-1.06-.39-2.12-.79-3.18-1.12-.72-.26-1,.93-.33,1.12Z" transform="translate(-33.22 -16)"/><path class="cls-2" d="M99.49,208.8c1.79.8,3.51,1.53,5.29,2.25.86.4,1.72.79,2.64,1.13a3.53,3.53,0,0,0,2.18.52.46.46,0,0,0,.4-.72c-.93-1.32-3-1.72-4.43-2.32-1.78-.79-3.5-1.51-5.28-2.24-.93-.4-1.79,1-.8,1.38Z" transform="translate(-33.22 -16)"/><path class="cls-2" d="M105.31,219.51c2.38.79,4.69,1.65,7.07,2.44,2.18.73,4.55,1.85,6.93,1.85.33,0,.66-.59.33-.86-1.91-1.38-4.42-1.91-6.6-2.57-2.45-.73-4.89-1.52-7.34-2.25-.92-.33-1.25,1.12-.39,1.39Z" transform="translate(-33.22 -16)"/><path class="cls-2" d="M105.7,226.64a92.82,92.82,0,0,0,9.78,3.77,46.28,46.28,0,0,0,5.09,1.45c1.38.33,3.3,1.06,4.62.33a.69.69,0,0,0,.13-1.06c-.92-1.18-3-1.25-4.42-1.58-1.59-.4-3.24-.86-4.82-1.26a97.94,97.94,0,0,1-9.72-3.23c-.92-.33-1.51,1.19-.66,1.58Z" transform="translate(-33.22 -16)"/><path class="cls-2" d="M110.33,234a63.81,63.81,0,0,0,15.59,5.89c2.71.59,5.48,1.18,8.19,1.58s5.68,1.19,8.26.46a.79.79,0,0,0,.19-1.45c-2.17-1.32-5.15-1.52-7.66-1.92-2.71-.46-5.35-.86-8.06-1.45a77.54,77.54,0,0,1-15.65-4.62c-1-.47-1.85,1-.86,1.51Z" transform="translate(-33.22 -16)"/><path class="cls-2" d="M169,255.77a26.8,26.8,0,0,1,3.1-.66,7.63,7.63,0,0,0,2.71-.72.67.67,0,0,0-.13-1.19c-1.85-.73-4.43.26-6.14.79-1.13.4-.66,2.11.46,1.78Z" transform="translate(-33.22 -16)"/><path class="cls-2" d="M167.34,260.86c1.12-.07,2.31-.13,3.5-.26a5.43,5.43,0,0,0,2.9-.66.5.5,0,0,0-.06-.86,5.13,5.13,0,0,0-2.84-.33l-3.5.19c-1.26.07-1.26,2,0,1.92Z" transform="translate(-33.22 -16)"/><path class="cls-2" d="M166.68,266.08a8.66,8.66,0,0,1,1.85-.79,2.44,2.44,0,0,0,1.45-.93.61.61,0,0,0-.2-.73c-1.12-.79-3,.33-4.09.87s-.07,2.11,1,1.58Z" transform="translate(-33.22 -16)"/><path class="cls-2" d="M165.36,271c.59-.59,1.45-.66,1.91-1.38a.83.83,0,0,0-.26-1c-1-.59-2.32.33-3,1.06-.8.93.52,2.18,1.32,1.32Z" transform="translate(-33.22 -16)"/><path class="cls-2" d="M163.24,300.83a1.2,1.2,0,0,0,.6-.53.71.71,0,0,0,.06-.73,1,1,0,0,0-1.25-.72,1.27,1.27,0,0,0-.6.46.81.81,0,0,0-.06.79,1,1,0,0,0,1.25.73Z" transform="translate(-33.22 -16)"/><path class="cls-2" d="M163.44,307.23l1.25.2a2.32,2.32,0,0,0,.73.13,3,3,0,0,0,.73-.26c.53-.2.53-1,.13-1.39a4.46,4.46,0,0,0-2.31-.66,1.17,1.17,0,0,0-1.26.73,1,1,0,0,0,.73,1.25Z" transform="translate(-33.22 -16)"/><path class="cls-2" d="M165.16,312.52a2.92,2.92,0,0,1,1.85.13c.66.13,1.58.2,1.58-.73s-1.05-1.32-1.72-1.45a4.27,4.27,0,0,0-2.24.07,1,1,0,1,0,.53,2Z" transform="translate(-33.22 -16)"/><path class="cls-2" d="M168.72,319.59l3.18.59a2.76,2.76,0,0,0,2.37-.26.74.74,0,0,0,.07-.66c-.4-.8-1.39-.86-2.12-1.06-1-.13-2-.33-3-.53-1.25-.2-1.78,1.72-.53,1.92Z" transform="translate(-33.22 -16)"/><path class="cls-2" d="M171.23,325.66l3.77.6c1,.13,2.05.46,3,0a.66.66,0,0,0,.13-1c-.72-.73-1.85-.66-2.84-.79-1.18-.2-2.37-.33-3.56-.53s-1.65,1.58-.47,1.71Z" transform="translate(-33.22 -16)"/><path class="cls-2" d="M173.94,331.28a14.15,14.15,0,0,0,5,1.12c1,.07,4.16.13,4.42-1.25.33-1.65-2.24-.93-3-.8a13,13,0,0,1-5.75-.72c-.92-.33-1.58,1.25-.66,1.65Z" transform="translate(-33.22 -16)"/><path class="cls-2" d="M171,339.34H171c.59.26,1.19.46,1.78.72a.06.06,0,0,1-.06-.06l.06.26c0,.07-.06.13,0,0a2.6,2.6,0,0,1-.33.67l-.2.19a5.23,5.23,0,0,0-.52-.73,23.12,23.12,0,0,0-1.72-1.71,4.32,4.32,0,0,1,.73-.86,13.75,13.75,0,0,0,2.31,1.39v.06c-.07.4-.07.47-.07.2,0,.13,0,.27-.06.33a1.37,1.37,0,0,1-.14.4,1.3,1.3,0,0,0-1.71-.86Z" transform="translate(-33.22 -16)"/><path class="cls-2" d="M274.82,288.67a5,5,0,0,0,.92-.79.91.91,0,0,0,.13-1.06.93.93,0,0,0-1-.39,4.84,4.84,0,0,0-1.05.59,1,1,0,1,0,1,1.65Z" transform="translate(-33.22 -16)"/><path class="cls-2" d="M191.19,157.08s-.07,0-.07-.06a17.69,17.69,0,0,0,2.77-2.12c1.72-1.65.4-5-2-4.89a89.58,89.58,0,0,0-12.61,1.66c-2.78.59-2.12,5,.66,4.88,4-.13,8-.53,12-.79-.65-1.65-1.32-3.24-2-4.89a9.21,9.21,0,0,1-3.57,2.25,9.08,9.08,0,0,1-2,.46,4.72,4.72,0,0,1-1,.07h-.53a1.27,1.27,0,0,1,1.19,1.19,10.81,10.81,0,0,0-.33,1.45c0-.06-.2.07-.2.07s.66-.47.73-.47c.39-.26.86-.53,1.32-.79a15.23,15.23,0,0,1,2.84-1.25,28.54,28.54,0,0,1,3.17-.93,10.28,10.28,0,0,0,1.32-.2h.2c0-.07-1.59-1.85-.93-1.91-.06,0-.53.72-.66.86a5.72,5.72,0,0,1-.92.92,11.77,11.77,0,0,1-2.38,1.65,11.06,11.06,0,0,1-4.69,1.39c-.53.06-1.06,0-1.52.06h-.33a10.21,10.21,0,0,1,.66,1.06c.07,0-.33.46.07,0a3,3,0,0,1,.66-.66,16.75,16.75,0,0,1,5.81-2.38,23.69,23.69,0,0,1,3-.52,6,6,0,0,0,1.52-.07c1-.2-1.85-1.19-1.32-1.65.2-.14-.07.13-.07.26a12.1,12.1,0,0,1-3.76,3.57,16.08,16.08,0,0,1-2.31,1.06,11,11,0,0,1-2.45.59,1.91,1.91,0,0,1-.92-.07.33.33,0,0,1,.2.2,2.85,2.85,0,0,1,.33-1.78c1.58-3.57,5.61-5.22,9.18-6a24.14,24.14,0,0,1,3.24-.66,4.49,4.49,0,0,0,.92,0,2.69,2.69,0,0,1,.53.06c-.26-.19.13.4.07.2a2.26,2.26,0,0,1,.19.79,4.78,4.78,0,0,1-.46,2.51c-.92,2.25-3.1,3.77-5.41,4.89Z" transform="translate(-33.22 -16)"/><path class="cls-2" d="M196.54,178.09a20.21,20.21,0,0,0,2.84,1.25c1.71.6,3.63,1.46,5.48,1.13,1.45-.2,1.32-2.12.33-2.78-1.32-1-3.44-1.12-5-1.52a22.81,22.81,0,0,0-3-.79,16.88,16.88,0,0,0-1-3c-.53-1.65-1.13-3.3-1.72-4.89s-1.06-3.3-1.52-4.88a17.94,17.94,0,0,0,7.73-6.08,10.74,10.74,0,0,0,1.58-9.45,6.07,6.07,0,0,0-4.09-3.83,11.24,11.24,0,0,0-5.16.07c-3.63.66-7.33,1.65-10.37,3.83-2.71,2-5.15,4.95-5.68,8.45a5.91,5.91,0,0,0,1.72,5.62,6.7,6.7,0,0,0,5,1.45,16.87,16.87,0,0,0,5.88-1.71c-.06-.34-.13-.67-.2-1a17,17,0,0,1-5.74,1.39,7.92,7.92,0,0,1-5.09-.79,4.73,4.73,0,0,1-1.58-5.75c1.32-3.37,5.35-5,8.52-6.08a30.39,30.39,0,0,1,5.81-1.12c2-.2,4.1-.26,5.42,1.39,2.64,3.17-.73,7.33-3.24,9.38a13.76,13.76,0,0,1-1.52,1.19l-.2-.8a15.46,15.46,0,0,0,1.39-1c2.64-2,6.61-6.27,3.24-9.51-1.59-1.45-3.64-1.26-5.55-.92a20.18,20.18,0,0,0-5.22,1.52c-3.11,1.25-9.32,3.89-6.8,8.25,2,3.63,7.39,2.25,10.5.93v-.07l-1.19.4c-1.78.72-4,1.58-6,.85-1.13-.39-2.12-1.38-1.72-2.5.66-1.85,2.51-3.57,4-4.76a35,35,0,0,1,6-3.77c1.25-.66.72-3-.8-2.84a17,17,0,0,0-9.51,4.1c-2.51,2-5.35,5-5.09,8.39a8.15,8.15,0,0,0,6.35,7c3,.66,6-.07,8.85-1.12.33,1.45.72,2.9,1.19,4.36.46,1.65,1,3.37,1.58,4.95a14.07,14.07,0,0,0,1.26,3.17,22,22,0,0,0-3.17,3.3c-1.13,1.26-2.58,2.71-3.11,4.37s1.32,2.51,2.51,1.91c1.59-.79,2.71-2.57,3.7-4a17.34,17.34,0,0,0,2.45-3.7Z" transform="translate(-33.22 -16)"/><path class="cls-2" d="M221.9,98.75c-3.3-1.19-6.34,1.45-7.86,4.16a10.31,10.31,0,0,0-.2,10.24c4.43,7.4,14.4,2.84,19.29-1.58,2.91-2.58,2.58-6.68,1.26-10-1.46-3.64-4.89-5.09-8.46-6s-7.66-.65-10.24,2.25c-2.38,2.71-2.64,7.13-1.58,10.44a10.41,10.41,0,0,0,6.67,6.93,9.31,9.31,0,0,0,9.12-2c2.57-2.44,2.57-6.94.59-9.71s-6.47-3-9.64-2.18a6.31,6.31,0,0,0-4.76,8.19,6.64,6.64,0,0,0,9.31,3.44,7.42,7.42,0,0,0,3.5-8.79c-1.32-3.5-6.67-5.35-9.9-3.63a5.75,5.75,0,0,0-.2,10,5.89,5.89,0,0,0,8.65-4.69,6.29,6.29,0,0,0-2.18-5.15c-1.78-1.45-4.69-2.25-6.47-.33-3.31,3.5,2,8.45,5.22,9.44-.27-1.72-.47-3.37-.73-5.08-.33.19-.66.46-1,.66-1.85,1.32-1.32,4.62,1.25,4.56h1.19c2.91-.07,3.64-3.71,1.39-5.29a9.12,9.12,0,0,1-1.85-1.32,1.91,1.91,0,0,1-.53-.53,2.56,2.56,0,0,1-.33-.53,1.57,1.57,0,0,1-.33,1.92c-.4.26-.86.53-1.25.79-.67.13-.47-.26-.33.07.06.06.19.2.19.26.2.27.07.13,0,0-.06-.33.14.13.07.2s0-.2,0-.2c0-.2-.2.33-.07.13s-.19.27-.33.27.47-.07.47-.07c-.53.07-.33-.13-.2-.06s-.07,0-.07-.07c-.06.13-.13-.26,0,0,.07.07,0,.4.07.07s-.07,0-.07.13c0-.13.27-.27-.06-.13a2.72,2.72,0,0,1,1.65.39c0-.06.39.2.33.13.66.27.06.27,0-.13,0,0,.06.4.13.33a5.37,5.37,0,0,1-.4,1.13,1.1,1.1,0,0,1-1.71.26c0-.07-.07-.4-.07-.46-.07.26.2-.13.13-.13a1.42,1.42,0,0,1,.47-.2,7,7,0,0,1,3.83-.14c-.27-.12-.07-.12.06.14-.13-.26.13.46.13.53a4.07,4.07,0,0,1,.14,1.25c-.27.92-1.59,1.19-2.45,1.19a4.22,4.22,0,0,1-2.9-1.12,5.88,5.88,0,0,1-1.59-3.5c-.13-1.19-.07-3.18,1.06-4a4.74,4.74,0,0,1,3.5-.33,12.56,12.56,0,0,1,4.42,1.58c1.06.79,1.39,2.71,1.46,3.9.06.79-.07.73-.53,1.12s-1.26.93-1.85,1.32c-2.45,1.59-7.33,4.76-9.12.93a6.27,6.27,0,0,1,.2-4.63c.4-1.32,1.52-3.3,3.11-3.43a1.49,1.49,0,0,0,.39-2.91Z" transform="translate(-33.22 -16)"/><path class="cls-2" d="M136.16,124c-3.37-1.52-5.82,1.52-6.34,4.62s-.73,7,1.05,9.78,5.55,4,8.79,3.76,7.13-1.12,9.44-3.56,2.91-6.61,2.12-9.85a9.39,9.39,0,0,0-6.28-6.74,14.08,14.08,0,0,0-9.58.27,10.12,10.12,0,0,0-5.74,7.66c-.53,3-.27,6.74,1.52,9.32,2.11,3.1,5.75,3.56,9.05,2.24,2.9-1.19,5.88-3.1,7.2-6.08s.92-6.73-1.65-8.85a8.23,8.23,0,0,0-4.56-1.65,10.38,10.38,0,0,0-5.29.26,6.11,6.11,0,0,0-3.43,8.73c1.52,2.9,5.15,4.42,8.32,4.16,4.1-.27,6-4.36,4.49-7.93a8,8,0,0,0-8.85-4.49c-4.42,1-5.28,6-2.57,9.25,2.57,3,7.39,3.1,9.44-.53s-.39-8.13-4.42-8.85a2.85,2.85,0,0,0-3.11,4.16,9.78,9.78,0,0,0,2.84,3.76,2.5,2.5,0,0,0,3.3.13,2.46,2.46,0,0,0,.66-3.23,28.49,28.49,0,0,1-2-3.57c-1.05,1.39-2.11,2.77-3.1,4.16a2.11,2.11,0,0,1,1,.46c-.13-.19.07.4.07.14s-.14.39,0,0c-.27.72-.27-.07.06.06s-.26-.13-.13-.06c-.2-.14-.86-.73-.73-.86s0,.33-.06.26-.07.14-.07.14.13-.07.27-.07a4.67,4.67,0,0,1,1.18.26,3.2,3.2,0,0,1,1,.8c.06.13.39.72.13.85.86-.39-.66-.46-.86-.46a3.05,3.05,0,0,1-1.79-.86,5.22,5.22,0,0,1-.33-.52c.14.26,0-.47,0-.14,0-.26.2-.39.47-.53a6.64,6.64,0,0,1,4.49.4l.2.2a1.54,1.54,0,0,1,.19.66,2.61,2.61,0,0,1-.13,1.38,6.68,6.68,0,0,1-3.1,2.78c-.93.47-2.44,1.19-3.17.79s-1.13-2.24-1.26-3.37a6.93,6.93,0,0,1,1.06-4.55c1.58-2.25,5.61-2.32,7.86-1.26,2.44,1.19,3.1,5.15,1.52,7.4-1,1.32-3.57,1.72-5.09,2s-3.43.33-4.62-.73c-1.45-1.25-1.39-3.5-1.39-5.21,0-1.39,0-3.77,1.65-4.43.93-.39,1.46-1.91.27-2.44Z" transform="translate(-33.22 -16)"/><path class="cls-2" d="M270.19,38.44c.6-.13,1.52,0,2.05-.53a.5.5,0,0,0,.13-.59,1.38,1.38,0,0,0-1.06-.93,5.48,5.48,0,0,0-1.45-.13,1.14,1.14,0,0,0-1.06,1.26,1.12,1.12,0,0,0,1.39.92Z" transform="translate(-33.22 -16)"/><path class="cls-2" d="M54,104.7a3,3,0,0,0-.66.86,1.4,1.4,0,0,0-.2.79v.2c-.07.13,0,.26.07.39a.92.92,0,0,0,1.58.4c.13-.13.2-.26.33-.4l-.39.4a1.55,1.55,0,0,0,.46-.46.24.24,0,0,0,.06-.14c.07-.06.14-.19.07-.06h0c0-.06.07-.06.07-.13s.33-.27.06,0a1.36,1.36,0,0,0,.53-.73,1.18,1.18,0,0,0-.2-1.06A1.2,1.2,0,0,0,54,104.7Z" transform="translate(-33.22 -16)"/><path class="cls-2" d="M236.7,42.4a15.86,15.86,0,0,1,6-13.8,30.42,30.42,0,0,1,10.17-5c1.92-.6,3.9-1.13,5.88-1.59a43.82,43.82,0,0,1,5.82-1.19c4-.46,7.72.73,11.23,2.45a36,36,0,0,1,9,5.87,31.87,31.87,0,0,1,10.57,19,24,24,0,0,1-1.19,12.16,11.58,11.58,0,0,1-5.75,6.47c-.46-.4-.92-.79-1.32-1.19a98.08,98.08,0,0,0-7.93-6.14,7.12,7.12,0,0,0,1.46-3.24,10,10,0,0,0-.79-5.88c-.67-1.39-2.78-.33-2.45,1.06a7.29,7.29,0,0,1-.06,4.29,18.94,18.94,0,0,1-.93,1.92,104.32,104.32,0,0,0-11-6.15,109.39,109.39,0,0,0-15.53-5.94c-.06-2.51,2.45-4.43,4.63-5.35a23.78,23.78,0,0,1,4.69-1.39,16.29,16.29,0,0,0,5-1.65.77.77,0,0,0-.2-1.39c-2-.72-4.56-.06-6.47.46a21.9,21.9,0,0,0-5.75,2.18,8.18,8.18,0,0,0-3.9,6.55c-3.7-1-7.4-1.86-11.16-2.52Z" transform="translate(-33.22 -16)"/><path class="cls-3" d="M270.39,21.2a26.72,26.72,0,0,1,5.42,2.05,36,36,0,0,1,9,5.87,31.87,31.87,0,0,1,10.57,19,24,24,0,0,1-1.19,12.16,11.58,11.58,0,0,1-5.75,6.47c-.46-.4-.92-.79-1.32-1.19a98.08,98.08,0,0,0-7.93-6.14,7.12,7.12,0,0,0,1.46-3.24,10,10,0,0,0-.79-5.88c-.67-1.39-2.78-.33-2.45,1.06a7.29,7.29,0,0,1-.06,4.29,18.94,18.94,0,0,1-.93,1.92c-2.57-1.65-5.22-3.17-7.93-4.63,15.4-16.38,1.92-31.77,1.92-31.77Z" transform="translate(-33.22 -16)"/><path class="cls-4" d="M279,49.74a1.45,1.45,0,0,0-1.59,1.65,7.29,7.29,0,0,1-.06,4.29,18.94,18.94,0,0,1-.93,1.92,104.32,104.32,0,0,0-11-6.15,109.39,109.39,0,0,0-15.53-5.94c-.06-2.51,2.45-4.43,4.63-5.35a23.78,23.78,0,0,1,4.69-1.39,16.29,16.29,0,0,0,5-1.65.8.8,0,0,0,.33-.79c9.12.72,13.54,7.26,14.47,13.41Z" transform="translate(-33.22 -16)"/><path class="cls-5" d="M279,49.74a1.45,1.45,0,0,0-1.59,1.65,7.29,7.29,0,0,1-.06,4.29,18.94,18.94,0,0,1-.93,1.92c-2.57-1.65-5.22-3.17-7.93-4.63a27.38,27.38,0,0,0,6.74-11.62A16.08,16.08,0,0,1,279,49.74Z" transform="translate(-33.22 -16)"/><path class="cls-2" d="M285.45,212.38a28.91,28.91,0,0,0,4.1.39c1.91.13,3.83.33,5.68.59a100.75,100.75,0,0,1,10.9,2,104.64,104.64,0,0,1,21.07,7.67,49.28,49.28,0,0,1,9.51,5.67c2.51,2,5.09,4.43,6.28,7.27,1,2.38,1.25,5-1.06,6.54a12.52,12.52,0,0,1-4.56,1.65,55.55,55.55,0,0,1-5.48.93,65.81,65.81,0,0,1-13,.26c-2.12-.13-4.17-.39-6.28-.72-.92-.13-1.85-.34-2.84-.47a86.35,86.35,0,0,0-7.4-10.24,78.5,78.5,0,0,0-7.2-7.72,34.42,34.42,0,0,0-8.65-6.15c-.86-.4-2.31.6-1.52,1.65,3.63,4.63,8.19,8.59,11.95,13.15a93.92,93.92,0,0,1,9.58,14.33,91.37,91.37,0,0,1,6.87,15.93c1.85,5.68,3.57,11.82,2.78,17.83a47,47,0,0,1-2.12,9.05,17.67,17.67,0,0,1-4.29,7.2,2.13,2.13,0,0,0,.53,3.37,1.44,1.44,0,0,0,.46.46,9.24,9.24,0,0,0,3.3.8c1,.06,2,.19,3,.19,1.85.07,4.23.07,5.74-1.05A1.34,1.34,0,0,0,324,302a48.23,48.23,0,0,1,3.24-12.88,28.29,28.29,0,0,1,3.37-5.81c1.06-1.26,2.64-2.78,4.16-3a2.53,2.53,0,0,1,1.19.07c.46.06.26,0,.73.26A6,6,0,0,1,338.1,282a12.88,12.88,0,0,1,1.92,4.69,42.39,42.39,0,0,1,.46,13.81,42.84,42.84,0,0,1-2,8.05,21.35,21.35,0,0,1-2.71,5.16,29.8,29.8,0,0,1-7.53,1.52c-3.7.39-7.47.72-11.23.92s-7.53.2-11.3.07c-1.78-.07-3.57-.2-5.35-.33a14,14,0,0,0-4.09,0A2.07,2.07,0,0,0,294,314.7a12.83,12.83,0,0,0-3.3,2.05,41.4,41.4,0,0,1-3.5,2.44,42.5,42.5,0,0,1-7.14,3.57c-5.81,2.38-11.62,4.62-17.44,6.8a129.18,129.18,0,0,1-35.93,8.13c-3.37.26-6.81.39-10.24.39-1.78,0-3.63-.06-5.42-.06a12.33,12.33,0,0,0-5.35,1,2.32,2.32,0,0,0-.46.4,15.83,15.83,0,0,0-3.17,1.65c-1.59.92-3.17,1.91-4.76,2.9-3.17,2-6.41,3.9-9.64,5.82s-6.41,3.7-9.65,5.48c-1.65.86-3.23,1.78-4.89,2.58a18.57,18.57,0,0,0-3.83,2.31c-1.45-.79-3-1.39-4.49-2.11a44.34,44.34,0,0,1-5.68-3.31,37,37,0,0,1-8.85-8.72c-1.92-2.71-5.48-7.79-2.78-11,1.26-1.51,3.57-1.18,5.29-.79a27.09,27.09,0,0,1,6.14,2.71,39.31,39.31,0,0,1,6.34,4.23c1,.79,2,1.65,3,2.51a29.77,29.77,0,0,0,3.5,2.31,1.42,1.42,0,0,0,2.18-1c2.77-1,5.22-5.09,3-7.27-.07-.06-.14-.13-.2-.13a2.62,2.62,0,0,0-.07-.73c-.26-1.71-1.52-2.37-2.77-3.36a30,30,0,0,1-3.11-2.58,42.19,42.19,0,0,1-5.41-5.94,38.62,38.62,0,0,1-6.68-14.8,64.36,64.36,0,0,1-1.05-15.13,5.71,5.71,0,0,0,1.19-2.71,1.53,1.53,0,0,0-1-1.78,104.19,104.19,0,0,1,2.24-15.06,126.65,126.65,0,0,1,5.75-18.37c.39-1.06-1.32-1.71-1.78-.73-5.69,10.57-8.73,22.6-10,34.49l-.07,1c-.72.59-1.32,1.19-2,1.78-1.45,1.26-2.84,2.51-4.29,3.83a61.07,61.07,0,0,1-8.85,6.48,33,33,0,0,1-10.18,4.09,17.07,17.07,0,0,1-4.89.2c-1.19-.13-2.7-.33-3.17-1.58a12.39,12.39,0,0,1-.33-4.89,26.25,26.25,0,0,1,1-5,38.81,38.81,0,0,1,4.76-9.64c4.36-6.67,9.78-12.75,14.73-19,2.64-3.36,5.35-6.8,8.19-10a48.13,48.13,0,0,1,4.43-4.49c.73-.73,1.52-1.38,2.31-2,.26-.2.6-.39.86-.59,3.57.26,7.13.46,10.7.46,6.61.13,13.21,0,19.82-.46a58.5,58.5,0,0,0-2.84,9.18,55.77,55.77,0,0,0-1.65,13.67c0,9,2.71,18.17,8.78,25,10.9,12.36,29.53,13.68,44.46,9.45,11-3.11,21.4-8.66,30.92-14.93a1,1,0,0,0-1.06-1.72c-8.72,4.23-17,9.25-26.23,12.42-7.79,2.71-16,4.16-24.24,3.17A34.63,34.63,0,0,1,195.81,299c-6.28-5.68-9.45-13.93-10-22.26a50.23,50.23,0,0,1,1-14.4c.47-2.38,1.13-4.76,1.79-7.14.46-1.52.92-3,1.39-4.49,3.36-.26,6.73-.66,10-1.05,20.87-2.78,41.28-9,59.71-19.23,1-.52,1.92-1.05,2.84-1.58a39.61,39.61,0,0,0,3.51,4c1.32,1.45,2.57,3,3.76,4.63a77.38,77.38,0,0,1,6.41,10.24,63.6,63.6,0,0,1,6.87,22.92,17.09,17.09,0,0,1-.13,5.48A16.66,16.66,0,0,1,281,281a1,1,0,0,0,1.19,1.52c3.63-1.46,4.42-5.61,4.42-9.18a46.2,46.2,0,0,0-2-12.36,67.85,67.85,0,0,0-11.37-23.58,62,62,0,0,0-4.75-5.48,20.57,20.57,0,0,0-4.3-4,145.08,145.08,0,0,0,21.34-15.58Z" transform="translate(-33.22 -16)"/><path class="cls-3" d="M335.33,280.22a1.85,1.85,0,0,1,.59.13c.46.06.26,0,.73.26A6,6,0,0,1,338.1,282a12.88,12.88,0,0,1,1.92,4.69,42.39,42.39,0,0,1,.46,13.81,42.84,42.84,0,0,1-2,8.05,21.35,21.35,0,0,1-2.71,5.16,29.8,29.8,0,0,1-7.53,1.52c-3.7.39-7.47.72-11.23.92s-7.53.2-11.3.07c-1.78-.07-3.57-.2-5.35-.33a14,14,0,0,0-4.09,0A2.07,2.07,0,0,0,294,314.7c25.57-15,30.59-.79,33-12.29s2.45-19.82,8.33-22.19ZM291.66,316a9,9,0,0,0-1,.73,41.4,41.4,0,0,1-3.5,2.44,42.5,42.5,0,0,1-7.14,3.57c-5.81,2.38-11.62,4.62-17.44,6.8a129.18,129.18,0,0,1-35.93,8.13c-3.37.26-6.81.39-10.24.39-1.78,0-3.63-.06-5.42-.06a12.33,12.33,0,0,0-5.35,1,2.32,2.32,0,0,0-.46.4,15.83,15.83,0,0,0-3.17,1.65c-1.59.92-3.17,1.91-4.76,2.9-3.17,2-6.41,3.9-9.64,5.82s-6.41,3.7-9.65,5.48c-1.65.86-3.23,1.78-4.89,2.58a18.57,18.57,0,0,0-3.83,2.31c-1.45-.79-3-1.39-4.49-2.11a44.34,44.34,0,0,1-5.68-3.31,37,37,0,0,1-8.85-8.72c-1.92-2.71-5.48-7.79-2.78-11a2.74,2.74,0,0,1,1.32-.92c.07.07,9.19,4.43,15.4,12.42s10.83,6.28,20.81-.66,18.62-12.35,26.22-11.76c7.33.66,54.37-4.1,80.46-18.1Z" transform="translate(-33.22 -16)"/><path class="cls-3" d="M285.45,212.38a28.91,28.91,0,0,0,4.1.39c1.91.13,3.83.33,5.68.59l1.12.14c-1.12,11.62,14.86,30.91,14.86,30.91l-1.45-.2a86.35,86.35,0,0,0-7.4-10.24,78.5,78.5,0,0,0-7.2-7.72,34.42,34.42,0,0,0-8.65-6.15c-.86-.4-2.31.6-1.52,1.65,3.63,4.63,8.19,8.59,11.95,13.15a93.92,93.92,0,0,1,9.58,14.33,91.37,91.37,0,0,1,6.87,15.93c1.85,5.68,3.57,11.82,2.78,17.83a47,47,0,0,1-2.12,9.05,18.09,18.09,0,0,1-3.36,6.21c-.93-39-17.91-57.27-35.35-57.74-.66-1-1.45-2.11-2.18-3.1a62,62,0,0,0-4.75-5.48,20.57,20.57,0,0,0-4.3-4,145.08,145.08,0,0,0,21.34-15.58Zm-126.3,67.51c.26-1.46.59-2.91.92-4.36a126.65,126.65,0,0,1,5.75-18.37c.39-1.06-1.32-1.71-1.78-.73-5.69,10.57-8.73,22.6-10,34.49l-.07,1c-.72.59-1.32,1.19-2,1.78s-1.45,1.26-2.18,1.92c3.9-14.6-2.57-23.32-8.59-28,2.51-3.17,5-6.41,7.73-9.45a48.13,48.13,0,0,1,4.43-4.49c.73-.73,1.52-1.38,2.31-2,.26-.2.6-.39.86-.59,3.57.26,7.13.46,10.7.46,6.61.13,13.21,0,19.82-.46a58.5,58.5,0,0,0-2.84,9.18c-.13.73-.33,1.52-.46,2.25-19,3.83-24.58,17.37-24.64,17.44Zm27.74-18c.53-2.25,1.06-4.43,1.72-6.68.46-1.52.92-3,1.39-4.49,3.36-.26,6.73-.66,10-1.05,20.87-2.78,41.28-9,59.71-19.23,1-.52,1.92-1.05,2.84-1.58a39.61,39.61,0,0,0,3.51,4c1.32,1.45,2.57,3,3.76,4.63.79,1.05,1.52,2.11,2.18,3.17a29,29,0,0,0-12.42,4.42c-21.27,13.55-35.08,17.18-63.88,16.45a63.29,63.29,0,0,0-8.85.4Z" transform="translate(-33.22 -16)"/><path class="cls-4" d="M267,292a1.08,1.08,0,0,0-1.32-.26c-8.72,4.23-17,9.25-26.23,12.42-7.79,2.71-16,4.16-24.24,3.17A34.63,34.63,0,0,1,195.81,299c-6.28-5.68-9.45-13.93-10-22.26a50.23,50.23,0,0,1,1-14.4c.47-2.38,1.13-4.76,1.79-7.14.46-1.52.92-3,1.39-4.49,3.36-.26,6.73-.66,10-1.05,20.87-2.78,41.28-9,59.71-19.23,1-.52,1.92-1.05,2.84-1.58a39.61,39.61,0,0,0,3.51,4c1.32,1.45,2.57,3,3.76,4.63a77.38,77.38,0,0,1,6.41,10.24,63.6,63.6,0,0,1,6.87,22.92,17.09,17.09,0,0,1-.13,5.48A16.66,16.66,0,0,1,281,281a1,1,0,0,0,.2,1.25c-2.18,2.32-6.34,5.82-14.14,9.71Z" transform="translate(-33.22 -16)"/><path class="cls-5" d="M186.89,261.92c.53-2.25,1.06-4.43,1.72-6.68.46-1.52.92-3,1.39-4.49,3.36-.26,6.73-.66,10-1.05,20.87-2.78,41.28-9,59.71-19.23,1-.52,1.92-1.05,2.84-1.58a39.61,39.61,0,0,0,3.51,4c1.32,1.45,2.57,3,3.76,4.63.79,1.05,1.52,2.11,2.18,3.17a29,29,0,0,0-12.42,4.42c-21.27,13.55-35.08,17.18-63.88,16.45a63.29,63.29,0,0,0-8.85.4Z" transform="translate(-33.22 -16)"/><path class="cls-2" d="M76.84,100.73a12.31,12.31,0,0,0-8.06-2.84c-3,.07-7.53.93-9,4a.64.64,0,0,0,.53.92,11,11,0,0,0,3.83-1,15.19,15.19,0,0,1,4.43-1.12,13.3,13.3,0,0,1,6.93,1.25A94.67,94.67,0,0,0,72,111.3c-1.06,3.24-1.85,6.48-2.64,9.78a152.76,152.76,0,0,0-2.65,15.39,9.17,9.17,0,0,1-2.18.73,6.79,6.79,0,0,1-4.23-1.52c-2.37-1.72-5.87-4.69-5-8,.33-1-1.12-1.33-1.45-.4-1.65,4.36,1.85,8.59,5.15,11a8.21,8.21,0,0,0,5.81,2,5.32,5.32,0,0,0,1.46-.26l-.07.85c-.13,1.46-.2,2.92-.33,4.37A21.44,21.44,0,0,1,49,141c-6-4.69-9.51-12.09-10.31-19.69-.79-7.39.07-15.92,4-22.32A18.05,18.05,0,0,1,51,92a55.36,55.36,0,0,1,5.68-2.11,48.08,48.08,0,0,1,6.08-1.79,14.44,14.44,0,0,1,10.43,2,18.93,18.93,0,0,1,4,3.37,14.21,14.21,0,0,1,1.52,2.24,5.65,5.65,0,0,0,.72,1.06q-1.38,2-2.57,4Z" transform="translate(-33.22 -16)"/><path class="cls-3" d="M69.5,120.35l-.19.73a152.76,152.76,0,0,0-2.65,15.39,9.17,9.17,0,0,1-2.18.73,6.79,6.79,0,0,1-4.23-1.52c-1.84-1.32-4.49-3.5-5-6,4.69-1.19,9.58-4,14.27-9.32Zm-16,9.71c.27,3.31,3,6.35,5.55,8.26a8.21,8.21,0,0,0,5.81,2,5.32,5.32,0,0,0,1.46-.26l-.07.85c-.13,1.46-.2,2.92-.33,4.37A21.44,21.44,0,0,1,49,141a26.73,26.73,0,0,1-8.59-12.22,25.11,25.11,0,0,0,13.08,1.25Z" transform="translate(-33.22 -16)"/><path class="cls-4" d="M59.79,102.52a.81.81,0,0,0,.53.26,11,11,0,0,0,3.83-1,15.19,15.19,0,0,1,4.43-1.12,13.3,13.3,0,0,1,6.93,1.25A94.67,94.67,0,0,0,72,111.3c-1.06,3.24-1.85,6.48-2.64,9.78a152.76,152.76,0,0,0-2.65,15.39,9.17,9.17,0,0,1-2.18.73,6.79,6.79,0,0,1-4.23-1.52c-2.37-1.72-5.87-4.69-5-8,.33-1-1.12-1.33-1.45-.4a5.33,5.33,0,0,0-.27.92c-2.84-9-.79-21.47,6.21-25.69Z" transform="translate(-33.22 -16)"/><path class="cls-5" d="M69.5,120.35l-.19.73a152.76,152.76,0,0,0-2.65,15.39,9.17,9.17,0,0,1-2.18.73,6.79,6.79,0,0,1-4.23-1.52c-1.84-1.32-4.49-3.5-5-6,4.69-1.19,9.58-4,14.27-9.32Z" transform="translate(-33.22 -16)"/><path class="cls-2" d="M301.44,88.51a136.37,136.37,0,0,1,7.79,13.81,88.44,88.44,0,0,1,8.65,29.2,68.49,68.49,0,0,1-3.5,30.12,104.53,104.53,0,0,1-12.88,24.77,129.1,129.1,0,0,1-39.43,36.47c-17,10.37-36.14,16.91-55.76,20.41a203.55,203.55,0,0,1-31.71,3.17c-5.41.13-10.83.13-16.25-.07-4-.06-8.06-.13-12.09-.33a124.26,124.26,0,0,1-23-5.35,86.5,86.5,0,0,1-17-7.92,54.36,54.36,0,0,1-13.87-13c-15.79-20.48-22.53-46.5-21.8-72.07a1.86,1.86,0,0,0,.13-2.77,155.8,155.8,0,0,1,2.38-20.61c.66-3.64,1.52-7.2,2.31-10.84.4-1.71.8-3.43,1.19-5.22.13-.26.27-.52.4-.79a54.17,54.17,0,0,1,6.87-10.63A109.79,109.79,0,0,1,102.6,78.47a150.35,150.35,0,0,1,47-24.38A196.8,196.8,0,0,1,202.81,45c18.56-.6,37.32,1.45,54.7,8.32,15.26,6.08,29,16.12,38.71,29.4,1.25,1.72,2.51,3.3,3.76,5a2.44,2.44,0,0,0,1.46.86Z" transform="translate(-33.22 -16)"/><path class="cls-4" d="M82.45,203.92C73.73,186.68,70,167.06,70.56,147.7a1.86,1.86,0,0,0,.13-2.77,155.8,155.8,0,0,1,2.38-20.61c.66-3.64,1.52-7.2,2.31-10.84.4-1.71.8-3.43,1.19-5.22.13-.26.27-.52.4-.79a54.17,54.17,0,0,1,6.87-10.63A109.79,109.79,0,0,1,102.6,78.47a150.35,150.35,0,0,1,47-24.38,191.48,191.48,0,0,1,20.94-5.41c-.13.06-119.7,27.81-88.06,155.24Z" transform="translate(-33.22 -16)"/><path class="cls-3" d="M301.44,88.51a136.37,136.37,0,0,1,7.79,13.81,88.44,88.44,0,0,1,8.65,29.2,68.49,68.49,0,0,1-3.5,30.12,104.53,104.53,0,0,1-12.88,24.77,129.1,129.1,0,0,1-39.43,36.47c-17,10.37-36.14,16.91-55.76,20.41a203.55,203.55,0,0,1-31.71,3.17c-5.41.13-10.83.13-16.25-.07-4-.06-8.06-.13-12.09-.33a124.26,124.26,0,0,1-23-5.35,86.5,86.5,0,0,1-17-7.92,50.09,50.09,0,0,1-7.53-5.88c116.13,28.14,187.61-44,186.35-94.47S240,48,240,48a116.47,116.47,0,0,1,17.51,5.28c15.26,6.08,29,16.12,38.71,29.4,1.25,1.72,2.51,3.3,3.76,5a2.44,2.44,0,0,0,1.46.86Z" transform="translate(-33.22 -16)"/><path class="cls-6" d="M72.81,119.23A55.93,55.93,0,0,1,77,107.47a54.17,54.17,0,0,1,6.87-10.63A109.79,109.79,0,0,1,102.6,78.47a150.35,150.35,0,0,1,47-24.38A196.8,196.8,0,0,1,202.81,45c18.56-.6,37.32,1.45,54.7,8.32,15.26,6.08,29,16.12,38.71,29.4,1.25,1.72,2.51,3.3,3.76,5a1.93,1.93,0,0,0,3.31-2,45.92,45.92,0,0,0-7.14-11,89.53,89.53,0,0,0-9-9.12,97.48,97.48,0,0,0-21.73-14.14C248.13,43.26,229,40,210,40a199.47,199.47,0,0,0-55.75,7.73c-17.64,5.16-34.68,13-49.55,23.85A119.47,119.47,0,0,0,84.57,90.16C79,96.7,73.8,104.24,72.15,112.89a19.38,19.38,0,0,0-.33,6.21c.06.53.86.72,1,.13Z" transform="translate(-33.22 -16)"/><path class="cls-6" d="M292.12,75a59,59,0,0,1,4.82,6.8c1.39,2.25,3,4.36,4.43,6.54a143.76,143.76,0,0,1,7.86,13.94,88.44,88.44,0,0,1,8.65,29.2,68.49,68.49,0,0,1-3.5,30.12,104.53,104.53,0,0,1-12.88,24.77,129.1,129.1,0,0,1-39.43,36.47c-17,10.37-36.14,16.91-55.76,20.41a203.55,203.55,0,0,1-31.71,3.17c-5.41.13-10.83.13-16.25-.07s-10.7-.13-16-.53c-2.64-.19-5.28-.26-7.93-.46-1.38-.06-1.71,2.18-.33,2.45a187.64,187.64,0,0,0,33.23,3.63A217.78,217.78,0,0,0,200,249.7c20.87-2.78,41.28-9,59.71-19.23A137.65,137.65,0,0,0,302.56,194c12.15-15.92,21.4-35.34,21-55.76a81.61,81.61,0,0,0-7.14-31.11A98.23,98.23,0,0,0,308.64,93a82.86,82.86,0,0,0-10-13c-1.92-1.91-3.83-3.76-5.75-5.68-.46-.53-1.12.2-.73.73Z" transform="translate(-33.22 -16)"/><path class="cls-6" d="M75.58,101.86A95.24,95.24,0,0,0,72,111.3c-1.06,3.24-1.85,6.48-2.64,9.78a154.55,154.55,0,0,0-3.11,19.81,129,129,0,0,0,2.64,40.57A108.3,108.3,0,0,0,85.23,219c4,5.61,8.45,11.1,13.87,15.26A71.12,71.12,0,0,0,117,244a82.86,82.86,0,0,0,42.54,5.62,1.26,1.26,0,0,0,0-2.51,123.27,123.27,0,0,1-36.26-6.41,86.5,86.5,0,0,1-17-7.92,54.36,54.36,0,0,1-13.87-13c-16.12-20.94-22.79-47.69-21.73-73.85a171,171,0,0,1,2.44-21.6c.66-3.64,1.52-7.2,2.31-10.84s1.59-7.13,2.45-10.7c.33-1.32-1.72-2.24-2.25-.92Z" transform="translate(-33.22 -16)"/><path class="cls-6" d="M82.32,97.5a12,12,0,0,0-.4-2.64,9.81,9.81,0,0,0-1.32-2.65A19.37,19.37,0,0,0,77,87.85a18.79,18.79,0,0,0-10.7-4.49c-4.56-.46-9.32,1.12-13.61,2.58s-8.79,3.5-12,7c-5.88,6.54-7.66,16.38-7.46,24.9.2,9.32,3.43,18.7,10.3,25.17a25.78,25.78,0,0,0,12.82,6.67,21.28,21.28,0,0,0,14-1.85c1.85-.92.53-4-1.38-3.3A21.75,21.75,0,0,1,49,141c-6-4.69-9.51-12.09-10.31-19.69-.79-7.33.07-15.92,4-22.32A18.05,18.05,0,0,1,51,92a55.36,55.36,0,0,1,5.68-2.11,48.08,48.08,0,0,1,6.08-1.79,14.44,14.44,0,0,1,10.43,2,18.93,18.93,0,0,1,4,3.37,14.21,14.21,0,0,1,1.52,2.24c.46.79,1,1.52,1.52,2.38s2.31.53,2.11-.59Z" transform="translate(-33.22 -16)"/><path class="cls-6" d="M237.62,45.84c-2.57-6.08.07-13.15,5.09-17.24a30.42,30.42,0,0,1,10.17-5c1.92-.6,3.9-1.13,5.88-1.59a43.82,43.82,0,0,1,5.82-1.19c4-.46,7.72.73,11.23,2.45a36,36,0,0,1,9,5.87,31.87,31.87,0,0,1,10.57,19,24,24,0,0,1-1.19,12.16,11.39,11.39,0,0,1-7.13,7,2.26,2.26,0,0,0,.59,4.42c4.29,0,7.8-3.37,9.84-6.93a25.13,25.13,0,0,0,3.11-12.55,34.79,34.79,0,0,0-9.91-24.11,42.89,42.89,0,0,0-10.11-7.8,32.36,32.36,0,0,0-12.75-4.29c-4.62-.33-9.51,1.18-13.93,2.44a38.07,38.07,0,0,0-12.36,5.61,20.27,20.27,0,0,0-7.79,10.77c-1.19,4.16-.73,8.66,2.18,12,.66.73,2.11-.06,1.71-1Z" transform="translate(-33.22 -16)"/><path class="cls-6" d="M77.1,100.93a12.61,12.61,0,0,0-8.32-3c-3,.07-7.53.93-9,4a.64.64,0,0,0,.53.92,11,11,0,0,0,3.83-1,15.19,15.19,0,0,1,4.43-1.12,12.5,12.5,0,0,1,7.53,1.65.87.87,0,0,0,1-1.39Z" transform="translate(-33.22 -16)"/><path class="cls-6" d="M54,104.7a3,3,0,0,0-.66.86,1.4,1.4,0,0,0-.2.79v.2c-.07.13,0,.26.07.39a.92.92,0,0,0,1.58.4c.13-.13.2-.26.33-.4l-.39.4a1.55,1.55,0,0,0,.46-.46.24.24,0,0,0,.06-.14c.07-.06.14-.19.07-.06h0c0-.06.07-.06.07-.13s.33-.27.06,0a1.36,1.36,0,0,0,.53-.73,1.18,1.18,0,0,0-.2-1.06A1.2,1.2,0,0,0,54,104.7Z" transform="translate(-33.22 -16)"/><path class="cls-6" d="M53.85,127.29c-1.65,4.36,1.85,8.59,5.15,11a8.21,8.21,0,0,0,5.81,2,5.18,5.18,0,0,0,3.11-1.12,2.55,2.55,0,0,0,1-2.44.93.93,0,0,0-.79-.6c-1.26-.07-2.38,1-3.64,1.06a6.79,6.79,0,0,1-4.23-1.52c-2.37-1.72-5.87-4.69-5-8,.33-1-1.12-1.33-1.45-.4Z" transform="translate(-33.22 -16)"/><path class="cls-6" d="M250,46.76c-1.12-3.1,1.85-5.55,4.43-6.6a23.78,23.78,0,0,1,4.69-1.39,16.29,16.29,0,0,0,5-1.65.77.77,0,0,0-.2-1.39c-2-.72-4.56-.06-6.47.46a21.9,21.9,0,0,0-5.75,2.18c-2.91,1.92-4.82,5.42-3.5,8.85.4,1.13,2.18.67,1.78-.46Z" transform="translate(-33.22 -16)"/><path class="cls-6" d="M270.19,38.44c.6-.13,1.52,0,2.05-.53a.5.5,0,0,0,.13-.59,1.38,1.38,0,0,0-1.06-.93,5.48,5.48,0,0,0-1.45-.13,1.14,1.14,0,0,0-1.06,1.26,1.12,1.12,0,0,0,1.39.92Z" transform="translate(-33.22 -16)"/><path class="cls-6" d="M277.39,51.39a7.29,7.29,0,0,1-.06,4.29c-.47,1.32-1.46,2.51-1.26,4a1.11,1.11,0,0,0,1.06.79c2.11.06,3.17-2.51,3.5-4.23a10,10,0,0,0-.79-5.88c-.67-1.39-2.78-.33-2.45,1.06Z" transform="translate(-33.22 -16)"/><path class="cls-6" d="M136.16,124c-3.37-1.52-5.82,1.52-6.34,4.62s-.73,7,1.05,9.78,5.55,4,8.79,3.76,7.13-1.12,9.44-3.56,2.91-6.61,2.12-9.85a9.39,9.39,0,0,0-6.28-6.74,14.08,14.08,0,0,0-9.58.27,10.12,10.12,0,0,0-5.74,7.66c-.53,3-.27,6.74,1.52,9.32,2.11,3.1,5.75,3.56,9.05,2.24,2.9-1.19,5.88-3.1,7.2-6.08s.92-6.73-1.65-8.85a8.23,8.23,0,0,0-4.56-1.65,10.38,10.38,0,0,0-5.29.26,6.15,6.15,0,0,0-3.43,8.79c1.52,2.84,5.15,4.36,8.32,4.1,4.1-.27,6-4.36,4.49-7.93a8,8,0,0,0-8.85-4.49c-4.42,1-5.28,6-2.57,9.25,2.57,3,7.39,3.1,9.44-.53s-.39-8.13-4.42-8.85a2.85,2.85,0,0,0-3.11,4.16,9.78,9.78,0,0,0,2.84,3.76,2.5,2.5,0,0,0,3.3.13,2.46,2.46,0,0,0,.66-3.23,28.49,28.49,0,0,1-2-3.57c-1.05,1.39-2.11,2.77-3.1,4.16a2.11,2.11,0,0,1,1,.46c-.13-.19.07.4.07.14s-.14.39,0,0c-.27.72-.27-.07.06.06s-.26-.13-.13-.06c-.2-.14-.86-.73-.73-.86s0,.33-.06.26-.07.14-.07.14.13-.07.27-.07a4.67,4.67,0,0,1,1.18.26,3.2,3.2,0,0,1,1,.8c.06.13.39.72.13.85.86-.39-.66-.46-.86-.46a3.05,3.05,0,0,1-1.79-.86,5.22,5.22,0,0,1-.33-.52c.14.26,0-.47,0-.14,0-.26.2-.39.47-.53a6.64,6.64,0,0,1,4.49.4l.2.2a1.54,1.54,0,0,1,.19.66,2.61,2.61,0,0,1-.13,1.38,6.68,6.68,0,0,1-3.1,2.78c-.93.47-2.44,1.19-3.17.79s-1.13-2.24-1.26-3.37a6.93,6.93,0,0,1,1.06-4.55c1.58-2.25,5.61-2.32,7.86-1.26,2.44,1.19,3.1,5.15,1.52,7.4-1,1.32-3.57,1.72-5.09,2s-3.43.33-4.62-.73c-1.45-1.18-1.39-3.5-1.39-5.21,0-1.39,0-3.77,1.65-4.43.93-.39,1.46-1.91.27-2.44Z" transform="translate(-33.22 -16)"/><path class="cls-6" d="M221.9,98.75c-3.3-1.19-6.34,1.45-7.86,4.16a10.31,10.31,0,0,0-.2,10.24c4.43,7.4,14.4,2.84,19.29-1.58,2.91-2.58,2.58-6.68,1.26-10-1.46-3.64-4.89-5.09-8.46-6s-7.66-.65-10.24,2.25c-2.38,2.71-2.64,7.13-1.58,10.44a10.41,10.41,0,0,0,6.67,6.93,9.31,9.31,0,0,0,9.12-2c2.57-2.44,2.57-6.94.59-9.71s-6.47-3-9.64-2.18a6.31,6.31,0,0,0-4.76,8.19,6.64,6.64,0,0,0,9.31,3.44,7.42,7.42,0,0,0,3.5-8.79c-1.32-3.5-6.67-5.35-9.9-3.63a5.75,5.75,0,0,0-.2,10,5.89,5.89,0,0,0,8.65-4.69,6.29,6.29,0,0,0-2.18-5.15c-1.78-1.45-4.69-2.25-6.47-.33-3.31,3.5,2,8.45,5.22,9.44-.27-1.72-.47-3.37-.73-5.08-.33.19-.66.46-1,.66-1.85,1.32-1.32,4.62,1.25,4.56h1.19c2.91-.07,3.64-3.71,1.39-5.29a9.12,9.12,0,0,1-1.85-1.32,1.91,1.91,0,0,1-.53-.53,2.56,2.56,0,0,1-.33-.53,1.57,1.57,0,0,1-.33,1.92c-.4.26-.86.53-1.25.79-.67.13-.47-.26-.33.07.06.06.19.2.19.26.2.27.07.13,0,0-.06-.33.14.13.07.2s0-.2,0-.2c0-.2-.2.33-.07.13s-.19.27-.33.27.47-.07.47-.07c-.53.07-.33-.13-.2-.06s-.07,0-.07-.07c-.06.13-.13-.26,0,0,.07.07,0,.4.07.07s-.07,0-.07.13c0-.13.27-.27-.06-.13a2.72,2.72,0,0,1,1.65.39c0-.06.39.2.33.13.66.27.06.27,0-.13,0,0,.06.4.13.33a5.37,5.37,0,0,1-.4,1.13,1,1,0,0,1-1.65.26,1.39,1.39,0,0,1-.13-.46c-.07.26.2-.13.13-.13a1.42,1.42,0,0,1,.47-.2,7,7,0,0,1,3.83-.14c-.27-.12-.07-.12.06.14-.13-.26.13.46.13.53a4.07,4.07,0,0,1,.14,1.25c-.27.92-1.59,1.19-2.45,1.19a4.22,4.22,0,0,1-2.9-1.12,5.88,5.88,0,0,1-1.59-3.5c-.13-1.19-.07-3.18,1.06-4a4.74,4.74,0,0,1,3.5-.33,12.56,12.56,0,0,1,4.42,1.58c1.06.79,1.39,2.71,1.46,3.9.06.79-.07.73-.53,1.12s-1.26.93-1.85,1.32c-2.45,1.59-7.33,4.76-9.12.93a6.27,6.27,0,0,1,.2-4.63c.4-1.32,1.52-3.3,3.11-3.43a1.49,1.49,0,0,0,.39-2.91Z" transform="translate(-33.22 -16)"/><path class="cls-6" d="M189.53,145.32a17,17,0,0,0-9.51,4.1c-2.51,2-5.35,5-5.09,8.39a8.15,8.15,0,0,0,6.35,7c3.63.79,7.33-.46,10.7-1.85s6.6-3.37,8.72-6.47a10.74,10.74,0,0,0,1.58-9.45,6.07,6.07,0,0,0-4.09-3.83,11.24,11.24,0,0,0-5.16.07c-3.63.66-7.33,1.65-10.37,3.83-2.71,2-5.15,4.95-5.68,8.45a5.91,5.91,0,0,0,1.72,5.62,6.7,6.7,0,0,0,5,1.45,17.56,17.56,0,0,0,9.78-4.29c2.51-2.05,5.88-6.21,3.24-9.38-1.32-1.65-3.44-1.59-5.42-1.39a30.39,30.39,0,0,0-5.81,1.12c-3.17,1.06-7.2,2.71-8.52,6.08a4.73,4.73,0,0,0,1.58,5.75,7.92,7.92,0,0,0,5.09.79,17.8,17.8,0,0,0,9.51-3.57c2.64-2,6.61-6.27,3.24-9.51-1.59-1.45-3.64-1.26-5.55-.92a20.18,20.18,0,0,0-5.22,1.52c-3.11,1.25-9.32,3.89-6.8,8.25,2.11,3.7,7.59,2.18,10.63.86a17.74,17.74,0,0,0,4.49-3c1.72-1.65.4-5-2-4.89a89.58,89.58,0,0,0-12.61,1.66c-2.78.59-2.12,5,.66,4.88,4-.13,8-.53,12-.79-.65-1.65-1.32-3.24-2-4.89a9.21,9.21,0,0,1-3.57,2.25,9.08,9.08,0,0,1-2,.46,4.72,4.72,0,0,1-1,.07h-.53a1.27,1.27,0,0,1,1.19,1.19,10.81,10.81,0,0,0-.33,1.45c0-.06-.2.07-.2.07s.66-.47.73-.47c.39-.26.86-.53,1.32-.79a15.23,15.23,0,0,1,2.84-1.25,28.54,28.54,0,0,1,3.17-.93,10.28,10.28,0,0,0,1.32-.2h.2c0-.07-1.59-1.85-.93-1.91-.06,0-.53.72-.66.86a5.72,5.72,0,0,1-.92.92,11.77,11.77,0,0,1-2.38,1.65,11.06,11.06,0,0,1-4.69,1.39c-.53.06-1.06,0-1.52.06h-.33a10.21,10.21,0,0,1,.66,1.06c.07,0-.33.46.07,0a3,3,0,0,1,.66-.66,16.75,16.75,0,0,1,5.81-2.38,23.69,23.69,0,0,1,3-.52,6,6,0,0,0,1.52-.07c1-.2-1.85-1.19-1.32-1.65.2-.14-.07.13-.07.26a12.1,12.1,0,0,1-3.76,3.57,16.08,16.08,0,0,1-2.31,1.06,11,11,0,0,1-2.45.59,1.91,1.91,0,0,1-.92-.07.33.33,0,0,1,.2.2,2.85,2.85,0,0,1,.33-1.78c1.58-3.57,5.61-5.22,9.18-6a24.14,24.14,0,0,1,3.24-.66h.92a2.69,2.69,0,0,1,.53.06c-.26-.19.13.4.07.2a2.26,2.26,0,0,1,.19.79,4.78,4.78,0,0,1-.46,2.51c-1.39,3.24-5.22,5-8.52,6.15-1.78.72-4,1.58-6,.85-1.13-.39-2.12-1.38-1.72-2.5.66-1.85,2.51-3.57,4-4.76a40,40,0,0,1,6-3.77c1.25-.66.72-3-.8-2.84Z" transform="translate(-33.22 -16)"/><path class="cls-6" d="M189.27,158a19.58,19.58,0,0,0,.66,4.82c.4,1.78.86,3.5,1.39,5.22s1,3.37,1.58,4.95,1.06,3.5,2.38,4.56a1.15,1.15,0,0,0,1.92-.53,9.08,9.08,0,0,0-1-4.69c-.53-1.65-1.13-3.3-1.72-4.89l-1.59-4.95a44.29,44.29,0,0,1-1.39-4.76c-.19-1.38-2.24-1-2.24.27Z" transform="translate(-33.22 -16)"/><path class="cls-6" d="M194.75,175.78a15.32,15.32,0,0,0-3.76,3.69c-1.13,1.26-2.58,2.71-3.11,4.37s1.32,2.51,2.51,1.91c1.59-.79,2.71-2.57,3.7-4a14.92,14.92,0,0,0,2.71-4.49,1.38,1.38,0,0,0-2.05-1.52Z" transform="translate(-33.22 -16)"/><path class="cls-6" d="M195,176.7c.86,1.39,2.91,2.05,4.43,2.64,1.71.6,3.63,1.46,5.48,1.13,1.45-.2,1.32-2.12.33-2.78-1.32-1-3.44-1.12-5-1.52s-3.3-1.12-4.82-.72a.81.81,0,0,0-.46,1.25Z" transform="translate(-33.22 -16)"/><path class="cls-6" d="M324,302a48.23,48.23,0,0,1,3.24-12.88,28.29,28.29,0,0,1,3.37-5.81c1.06-1.26,2.64-2.78,4.16-3a2.53,2.53,0,0,1,1.19.07c.46.06.26,0,.73.26A6,6,0,0,1,338.1,282a12.88,12.88,0,0,1,1.92,4.69,42.39,42.39,0,0,1,.46,13.81,42.84,42.84,0,0,1-2,8.05,29.29,29.29,0,0,1-3.44,6.28c-1.52,2.18,1.39,4.43,3.44,3.37,2.71-1.45,4.09-4.36,5.15-7.07a41.24,41.24,0,0,0,2.11-7.93,48.31,48.31,0,0,0-.2-17.7c-1-4.56-3.63-9.84-8.65-10.77-6.21-1.12-10.77,4.16-13.08,9.25-2.51,5.68-3.83,11.83-2.77,18,.26,1.45,2.7,1.45,2.9,0Z" transform="translate(-33.22 -16)"/><path class="cls-6" d="M337.51,312.92a24.82,24.82,0,0,1-9.25,2.31c-3.7.39-7.47.72-11.23.92s-7.53.2-11.3.07c-1.78-.07-3.57-.2-5.35-.33s-4.56-.6-5.88,1.05a2.11,2.11,0,0,0-.26,2.32c1.05,2.05,4.09,2.05,6.14,2.18s3.9.26,5.81.33c4,.13,8,.06,12-.14s8.12-.59,12.15-1.18c3.77-.53,7.93-1.32,9.78-5a1.88,1.88,0,0,0-2.57-2.5Z" transform="translate(-33.22 -16)"/><path class="cls-6" d="M322.91,300.3c-1.79-.93-4.16-.46-6.08-.66s-4.3-1.19-6.08-.2a2.13,2.13,0,0,0,0,3.63,9.24,9.24,0,0,0,3.3.8c1,.06,2,.19,3,.19,2,.07,4.69.07,6.21-1.45a1.51,1.51,0,0,0-.33-2.31Z" transform="translate(-33.22 -16)"/><path class="cls-6" d="M312.47,302.68a14.67,14.67,0,0,0,5.75-6.54,39.23,39.23,0,0,0,2.84-8.66,34.25,34.25,0,0,0,.79-10,53.65,53.65,0,0,0-2-10.11A88.16,88.16,0,0,0,302.36,234a78.5,78.5,0,0,0-7.2-7.72,34.42,34.42,0,0,0-8.65-6.15c-.86-.4-2.31.6-1.52,1.59,3.63,4.69,8.19,8.65,11.95,13.21a93.92,93.92,0,0,1,9.58,14.33,91.37,91.37,0,0,1,6.87,15.93c1.85,5.68,3.57,11.82,2.78,17.83a47,47,0,0,1-2.12,9.05,17.67,17.67,0,0,1-4.29,7.2c-1.78,1.78.6,4.63,2.71,3.44Z" transform="translate(-33.22 -16)"/><path class="cls-6" d="M294,314.7a12.83,12.83,0,0,0-3.3,2.05,41.4,41.4,0,0,1-3.5,2.44,40.9,40.9,0,0,1-7.2,3.57c-5.75,2.38-11.56,4.62-17.38,6.8a129.18,129.18,0,0,1-35.93,8.13c-3.37.26-6.81.39-10.24.39-1.78,0-3.63-.06-5.42-.06a12.33,12.33,0,0,0-5.35,1,1.75,1.75,0,0,0-.33,2.77c2.64,2.05,6.54,2,9.71,2s6.28,0,9.45-.2A138.07,138.07,0,0,0,243.83,341c12.75-2.64,24.91-7.53,36.93-12.42a51,51,0,0,0,9-4.29c2.78-1.79,6.21-4.3,6.55-7.8A1.84,1.84,0,0,0,294,314.7Z" transform="translate(-33.22 -16)"/><path class="cls-6" d="M207.3,339.41c-1.85-.6-3.76.79-5.28,1.65s-3.17,1.91-4.76,2.9c-3.17,2-6.41,3.9-9.64,5.82s-6.41,3.7-9.65,5.48c-1.58.86-3.23,1.78-4.89,2.58-1.91,1.05-3.76,1.84-5.15,3.63-1.12,1.52.46,3.56,2.12,3.56,2.11,0,4-1.18,5.74-2.17s3.44-1.79,5.09-2.71c3.37-1.79,6.61-3.64,9.84-5.62s6.41-4,9.51-6c1.59-1.06,3-2.11,4.56-3.3s3.44-2.38,3.57-4.49a1.4,1.4,0,0,0-1.06-1.32Z" transform="translate(-33.22 -16)"/><path class="cls-6" d="M170.64,360.94a53.54,53.54,0,0,0-5.88-2.9,44.34,44.34,0,0,1-5.68-3.31,37,37,0,0,1-8.85-8.72c-1.92-2.71-5.48-7.79-2.78-11,1.26-1.51,3.57-1.18,5.29-.79a27.09,27.09,0,0,1,6.14,2.71,39.31,39.31,0,0,1,6.34,4.23c1,.79,2,1.65,3,2.51a29.77,29.77,0,0,0,3.5,2.31c1.38.93,2.71-.86,2.11-2.11a17.22,17.22,0,0,0-2.11-3.51,23.47,23.47,0,0,0-3.17-3,45.74,45.74,0,0,0-6.68-4.55c-4.62-2.65-11.16-5.82-16.25-2.78a8.82,8.82,0,0,0-4,6.87,14.89,14.89,0,0,0,2.32,8.46,40.32,40.32,0,0,0,10,11.62,43.5,43.5,0,0,0,7.26,4.69c2.58,1.32,5.68,2.65,8.59,2.45a1.76,1.76,0,0,0,.86-3.24Z" transform="translate(-33.22 -16)"/><path class="cls-6" d="M171,344.69c3.37,2.58,8.92-4,5.95-6.94a2.42,2.42,0,0,0-3.18.07,2.18,2.18,0,0,0-.72,1.45c-.07.4-.07.47-.07.2,0,.13,0,.27-.06.33s-.27.73-.14.46a2.6,2.6,0,0,1-.33.67,6.93,6.93,0,0,1-.72.79,3,3,0,0,0-1.13,1.45,1.48,1.48,0,0,0,.4,1.52Z" transform="translate(-33.22 -16)"/><path class="cls-6" d="M164,256.43c-5.69,10.57-8.73,22.6-10,34.49a80.2,80.2,0,0,0,0,19.09,39.9,39.9,0,0,0,6.14,16.45,44.72,44.72,0,0,0,6.28,7.73c1.12,1.05,2.31,2.11,3.57,3.1,1.65,1.26,3.1,2.51,5.28,2a1.93,1.93,0,0,0,1.32-2.38c-.26-1.71-1.52-2.37-2.77-3.36a30,30,0,0,1-3.11-2.58,42.19,42.19,0,0,1-5.41-5.94,38.62,38.62,0,0,1-6.68-14.8,71.84,71.84,0,0,1-.92-17.71,98,98,0,0,1,2.31-17,126.65,126.65,0,0,1,5.75-18.37c.39-1.06-1.32-1.71-1.78-.73Z" transform="translate(-33.22 -16)"/><path class="cls-6" d="M156.77,247.38c-2.18-.06-4,1.19-5.62,2.45a40.33,40.33,0,0,0-4.75,4,123.89,123.89,0,0,0-8.26,9.51c-2.84,3.5-5.68,7-8.52,10.57s-5.55,6.8-8,10.5a41.4,41.4,0,0,0-5.41,11.1,23.88,23.88,0,0,0-.86,11.83c1.06,4.75,5.61,6.27,10,6.34a29.88,29.88,0,0,0,12.36-3.11A52.76,52.76,0,0,0,149.44,303c1.78-1.46,3.5-3,5.21-4.7s3.83-3.49,4.17-5.94a1.56,1.56,0,0,0-1.92-1.85c-2,.33-3.37,1.85-4.89,3.17s-2.84,2.51-4.29,3.83a61.07,61.07,0,0,1-8.85,6.48,33,33,0,0,1-10.18,4.09,17.07,17.07,0,0,1-4.89.2c-1.19-.13-2.7-.33-3.17-1.58a12.39,12.39,0,0,1-.33-4.89,26.25,26.25,0,0,1,1-5,38.81,38.81,0,0,1,4.76-9.64c4.36-6.67,9.78-12.75,14.73-19,2.64-3.36,5.35-6.8,8.19-10a48.13,48.13,0,0,1,4.43-4.49c.73-.73,1.52-1.38,2.31-2a9.28,9.28,0,0,0,1.32-1,12.91,12.91,0,0,0,.86-1.32,1.32,1.32,0,0,0-1.12-1.92Z" transform="translate(-33.22 -16)"/><path class="cls-6" d="M305.27,246.46a18.66,18.66,0,0,0,5.81,2.38,42.66,42.66,0,0,0,6.34,1.19,65.82,65.82,0,0,0,13,.39c7.13-.52,18.69-1.85,18.56-11.43-.13-8.12-7.79-14.13-14.2-17.83a90.73,90.73,0,0,0-23.06-9.38,108.06,108.06,0,0,0-13.87-2.64c-2.31-.34-4.56-.53-6.87-.66-1.19-.07-2.31-.07-3.5-.14a13,13,0,0,0-1.65.07,5.4,5.4,0,0,0-2,.73,1.51,1.51,0,0,0,.06,2.57c1.72,1.06,3.63.93,5.62,1.06s3.83.33,5.68.59a100.75,100.75,0,0,1,10.9,2,104.64,104.64,0,0,1,21.07,7.67,49.28,49.28,0,0,1,9.51,5.67c2.51,2,5.09,4.43,6.28,7.27,1,2.38,1.25,5-1.06,6.54a12.52,12.52,0,0,1-4.56,1.65,55.55,55.55,0,0,1-5.48.93,65.81,65.81,0,0,1-13,.26c-2.12-.13-4.17-.39-6.28-.72a36.41,36.41,0,0,0-6.6-.8,1.4,1.4,0,0,0-.73,2.58Z" transform="translate(-33.22 -16)"/><path class="cls-6" d="M188.87,247.25c-2.24,3.9-3.56,8.59-4.62,12.95a55.77,55.77,0,0,0-1.65,13.67c0,9,2.71,18.24,8.78,25,10.9,12.36,29.53,13.68,44.46,9.45,11-3.11,21.4-8.66,30.92-14.93a1,1,0,0,0-1.06-1.72c-8.72,4.23-17,9.25-26.23,12.42-7.79,2.71-16,4.16-24.24,3.17A34.63,34.63,0,0,1,195.81,299c-6.28-5.68-9.45-13.93-10-22.26a50.23,50.23,0,0,1,1-14.4c.47-2.38,1.13-4.76,1.79-7.14s1.58-4.75,2.11-7.26a1,1,0,0,0-1.85-.73Z" transform="translate(-33.22 -16)"/><path class="cls-6" d="M274.82,288.67a5,5,0,0,0,.92-.79.91.91,0,0,0,.13-1.06.93.93,0,0,0-1-.39,4.84,4.84,0,0,0-1.05.59,1,1,0,1,0,1,1.65Z" transform="translate(-33.22 -16)"/><path class="cls-6" d="M262.33,228.29c.86,1.72,2.51,3.11,3.77,4.56s2.57,3,3.76,4.63a77.38,77.38,0,0,1,6.41,10.24,63.6,63.6,0,0,1,6.87,22.92,17.09,17.09,0,0,1-.13,5.48A16.66,16.66,0,0,1,281,281a1,1,0,0,0,1.19,1.52c3.63-1.46,4.42-5.61,4.42-9.18a46.2,46.2,0,0,0-2-12.36,67.85,67.85,0,0,0-11.37-23.58,62,62,0,0,0-4.75-5.48c-1.52-1.65-3.31-3.7-5.42-4.56-.53-.2-.92.53-.66.92Z" transform="translate(-33.22 -16)"/><path class="cls-6" d="M171,339.34H171c.59.26,1.19.46,1.78.72a.06.06,0,0,1-.06-.06,5.73,5.73,0,0,0,.26.86v-.13c-.33.46-.59,1-.86,1.45.07-.07.86-.92.6-.6a2.39,2.39,0,0,1,.53-.59,2.6,2.6,0,0,1,.86-.53c-.53-1.32-1.06-2.64-1.66-3.9a13.5,13.5,0,0,0-2.7,1.39,3.8,3.8,0,0,0-1.26,1.26,3,3,0,0,0-.4,1.32c0,.2.53,1.78.2.86a2.16,2.16,0,0,0,3.9.53.26.26,0,0,1,.06-.14l-.79.8a1.47,1.47,0,0,0,.6-.47,3.5,3.5,0,0,0,.46-.59c0,.13-.13.2-.27.26.14-.06.34-.2.47-.26a20.17,20.17,0,0,0,1.91-1.32,2.16,2.16,0,0,0,.8-2.91,2.24,2.24,0,0,0-3-.73c-1.32.66-3.17,2.38-3,4a1.93,1.93,0,0,0,1.33,1.79c-.33-.2-.27-.13.19,0a1.27,1.27,0,0,0,.47.06,1.5,1.5,0,0,0,1.52-1.18v-.07c.19-1-.67-2.31-1.85-1.85Z" transform="translate(-33.22 -16)"/><path class="cls-6" d="M173.94,331.28a14.15,14.15,0,0,0,5,1.12c1,.07,4.16.13,4.42-1.25.33-1.65-2.24-.93-3-.8a13,13,0,0,1-5.75-.72c-.92-.33-1.58,1.25-.66,1.65Z" transform="translate(-33.22 -16)"/><path class="cls-6" d="M171.23,325.66l3.77.6c1,.13,2.05.46,3,0a.66.66,0,0,0,.13-1c-.72-.73-1.85-.66-2.84-.79-1.18-.2-2.37-.33-3.56-.53s-1.65,1.58-.47,1.71Z" transform="translate(-33.22 -16)"/><path class="cls-6" d="M168.72,319.59l3.18.59a2.76,2.76,0,0,0,2.37-.26.74.74,0,0,0,.07-.66c-.4-.8-1.39-.86-2.12-1.06-1-.13-2-.33-3-.53-1.25-.2-1.78,1.72-.53,1.92Z" transform="translate(-33.22 -16)"/><path class="cls-6" d="M165.16,312.52a2.92,2.92,0,0,1,1.85.13c.66.13,1.58.2,1.58-.73s-1.05-1.32-1.72-1.45a4.27,4.27,0,0,0-2.24.07,1,1,0,1,0,.53,2Z" transform="translate(-33.22 -16)"/><path class="cls-6" d="M163.44,307.23l1.25.2a2.32,2.32,0,0,0,.73.13,3,3,0,0,0,.73-.26c.53-.2.53-1,.13-1.39a4.46,4.46,0,0,0-2.31-.66,1.17,1.17,0,0,0-1.26.73,1,1,0,0,0,.73,1.25Z" transform="translate(-33.22 -16)"/><path class="cls-6" d="M163.24,300.83a1.2,1.2,0,0,0,.6-.53.71.71,0,0,0,.06-.73,1,1,0,0,0-1.25-.72,1.27,1.27,0,0,0-.6.46.81.81,0,0,0-.06.79,1,1,0,0,0,1.25.73Z" transform="translate(-33.22 -16)"/><path class="cls-6" d="M165.36,271c.59-.59,1.45-.66,1.91-1.38a.83.83,0,0,0-.26-1c-1-.59-2.32.33-3,1.06-.8.93.52,2.18,1.32,1.32Z" transform="translate(-33.22 -16)"/><path class="cls-6" d="M166.68,266.08a8.66,8.66,0,0,1,1.85-.79,2.44,2.44,0,0,0,1.45-.93.61.61,0,0,0-.2-.73c-1.12-.79-3,.33-4.09.87s-.07,2.11,1,1.58Z" transform="translate(-33.22 -16)"/><path class="cls-6" d="M167.34,260.86c1.19-.07,2.31-.13,3.5-.26a5.43,5.43,0,0,0,2.9-.66.5.5,0,0,0-.06-.86,5.13,5.13,0,0,0-2.84-.33l-3.5.19c-1.26.07-1.26,2,0,1.92Z" transform="translate(-33.22 -16)"/><path class="cls-6" d="M169,255.77a26.8,26.8,0,0,1,3.1-.66,7.63,7.63,0,0,0,2.71-.72.67.67,0,0,0-.13-1.19c-1.85-.73-4.43.26-6.14.79-1.13.4-.66,2.11.46,1.78Z" transform="translate(-33.22 -16)"/><path class="cls-6" d="M110.33,234a63.81,63.81,0,0,0,15.59,5.89c2.71.59,5.48,1.18,8.19,1.58s5.68,1.19,8.26.46a.79.79,0,0,0,.19-1.45c-2.17-1.32-5.15-1.52-7.66-1.92-2.71-.46-5.35-.86-8.06-1.45a77.54,77.54,0,0,1-15.65-4.62c-1-.47-1.85,1-.86,1.51Z" transform="translate(-33.22 -16)"/><path class="cls-6" d="M105.7,226.64a92.82,92.82,0,0,0,9.78,3.77,49.89,49.89,0,0,0,5,1.45c1.45.33,3.37,1.06,4.69.33a.69.69,0,0,0,.13-1.06c-.92-1.18-3-1.25-4.42-1.58-1.59-.4-3.24-.86-4.82-1.26a97.94,97.94,0,0,1-9.72-3.23c-.92-.33-1.51,1.19-.66,1.58Z" transform="translate(-33.22 -16)"/><path class="cls-6" d="M105.31,219.51c2.38.79,4.69,1.65,7.07,2.44,2.18.73,4.55,1.85,6.93,1.85.33,0,.66-.59.33-.86-1.91-1.38-4.42-1.91-6.6-2.57-2.45-.73-4.89-1.52-7.34-2.25-.92-.33-1.25,1.12-.39,1.39Z" transform="translate(-33.22 -16)"/><path class="cls-6" d="M99.49,208.8c1.79.8,3.51,1.53,5.29,2.25.86.4,1.72.79,2.64,1.13a3.53,3.53,0,0,0,2.18.52.46.46,0,0,0,.4-.72c-.93-1.32-3-1.72-4.43-2.32-1.78-.79-3.5-1.51-5.28-2.24-.93-.4-1.79,1-.8,1.38Z" transform="translate(-33.22 -16)"/><path class="cls-6" d="M98.83,202.26c1.13.34,2.18.67,3.24,1.06a13.51,13.51,0,0,0,3,.79c.33,0,.4-.46.14-.65a11.12,11.12,0,0,0-2.84-1.2c-1.06-.39-2.12-.79-3.18-1.12-.72-.26-1,.93-.33,1.12Z" transform="translate(-33.22 -16)"/><path class="cls-6" d="M94,194.08a9.89,9.89,0,0,0,3.76,1.25c.33,0,.4-.4.26-.6a10.67,10.67,0,0,0-3.17-2.18c-1-.59-1.91,1.06-.85,1.53Z" transform="translate(-33.22 -16)"/><path class="cls-6" d="M83.18,126.5a6.57,6.57,0,0,0,2.31.19c.66-.06.79-1.18.13-1.45a7.7,7.7,0,0,0-2.44-.4.84.84,0,0,0-.86.86.82.82,0,0,0,.86.8Z" transform="translate(-33.22 -16)"/><path class="cls-6" d="M80.6,121c2.18,1,5.62,2.77,8.13,1.72a.5.5,0,0,0,.06-.8,9.52,9.52,0,0,0-3.3-1.19,22.12,22.12,0,0,1-3.9-1.51c-1.19-.6-2.18,1.18-1,1.78Z" transform="translate(-33.22 -16)"/><path class="cls-6" d="M81.79,115.4c3.9-.33,7.6,3.37,11.56,2.18a.7.7,0,0,0,.13-1.25c-1.85-1-4.22-1-6.21-1.66s-3.76-1.58-5.68-.79c-.72.33-.72,1.58.2,1.52Z" transform="translate(-33.22 -16)"/><path class="cls-6" d="M81.92,108.79a61.18,61.18,0,0,0,8.46,1.59c2.71.26,5.94.79,8.52-.27a.52.52,0,0,0,0-1c-2.51-.79-5.48-.39-8.06-.59a74.36,74.36,0,0,1-8.59-1.06.68.68,0,0,0-.33,1.32Z" transform="translate(-33.22 -16)"/><path class="cls-6" d="M85.36,103.7c2.31.07,4.62.07,7,.14,1.06,0,2.18,0,3.24.07a8.79,8.79,0,0,0,3.5-.34c.46-.2.66-.92.13-1.18-2-.93-4.56-.53-6.67-.6-2.38-.07-4.82-.13-7.2-.26a1.09,1.09,0,1,0,0,2.17Z" transform="translate(-33.22 -16)"/><path class="cls-6" d="M89.72,96c2,.59,4,1.19,6.14,1.65,1.79.4,3.9,1,5.75.59a.59.59,0,0,0,.13-1c-1.58-1-3.77-1.19-5.61-1.66s-3.9-1-5.88-1.58c-1.33-.4-1.85,1.65-.53,2Z" transform="translate(-33.22 -16)"/><path class="cls-6" d="M94.8,90.63a21.61,21.61,0,0,0,2.71.46,6.25,6.25,0,0,0,2.65-.13.5.5,0,0,0,.06-.93,6.72,6.72,0,0,0-2.31-.59c-.86-.2-1.72-.33-2.64-.53-1.13-.27-1.59,1.52-.47,1.72Z" transform="translate(-33.22 -16)"/><path class="cls-6" d="M100.75,85.87c1.06.07,2.18.2,3.24.26a3.09,3.09,0,0,0,2.44-.46c.2-.13.13-.46,0-.66a3.22,3.22,0,0,0-2.44-.66c-1.06-.06-2.18-.2-3.24-.26s-1.12,1.71,0,1.78Z" transform="translate(-33.22 -16)"/><path class="cls-6" d="M107.88,80.85c2.05-.93,4.16-1.06,6.35-1.45.46-.07.33-.67,0-.73a10,10,0,0,0-7.07.46.94.94,0,1,0,.72,1.72Z" transform="translate(-33.22 -16)"/><path class="cls-6" d="M115.48,76.75c1.12.07,2.44.33,3.44-.2a.67.67,0,0,0,.13-1,6.25,6.25,0,0,0-3.3-.92,1.07,1.07,0,1,0-.27,2.11Z" transform="translate(-33.22 -16)"/></svg>