<svg id="Capa_1" data-name="Capa 1" xmlns="http://www.w3.org/2000/svg" viewBox="0 0 327.2 374"><defs><style>.cls-1,.cls-7{fill:#6b4d2f;}.cls-1,.cls-2,.cls-3,.cls-4,.cls-5,.cls-6,.cls-8{fill-rule:evenodd;}.cls-2{fill:#e5b1bb;}.cls-3{fill:#e9a76d;}.cls-4{fill:#ba875b;}.cls-5{fill:#fff;}.cls-6{fill:#dad1c9;}.cls-8{fill:#80c6ea;}</style></defs><title>2</title><path class="cls-1" d="M134.75,42a18.85,18.85,0,0,0,.13-2,18.45,18.45,0,0,0-.86-6,20.09,20.09,0,0,0-7.1-10.2c-3.91-3-9.26-4.3-14.06-5.46s-10.15-1.92-15.13-.61C88.51,20.14,81,28,76.12,35.71c-5.31,8.47-7.77,18.72-5.31,28.54A27.67,27.67,0,0,0,78.6,77.57a24.58,24.58,0,0,0,8.69,5.28,136.45,136.45,0,0,0-15.92,30.34,113.93,113.93,0,0,0-7.05,43.17c.33,7.31,1.2,14.72,3.75,21.67a80.1,80.1,0,0,0,10.69,19.06,91.77,91.77,0,0,0,26.72,24.67l.21.21a36.27,36.27,0,0,0-5.71.87,114.86,114.86,0,0,0-13.26,3.73l-14,4.52c-4.52,1.52-9.16,3-13.58,4.88a48.06,48.06,0,0,0-11.43,6.82c-3.25,2.73-6.39,6.2-7.86,10.13-1.78,4.91,1.5,8.79,5.52,11.41s8.55,3.67,13.15,4.37a65.83,65.83,0,0,0,15.24-.08c2-.23,4-.54,5.9-.9a76.35,76.35,0,0,0-5.79,9.84,43,43,0,0,0-4,18.32,45.79,45.79,0,0,0,1.26,10.48,39.52,39.52,0,0,0,1.45,4.84l.09.39a6.09,6.09,0,0,1-.84,0,1,1,0,0,0-.4.08A9.12,9.12,0,0,0,71,310.5a49.38,49.38,0,0,0-3.46-8c-2.67-4.93-6.78-11.6-13.35-11.78a9.39,9.39,0,0,0-7.69,3.89c-2.06,2.47-2.67,5.76-2.83,8.85A40.94,40.94,0,0,0,46,319.6,45.87,45.87,0,0,0,50,328.09a23.15,23.15,0,0,0,5,6.16,2.62,2.62,0,0,0,1.19,1.83c2,1.22,4.28,1.18,6.54,1.41L69,338c4.12.24,8.25.48,12.35.63s8.24.13,12.34,0c2-.07,4-.14,6-.31a17.16,17.16,0,0,0,3.85-.52c1.68,2.14,4.26,3.68,6.48,5.14,2.85,1.79,5.8,3.55,8.77,5.16a148.51,148.51,0,0,0,19.32,8.82c13.3,5.07,27.34,7.58,41.29,10.22a63,63,0,0,0,10.77,1.22,20.62,20.62,0,0,0,7.17-.87c.44,1.95,2.75,3.39,4.25,4.5,1.74,1.25,3.46,2.42,5.25,3.62,3.56,2.39,7.21,4.68,11,6.82s7.86,4.08,11.91,5.86a19.7,19.7,0,0,0,7.55,2.22,2.8,2.8,0,0,0,1.24.45c3.41.29,6.36-1.46,9-3.34a49,49,0,0,0,6.62-5.89,51.38,51.38,0,0,0,10.21-16c1.83-4.62,2.52-10.88-1.61-14.64-5-4.54-12.4-2.4-17.46.87a34.87,34.87,0,0,0-12.13,12.31c-1.13-.88-2.49-1.56-3.61-2.34a6.7,6.7,0,0,0-.59-.53,16.68,16.68,0,0,0,4-1.77,40.12,40.12,0,0,0,7.65-6.16,34.67,34.67,0,0,0,6.75-8.58,60.09,60.09,0,0,0,4.1-10.14,91.72,91.72,0,0,0,4.1-20.44c1.26,1.22,2.57,2.37,3.9,3.45a66,66,0,0,0,11.67,7.81c6.93,3.67,18.34,9.14,23.81.43,4.67-7.36,1.18-17.16-2.47-24.12a101.05,101.05,0,0,0-15.77-21.66,116.66,116.66,0,0,0-11.09-10.37q-3-2.35-6-4.53a9.26,9.26,0,0,0-1.11-.78A147.26,147.26,0,0,0,278.78,259c20.61-7.35,40.57-19.44,52.24-38a85.51,85.51,0,0,0,11.76-31.95,99.09,99.09,0,0,0,1.27-17.18c-.08-3.4-.25-6.93-.55-10.38a46.67,46.67,0,0,0-.23-13.19c-.26-2.09-.62-4.15-1-6.15a16.75,16.75,0,0,0,8.18-2,27.82,27.82,0,0,0,10.21-9.41,36.68,36.68,0,0,0,5.16-27.38,44.81,44.81,0,0,0-4.74-12.75c-2.36-4.23-5.25-8.3-9.18-11.18-4.12-3-9.52-4.45-14.27-5.83a45,45,0,0,0-14.68-2.17,22.41,22.41,0,0,0-13.52,5.17,16.59,16.59,0,0,0-4.34,6.07,166.29,166.29,0,0,0-20.44-15.06,220,220,0,0,0-55.85-25.08c-19.22-5.59-39.54-8.45-59.67-7.16a134.85,134.85,0,0,0-29.38,5c-1.68.45-3.32,1-5,1.57Z" transform="translate(-39.32 -17)"/><path class="cls-2" d="M176,46.13c1,.71,2,1.77,3.28,1.8a.6.6,0,0,0,.66-.75c-.32-1.21-1.53-2-2.39-2.76-1.28-1-2.87.72-1.55,1.71Z" transform="translate(-39.32 -17)"/><path class="cls-2" d="M166.6,45.44c2.45.44,4.47,1.54,6.71,2.43a.45.45,0,0,0,.47-.7c-1.56-2.07-4.36-3.15-6.87-3.63a1,1,0,1,0-.31,1.9Z" transform="translate(-39.32 -17)"/><path class="cls-2" d="M157,45.89,160,48a3.36,3.36,0,0,0,2.42,1,.53.53,0,0,0,.39-.59c-.12-1-1-1.47-1.75-2l-2.92-2.08c-1-.7-2,.83-1.06,1.6Z" transform="translate(-39.32 -17)"/><path class="cls-2" d="M148.83,46.77a20.15,20.15,0,0,0,2.26,1.91,7.32,7.32,0,0,0,2.4,1.43c.49,0,.92-.35.67-.75a10.78,10.78,0,0,0-1.79-2c-.72-.61-1.39-1.28-2.06-2-.87-.88-2.35.45-1.48,1.33Z" transform="translate(-39.32 -17)"/><path class="cls-2" d="M141,48.54c1.49,1.78,3.06,3.43,4.67,5,1.43,1.48,3,3.23,4.93,3.84.53.25,1-.41.71-.81-.87-1.8-2.72-3.29-4.13-4.68q-2.31-2.32-4.53-4.84c-.92-1.08-2.61.46-1.65,1.47Z" transform="translate(-39.32 -17)"/><path class="cls-2" d="M132.37,53c2.19,1.37,4.28,2.76,6.4,4.09,1,.64,2,1.31,3,2a9.65,9.65,0,0,0,3.36,1.68c.5.14,1.21-.41.81-1-1.25-1.88-3.81-3.06-5.71-4.34-2.22-1.46-4.36-2.89-6.57-4.36-1.23-.85-2.56,1.16-1.29,2Z" transform="translate(-39.32 -17)"/><path class="cls-2" d="M126.31,55.59a56.07,56.07,0,0,0,6.84,6.29c2.28,1.76,5,4.13,7.95,4.72a.59.59,0,0,0,.62-.94c-1.93-2.14-4.8-3.52-7.15-5.15-2.45-1.88-4.87-3.8-7.17-5.91-.71-.62-1.82.28-1.09,1Z" transform="translate(-39.32 -17)"/><path class="cls-2" d="M122.24,61.4c3.73,2,5,7.45,9.4,8.65a.7.7,0,0,0,.82-1c-1.12-2-3.26-3.38-4.75-5.15-1.33-1.51-2.53-3.6-4.8-3.92-.76-.15-1.57.94-.67,1.41Z" transform="translate(-39.32 -17)"/><path class="cls-2" d="M117.87,65.69c1.41,2.3,3.59,5.76,6.46,6.22.32,0,.65-.34.55-.57a10.19,10.19,0,0,0-2.3-3,21.69,21.69,0,0,1-2.79-3.58c-.68-1.18-2.7-.19-1.92,1Z" transform="translate(-39.32 -17)"/><path class="cls-2" d="M116.93,72.21a10.23,10.23,0,0,0,2,1.45.81.81,0,0,0,1-1.13,11.28,11.28,0,0,0-2-1.86,1,1,0,0,0-1.3.27.92.92,0,0,0,.29,1.27Z" transform="translate(-39.32 -17)"/><path class="cls-2" d="M87,139a12.68,12.68,0,0,0,2.68,3.35c.37.23.66-.09.64-.44a12.85,12.85,0,0,0-1.63-3.78c-.6-1-2.37-.06-1.69.87Z" transform="translate(-39.32 -17)"/><path class="cls-2" d="M86.69,149.2,89,151.92a13.8,13.8,0,0,0,2.27,2.42c.37.23.64-.19.57-.48a16.23,16.23,0,0,0-1.94-2.65l-2.22-2.88c-.51-.66-1.51.22-1,.87Z" transform="translate(-39.32 -17)"/><path class="cls-2" d="M83.37,155.41c1.22,1.68,2.43,3.36,3.54,5.06.65.82,1.21,1.67,1.77,2.52a5.48,5.48,0,0,0,1.69,1.73c.35.13.94,0,.89-.45-.17-1.69-1.78-3.29-2.7-4.61-1.22-1.68-2.43-3.36-3.57-5-.68-.93-2.23-.13-1.62.75Z" transform="translate(-39.32 -17)"/><path class="cls-2" d="M82.4,168.35c1.73,2.09,3.45,4.16,5.16,6.24,1.54,2,3.06,4.34,5.23,5.61.36.23,1,0,.77-.52-.85-2.37-2.88-4.23-4.49-6.07-1.78-2.12-3.66-4.22-5.44-6.33-.7-.77-1.82.28-1.23,1.07Z" transform="translate(-39.32 -17)"/><path class="cls-2" d="M78.63,175c2.09,3.07,4.39,6.1,6.76,9,1.21,1.42,2.45,2.78,3.8,4.13,1,1.15,2.37,2.91,4.11,3a.74.74,0,0,0,.75-.87c-.25-1.57-2-2.87-3.13-4-1.29-1.31-2.51-2.58-3.7-3.9a108.13,108.13,0,0,1-7-8.43c-.65-.84-2.1.19-1.54,1Z" transform="translate(-39.32 -17)"/><path class="cls-2" d="M78.59,184.2a63.29,63.29,0,0,0,10.87,14.23c2.1,2.16,4.27,4.18,6.55,6.2,2.13,1.84,4.49,4.24,7.35,5.1.69.27,1.3-.52,1-1.22-1.23-2.44-3.89-4.27-5.85-6.09-2.22-2-4.48-3.89-6.6-5.89a85.33,85.33,0,0,1-11.62-13.2c-.74-1-2.35-.22-1.69.87Z" transform="translate(-39.32 -17)"/><path class="cls-2" d="M119.62,237.55a18.21,18.21,0,0,1,3.22,1.1,8.48,8.48,0,0,0,2.94,1,.7.7,0,0,0,.52-1.18c-1.21-1.67-4.12-2.33-6-2.78-1.23-.36-1.86,1.51-.63,1.86Z" transform="translate(-39.32 -17)"/><path class="cls-2" d="M115.08,241.07l3.39,1.87a5.89,5.89,0,0,0,3,1c.42,0,.73-.46.5-.77a5.65,5.65,0,0,0-2.41-1.93l-3.4-1.87c-1.13-.63-2.27,1.09-1.09,1.66Z" transform="translate(-39.32 -17)"/><path class="cls-2" d="M111.36,245.42a11.46,11.46,0,0,1,2.23.39,2.3,2.3,0,0,0,1.85-.08c.34-.13.37-.44.25-.77-.57-1.35-3-1.39-4.25-1.49s-1.37,1.82-.08,1.95Z" transform="translate(-39.32 -17)"/><path class="cls-2" d="M107.31,249.08c.81-.16,1.67.21,2.49-.11a.76.76,0,0,0,.35-1.05c-.54-1.16-2.33-1-3.31-.72a1,1,0,1,0,.47,1.88Z" transform="translate(-39.32 -17)"/><path class="cls-2" d="M87.74,274.55a1.32,1.32,0,0,0,.88,0,1.65,1.65,0,0,0,.53-.67,1.14,1.14,0,0,0-.73-1.37,1.12,1.12,0,0,0-.81.07,1.33,1.33,0,0,0-.6.63,1.17,1.17,0,0,0,.73,1.38Z" transform="translate(-39.32 -17)"/><path class="cls-2" d="M84.16,280.51a9.69,9.69,0,0,0,1,.8,4.6,4.6,0,0,0,.59.54,3.75,3.75,0,0,0,.84.27,1,1,0,0,0,1-1.17c-.24-.81-1.08-1.34-1.74-1.92a1.11,1.11,0,0,0-1.66,1.48Z" transform="translate(-39.32 -17)"/><path class="cls-2" d="M82.63,286.24a3.21,3.21,0,0,1,1.66,1.12c.43.52,1.34,1.09,1.89.26.4-.75-.24-1.74-.79-2.33a5.71,5.71,0,0,0-2.1-1.24,1.14,1.14,0,0,0-.66,2.19Z" transform="translate(-39.32 -17)"/><path class="cls-2" d="M81.74,294.62c.79.75,1.69,1.48,2.54,2.27.71.6,1.38,1.28,2.34,1.13a.54.54,0,0,0,.45-.56c.1-.94-.71-1.53-1.36-2.1-.79-.75-1.62-1.44-2.42-2.19-1-1-2.59.55-1.55,1.45Z" transform="translate(-39.32 -17)"/><path class="cls-2" d="M80.4,301.48c1,.89,2.11,1.74,3.21,2.68.83.69,1.56,1.65,2.73,1.71a.63.63,0,0,0,.61-.79c-.24-1.07-1.31-1.66-2.11-2.4-1-.81-2-1.67-3-2.48s-2.35.46-1.43,1.28Z" transform="translate(-39.32 -17)"/><path class="cls-2" d="M79.61,308a17.7,17.7,0,0,0,3.92,4c1,.61,3.68,2.47,4.85,1.36,1.27-1.29-1.56-2.06-2.33-2.46A13.23,13.23,0,0,1,81.16,307c-.66-.83-2.16.15-1.55,1Z" transform="translate(-39.32 -17)"/><path class="cls-2" d="M72.19,313.57l-.1,0c.43.52.82,1.1,1.25,1.62l0-.06-.1.27c-.14.09-.17.14,0,.07a2.57,2.57,0,0,0-.66.34l-.29.06c-.07-.29,0-.6-.11-.9-.15-.93-.33-1.7-.52-2.59a10.82,10.82,0,0,1,1.17-.35,7.93,7.93,0,0,0,1.25,2.54l-.08.12c-.25.26-.29.31-.08.12-.08.12-.21.19-.29.31a1.07,1.07,0,0,1-.31.23,1.45,1.45,0,0,0-1.14-1.8Z" transform="translate(-39.32 -17)"/><path class="cls-2" d="M197.48,327.84a11.23,11.23,0,0,0,1.34-.08,1,1,0,0,0,.74-.87.92.92,0,0,0-.67-.92,5.76,5.76,0,0,0-1.28-.14,1,1,0,0,0-1.09,1c0,.51.4,1.08,1,1Z" transform="translate(-39.32 -17)"/><path class="cls-2" d="M340.83,100.79c.64.32,1.35.94,2.25.74a.67.67,0,0,0,.47-.45,1.67,1.67,0,0,0-.48-1.48,10.1,10.1,0,0,0-1.24-.85,1.13,1.13,0,0,0-1.71.51,1.11,1.11,0,0,0,.71,1.53Z" transform="translate(-39.32 -17)"/><path class="cls-2" d="M103,35.81a4.27,4.27,0,0,0-1,.42,1.93,1.93,0,0,0-.71.56.54.54,0,0,0-.13.33c.11-.17,0-.21,0-.16a.9.9,0,0,0-.17.4,1.1,1.1,0,0,0,1.25,1.37,2.86,2.86,0,0,0,.51-.27l-.6.13a2.07,2.07,0,0,0,.75-.11c0-.06,0-.06.15-.08s.24-.1,0-.06,0,.06,0,0,.09,0,.16,0,.46,0,0-.06a1.83,1.83,0,0,0,1-.31,1.14,1.14,0,0,0,.34-1A1.29,1.29,0,0,0,103,35.81Z" transform="translate(-39.32 -17)"/><path class="cls-3" d="M307.76,85.12c2.49-5,7.86-8.3,13.57-8.91a33.54,33.54,0,0,1,12.35,1.29c2.18.61,4.21,1.3,6.35,2s4.13,1.42,6.1,2.32c3.88,1.93,6.58,5.12,8.88,8.65a42.68,42.68,0,0,1,4.75,10.51,32.92,32.92,0,0,1-1.5,23.13A26,26,0,0,1,350,134.23a12.76,12.76,0,0,1-9.17,2.46c-.13-.58-.32-1.2-.51-1.82a103.24,103.24,0,0,0-3.64-10,7.34,7.34,0,0,0,3.22-2.17,9.79,9.79,0,0,0,2.7-5.67c.21-1.63-2.25-1.91-2.77-.48a7.77,7.77,0,0,1-2.65,3.78,21.18,21.18,0,0,1-2,1.28,97,97,0,0,0-6.58-11.9,107.72,107.72,0,0,0-10.77-14.26c1.43-2.29,4.91-2.62,7.45-2.19a32.81,32.81,0,0,1,5.19,1.49c1.69.56,3.73,1.49,5.59,1.41a.84.84,0,0,0,.64-1.36c-1.39-1.79-4.19-2.62-6.29-3.36a22.83,22.83,0,0,0-6.55-1.25,9,9,0,0,0-7.5,3.59,109.49,109.49,0,0,0-8.68-8.69Z" transform="translate(-39.32 -17)"/><path class="cls-4" d="M351.14,85.5A29.19,29.19,0,0,1,355,90.43a42.68,42.68,0,0,1,4.75,10.51,32.92,32.92,0,0,1-1.5,23.13A26,26,0,0,1,350,134.23a12.76,12.76,0,0,1-9.17,2.46c-.13-.58-.32-1.2-.51-1.82a103.24,103.24,0,0,0-3.64-10,7.34,7.34,0,0,0,3.22-2.17,9.79,9.79,0,0,0,2.7-5.67c.21-1.63-2.25-1.91-2.77-.48a7.77,7.77,0,0,1-2.65,3.78,21.18,21.18,0,0,1-2,1.28c-1.4-3-2.95-5.94-4.63-8.75C354.49,107,351.14,85.5,351.14,85.5Z" transform="translate(-39.32 -17)"/><path class="cls-5" d="M342.3,116a1.54,1.54,0,0,0-2.43.56,7.77,7.77,0,0,1-2.65,3.78,21.18,21.18,0,0,1-2,1.28,97,97,0,0,0-6.58-11.9,107.72,107.72,0,0,0-10.77-14.26c1.43-2.29,4.91-2.62,7.45-2.19a32.81,32.81,0,0,1,5.19,1.49c1.69.56,3.73,1.49,5.59,1.41a1,1,0,0,0,.74-.47c7.94,5.9,8.19,14.25,5.42,20.3Z" transform="translate(-39.32 -17)"/><path class="cls-6" d="M342.3,116a1.54,1.54,0,0,0-2.43.56,7.77,7.77,0,0,1-2.65,3.78,21.18,21.18,0,0,1-2,1.28c-1.4-3-2.95-5.94-4.63-8.75a29.38,29.38,0,0,0,13.06-6.55A16.76,16.76,0,0,1,342.3,116Z" transform="translate(-39.32 -17)"/><path class="cls-3" d="M252.32,265.58a22.75,22.75,0,0,0,3.53,2.72l4.87,3.8a106.12,106.12,0,0,1,8.76,8.07,110.84,110.84,0,0,1,14.85,19,56.83,56.83,0,0,1,5.46,10.6c1.09,3.28,2,7,1.44,10.18-.45,2.65-1.83,5.13-4.89,5.23a13.68,13.68,0,0,1-5.16-1.15,53.12,53.12,0,0,1-5.59-2.32,77.53,77.53,0,0,1-12.06-7.21,53.15,53.15,0,0,1-5.3-4.33c-.77-.65-1.57-1.4-2.34-2.05a97.52,97.52,0,0,0-.76-13.44A82,82,0,0,0,253,283.57a34.47,34.47,0,0,0-4.3-10.39c-.62-.89-2.48-.79-2.4.51.58,6.3,2.46,12.42,3.24,18.67a94.53,94.53,0,0,1,.31,18.42,95.55,95.55,0,0,1-3,18.21c-1.69,6.22-3.7,12.66-8,17.65a56.83,56.83,0,0,1-7.35,6.86,19.81,19.81,0,0,1-8.13,4,2.25,2.25,0,0,0-1.56,3.29,4,4,0,0,0,.26.65,8.64,8.64,0,0,0,2.56,2.62,22.79,22.79,0,0,0,2.62,1.88c1.6,1.09,3.78,2.46,5.84,2.32a1.33,1.33,0,0,0,1.72-.26,51.68,51.68,0,0,1,10.64-9.65,29.94,29.94,0,0,1,6.49-3.21c1.75-.58,4.1-1,5.55-.37a3.79,3.79,0,0,1,1.05.74,2,2,0,0,1,.51.65,6.28,6.28,0,0,1,.58,2.13,13.56,13.56,0,0,1-1.1,5.32,42.39,42.39,0,0,1-7.68,12.59,41.26,41.26,0,0,1-6.55,6.18,25.8,25.8,0,0,1-5.49,3,32.76,32.76,0,0,1-7.82-3c-3.74-1.75-7.4-3.61-10.87-5.63s-7-4.15-10.43-6.44c-1.6-1.08-3.26-2.21-4.82-3.35a13.43,13.43,0,0,0-3.76-2.36,1.92,1.92,0,0,0-1.37-2.35,11.7,11.7,0,0,0-4.21-.13c-1.59.09-3.14.21-4.76.2a60.59,60.59,0,0,1-8.66-.91c-6.69-1.17-13.31-2.55-19.94-4a146.56,146.56,0,0,1-37.87-13.33q-5-2.61-9.71-5.58c-1.64-1-3.24-2.11-4.88-3.13a11.63,11.63,0,0,0-5.5-2.19,1,1,0,0,0-.66.09,16.92,16.92,0,0,0-3.95-.39c-2-.08-4-.16-6-.14-4.15-.09-8.25-.23-12.39-.32s-8-.33-12-.66c-2.06-.11-4.08-.3-6.05-.44a29.13,29.13,0,0,0-4.91-.23c-.9-1.48-2-2.89-2.85-4.38a52.25,52.25,0,0,1-3.34-6.27,38.44,38.44,0,0,1-2.89-12.93c-.2-3.47-.55-10.13,3.85-11.47,2.11-.6,4,1,5.35,2.43a27.24,27.24,0,0,1,4,5.86,43.22,43.22,0,0,1,3.33,7.45c.47,1.37.87,2.71,1.28,4.05s1.22,2.69,1.85,4.09a1.57,1.57,0,0,0,2.59.36c3.07.67,7.78-1.65,7.08-4.76a1,1,0,0,0-.12-.33,1.21,1.21,0,0,0,.38-.59c.72-1.73,0-3.07-.62-4.66-.46-1.38-.93-2.76-1.29-4.15a44.22,44.22,0,0,1-1.42-8.42A39.71,39.71,0,0,1,78,280.34a71,71,0,0,1,8-14.07,6.94,6.94,0,0,0,2.69-1.75,1.68,1.68,0,0,0,.19-2.23A102.78,102.78,0,0,1,99.75,250a160.05,160.05,0,0,1,16.11-13.17c1-.72-.18-2.2-1.2-1.67-11.4,6.24-21.29,15.27-29.45,25.22l-.75.87a28,28,0,0,0-2.77.43c-2.12.35-4.2.64-6.27.93a63.12,63.12,0,0,1-12,.72,36.58,36.58,0,0,1-11.71-2.15A17.2,17.2,0,0,1,47,258.61c-.92-.82-2.19-1.88-1.92-3.21a12.14,12.14,0,0,1,2.62-4.63,25.82,25.82,0,0,1,3.8-3.81,42.09,42.09,0,0,1,10.1-6c7.94-3.48,16.47-5.75,24.66-8.57,4.52-1.52,9-3.08,13.56-4.31,2.21-.62,4.4-1.09,6.65-1.52,1.12-.14,2.27-.33,3.36-.42a10,10,0,0,1,1.17-.09c3.13,2.29,6.23,4.48,9.47,6.59,6,3.87,12.19,7.55,18.54,10.94a72.22,72.22,0,0,0-8,6.63,64.1,64.1,0,0,0-9.65,11.28c-5.34,8.11-8.27,17.91-6.69,27.5,2.79,17.39,19.07,29.25,35.36,34.09,11.91,3.53,24.74,4.62,37.23,4.4a1.08,1.08,0,0,0,0-2.15c-10.51-1.22-21.12-1.51-31.47-3.89-8.83-2.09-17.22-5.51-24.22-11.14-6-4.84-10.87-11.24-12.93-18.54-2.44-8.81-.42-18,3.88-25.84a58.22,58.22,0,0,1,9.43-12.25c1.92-1.89,3.88-3.68,5.91-5.33,1.26-1.14,2.64-2.19,3.92-3.23,3.29,1.64,6.52,3.24,9.9,4.77,20.76,9.48,43.21,15.76,66.2,17.17,1.15.07,2.42.1,3.58.16a34.56,34.56,0,0,0,.88,5.57c.32,2.13.58,4.21.69,6.37A88,88,0,0,1,223,292a68.1,68.1,0,0,1-7.15,24.54,17.78,17.78,0,0,1-3.36,4.84,19.7,19.7,0,0,1-4.82,3.17c-.8.42-.83,1.91.2,2,4.15.85,7.37-2.48,9.48-5.68a51.79,51.79,0,0,0,5.47-12.22A69.47,69.47,0,0,0,226.16,281c-.21-2.55-.57-5.12-1-7.68a28.55,28.55,0,0,0-1.61-6,156.43,156.43,0,0,0,28.81-1.71Z" transform="translate(-39.32 -17)"/><path class="cls-4" d="M258.05,355.14a1.68,1.68,0,0,1,.51.4,2,2,0,0,1,.51.65,6.28,6.28,0,0,1,.58,2.13,13.56,13.56,0,0,1-1.1,5.32,42.39,42.39,0,0,1-7.68,12.59,41.26,41.26,0,0,1-6.55,6.18,25.8,25.8,0,0,1-5.49,3,32.76,32.76,0,0,1-7.82-3c-3.74-1.75-7.4-3.61-10.87-5.63s-7-4.15-10.43-6.44c-1.6-1.08-3.26-2.21-4.82-3.35a13.43,13.43,0,0,0-3.76-2.36,1.92,1.92,0,0,0-1.37-2.35c32.33,1.16,28.56,16.79,37.55,7.94s14-16.32,20.74-15.11Zm-61.15,7a10.5,10.5,0,0,1-1.35.08c-1.59.09-3.14.21-4.76.2a60.59,60.59,0,0,1-8.66-.91c-6.69-1.17-13.31-2.55-19.94-4a146.56,146.56,0,0,1-37.87-13.33q-5-2.61-9.71-5.58c-1.64-1-3.24-2.11-4.88-3.13a11.63,11.63,0,0,0-5.5-2.19,1,1,0,0,0-.66.09,16.92,16.92,0,0,0-3.95-.39c-2-.08-4-.16-6-.14-4.15-.09-8.25-.23-12.39-.32s-8-.33-12-.66c-2.06-.11-4.08-.3-6.05-.44a29.13,29.13,0,0,0-4.91-.23c-.9-1.48-2-2.89-2.85-4.38a52.25,52.25,0,0,1-3.34-6.27,38.44,38.44,0,0,1-2.89-12.93c-.2-3.47-.55-10.13,3.85-11.47a3.46,3.46,0,0,1,1.78,0s5.81,9.16,6.87,19.94S67.9,328,81.15,327.45s24.41-.36,31,4.61c6.45,4.79,52.43,27.55,84.75,30Z" transform="translate(-39.32 -17)"/><path class="cls-4" d="M252.32,265.58a22.75,22.75,0,0,0,3.53,2.72l4.87,3.8.9.73c-7.83,9.81-4.61,36.33-4.61,36.33a12.11,12.11,0,0,0-1.12-1,97.52,97.52,0,0,0-.76-13.44A82,82,0,0,0,253,283.57a34.47,34.47,0,0,0-4.3-10.39c-.62-.89-2.48-.79-2.4.51.58,6.3,2.46,12.42,3.24,18.67a94.53,94.53,0,0,1,.31,18.42,95.55,95.55,0,0,1-3,18.21c-1.69,6.22-3.7,12.66-8,17.65a56.83,56.83,0,0,1-7.35,6.86,20.62,20.62,0,0,1-6.69,3.68c22.17-35.55,17.3-61.76,1.6-72.18,0-1.36-.13-2.67-.27-4-.21-2.55-.57-5.12-1-7.68a28.55,28.55,0,0,0-1.61-6,156.43,156.43,0,0,0,28.81-1.71ZM96.39,253.45c1.1-1.15,2.19-2.3,3.36-3.41a160.05,160.05,0,0,1,16.11-13.17c1-.72-.18-2.2-1.2-1.67-11.4,6.24-21.29,15.27-29.45,25.22l-.75.87a28,28,0,0,0-2.77.43c-1.07.18-2.12.35-3.14.47,12.13-10.89,11.35-22.33,8.53-30,4.28-1.41,8.46-2.81,12.78-4,2.21-.62,4.4-1.09,6.65-1.52,1.12-.14,2.27-.33,3.36-.42a10,10,0,0,1,1.17-.09c3.13,2.29,6.23,4.48,9.47,6.59,6,3.87,12.19,7.55,18.54,10.94a72.22,72.22,0,0,0-8,6.63c-.66.6-1.2,1.18-1.86,1.77-19.64-7.53-32.79,1.39-32.83,1.44Zm36.07-.09c1.74-1.74,3.61-3.42,5.51-5,1.26-1.14,2.64-2.19,3.92-3.23,3.29,1.64,6.52,3.24,9.9,4.77,20.76,9.48,43.21,15.76,66.2,17.17,1.15.07,2.42.1,3.58.16a34.56,34.56,0,0,0,.88,5.57c.32,2.13.58,4.21.69,6.37.09,1.31.13,2.67.17,4a32.23,32.23,0,0,0-14.06-3.12c-27.5-.15-42.4-4.87-68.44-22.1a67.06,67.06,0,0,0-8.35-4.64Z" transform="translate(-39.32 -17)"/><path class="cls-5" d="M188.37,326.32a1.07,1.07,0,0,0-1-1c-10.51-1.22-21.12-1.51-31.47-3.89-8.83-2.09-17.22-5.51-24.22-11.14-6-4.84-10.87-11.24-12.93-18.54-2.44-8.81-.42-18,3.88-25.84a58.22,58.22,0,0,1,9.43-12.25c1.92-1.89,3.88-3.68,5.91-5.33,1.26-1.14,2.64-2.19,3.92-3.23,3.29,1.64,6.52,3.24,9.9,4.77,20.76,9.48,43.21,15.76,66.2,17.17,1.15.07,2.42.1,3.58.16a34.56,34.56,0,0,0,.88,5.57c.32,2.13.58,4.21.69,6.37A88,88,0,0,1,223,292a68.1,68.1,0,0,1-7.15,24.54,17.78,17.78,0,0,1-3.36,4.84,19.7,19.7,0,0,1-4.82,3.17,1.3,1.3,0,0,0-.56,1.24c-3.41.88-9.26,1.56-18.72.57Z" transform="translate(-39.32 -17)"/><path class="cls-6" d="M132.46,253.36c1.74-1.74,3.61-3.42,5.51-5,1.26-1.14,2.64-2.19,3.92-3.23,3.29,1.64,6.52,3.24,9.9,4.77,20.76,9.48,43.21,15.76,66.2,17.17,1.15.07,2.42.1,3.58.16a34.56,34.56,0,0,0,.88,5.57c.32,2.13.58,4.21.69,6.37.09,1.31.13,2.67.17,4a32.23,32.23,0,0,0-14.06-3.12c-27.5-.15-42.4-4.87-68.44-22.1a67.06,67.06,0,0,0-8.35-4.64Z" transform="translate(-39.32 -17)"/><path class="cls-3" d="M126.35,45.5a13.07,13.07,0,0,0-5.79-7.22c-2.8-1.75-7.41-3.47-10.5-1.64-.46.3-.58.89-.1,1.19a14.92,14.92,0,0,0,4.15,1.26,18.18,18.18,0,0,1,4.67,1.5,13.57,13.57,0,0,1,5.59,5.18c-3,2.06-5.93,4.06-8.77,6.3s-5.55,4.8-8.17,7.35A163.08,163.08,0,0,0,96,71.63a7.66,7.66,0,0,1-2.53-.58,7.23,7.23,0,0,1-2.93-3.76c-1.17-2.9-2.6-7.64.2-10.08.78-.67-.31-1.86-1.17-1.22-4.06,3.06-3.36,8.76-1.81,12.91A9.67,9.67,0,0,0,92,74.06a12.88,12.88,0,0,0,1.49.6l-.52.67c-1,1.29-2,2.52-2.92,3.79A23.53,23.53,0,0,1,77,65.59C74.17,57.83,75.39,49.22,79,42c3.64-7.09,9.52-14.2,16.92-17.76a20.33,20.33,0,0,1,11.88-1.51c2.11.31,4.22.88,6.37,1.39A55.59,55.59,0,0,1,120.94,26a15.5,15.5,0,0,1,8.32,7.8,16.75,16.75,0,0,1,1.66,5.3,19.29,19.29,0,0,1,.14,2.93c-.06.47,0,.92-.06,1.39-1.53.63-3.1,1.32-4.65,2.11Z" transform="translate(-39.32 -17)"/><path class="cls-4" d="M108.08,58.81l-.65.61A163.08,163.08,0,0,0,96,71.63a7.66,7.66,0,0,1-2.53-.58,7.23,7.23,0,0,1-2.93-3.76c-.94-2.35-2-5.78-1.08-8.28,5.06,1.58,11.17,1.81,18.66-.2Zm-20.59-.5c-1.64,3.15-1,7.33.23,10.59A9.67,9.67,0,0,0,92,74.06a12.88,12.88,0,0,0,1.49.6l-.52.67c-1,1.29-2,2.52-2.92,3.79A23.53,23.53,0,0,1,77,65.59a28.18,28.18,0,0,1-.75-15.93,29.26,29.26,0,0,0,11.28,8.65Z" transform="translate(-39.32 -17)"/><path class="cls-5" d="M109.67,37.23a.55.55,0,0,0,.29.6,14.92,14.92,0,0,0,4.15,1.26,18.18,18.18,0,0,1,4.67,1.5,13.57,13.57,0,0,1,5.59,5.18c-3,2.06-5.93,4.06-8.77,6.3s-5.55,4.8-8.17,7.35A163.08,163.08,0,0,0,96,71.63a7.66,7.66,0,0,1-2.53-.58,7.23,7.23,0,0,1-2.93-3.76c-1.17-2.9-2.6-7.64.2-10.08.78-.67-.31-1.86-1.17-1.22a6.46,6.46,0,0,0-.82.73c2.79-9.71,12-19.77,21-19.49Z" transform="translate(-39.32 -17)"/><path class="cls-6" d="M108.08,58.81l-.65.61A163.08,163.08,0,0,0,96,71.63a7.66,7.66,0,0,1-2.53-.58,7.23,7.23,0,0,1-2.93-3.76c-.94-2.35-2-5.78-1.08-8.28,5.06,1.58,11.17,1.81,18.66-.2Z" transform="translate(-39.32 -17)"/><path class="cls-3" d="M340.08,163.71A148.72,148.72,0,0,1,339,180.6a93,93,0,0,1-9.22,31.09,73.84,73.84,0,0,1-21,25.11,114.63,114.63,0,0,1-26.52,14.76c-18.14,7.38-38.08,10.45-57.72,9.95-21.79-.51-43.17-5.53-63.28-13.68a246.2,246.2,0,0,1-31.08-15.43c-5.05-3-10-6.18-14.9-9.41-3.62-2.45-7.23-4.78-10.85-7.22a129.34,129.34,0,0,1-17.94-18.08,85,85,0,0,1-11-16.92,54.48,54.48,0,0,1-5.14-19.69C68,133.73,77.13,106.51,92.88,84a2,2,0,0,0,1.7-2.45A166,166,0,0,1,109,64.42c2.75-2.88,5.58-5.62,8.42-8.36,1.41-1.38,2.79-2.69,4.17-4,.32-.22.59-.38.87-.54a68.86,68.86,0,0,1,12.59-5.59,127.68,127.68,0,0,1,28-5.61,167.88,167.88,0,0,1,57.59,5.11A218.26,218.26,0,0,1,275.05,68c17.39,10,33.49,22.72,45.31,38.9,10.45,14.23,17.22,31.18,18.31,48.68.18,2.19.36,4.4.58,6.54a1.83,1.83,0,0,0,.83,1.61Z" transform="translate(-39.32 -17)"/><path class="cls-5" d="M70.59,141.22C72.84,120.72,81,101.06,92.88,84a2,2,0,0,0,1.7-2.45A166,166,0,0,1,109,64.42c2.75-2.88,5.58-5.62,8.42-8.36,1.41-1.38,2.79-2.69,4.17-4,.32-.22.59-.38.87-.54a68.86,68.86,0,0,1,12.59-5.59,127.68,127.68,0,0,1,28-5.61,167.88,167.88,0,0,1,57.59,5.11,210.07,210.07,0,0,1,22.47,7.28c-.12-.07-126.41-44-172.58,88.51Z" transform="translate(-39.32 -17)"/><path class="cls-4" d="M340.08,163.71A148.72,148.72,0,0,1,339,180.6a93,93,0,0,1-9.22,31.09,73.84,73.84,0,0,1-21,25.11,114.63,114.63,0,0,1-26.52,14.76c-18.14,7.38-38.08,10.45-57.72,9.95-21.79-.51-43.17-5.53-63.28-13.68a246.2,246.2,0,0,1-31.08-15.43c-5.05-3-10-6.18-14.9-9.41-3.62-2.45-7.23-4.78-10.85-7.22a129.34,129.34,0,0,1-17.94-18.08,85,85,0,0,1-11-16.92,44.59,44.59,0,0,1-3.46-9.61c90.16,92.06,198.33,68.52,227,22.48s8.41-101.53,8.41-101.53a116.36,116.36,0,0,1,12.91,14.77c10.45,14.23,17.22,31.18,18.31,48.68.18,2.19.36,4.4.58,6.54a1.83,1.83,0,0,0,.83,1.61Z" transform="translate(-39.32 -17)"/><path class="cls-7" d="M145.65,250.24c-.32.22-.69.41-1,.63a10.53,10.53,0,0,0-2.52,2.27,7.15,7.15,0,0,0-1.34,2.67,6.39,6.39,0,0,0,0,2.82,7.13,7.13,0,0,0,1.14,2.55,13.42,13.42,0,0,0,4.06,3.88l.12.08h0l.12.07a24.81,24.81,0,0,0,12.09,3.38,15.89,15.89,0,0,0,3.95-.28,11.22,11.22,0,0,0,2.19-.71,5.7,5.7,0,0,0,1.59-.85c.19.37.37.73.62,1.14a6,6,0,0,0,1.65,1.53,9.38,9.38,0,0,0,2.13.92.24.24,0,0,1,.17,0c.06,0,.06,0,.16,0a11,11,0,0,0,1.7.14,12.58,12.58,0,0,0,4.27-.75,5.17,5.17,0,0,0,.85-.39,11,11,0,0,0,.68,1.59,4.79,4.79,0,0,0,1.75,1.77,5.14,5.14,0,0,0,2.17.86,3.64,3.64,0,0,0,1.16.06c.06,0,.11,0,.17,0s.09,0,.16,0a9.12,9.12,0,0,0,2.76-.7,14.87,14.87,0,0,0,2.33-1.3l.07.13a15.14,15.14,0,0,0,1.29,2.48,26,26,0,0,0,13,10.17,14.34,14.34,0,0,0,1.45.39c.06.05.17,0,.23.06a.22.22,0,0,0,.15,0,11.68,11.68,0,0,0,4.25.06,7.24,7.24,0,0,0,2.82-1.16,7.75,7.75,0,0,0,2.29-2.16,13.18,13.18,0,0,0,2-6.95,11.84,11.84,0,0,0-.06-2.13c-.08-1.05-1.09-8.38-3.08-8-1.47.42-.92,6.62-1,8a11.5,11.5,0,0,1-.13,1.76,9.19,9.19,0,0,1-1.46,4.7,4.7,4.7,0,0,1-1,.93,2.87,2.87,0,0,1-1.27.37,6.78,6.78,0,0,1-2.37-.05.22.22,0,0,0-.15,0l-.13-.08c-.16,0-.94-.25-1-.23a24,24,0,0,1-9.12-5.71c-.29-.19-1.73-1.92-2.08-2.3a13.53,13.53,0,0,1-1.35-1.85c-.22-.31-.41-.68-.66-1.08a7.11,7.11,0,0,0,1-1.86,6.18,6.18,0,0,0,.57-1.9l0-.1a5.29,5.29,0,0,0-.21-2.14,4.26,4.26,0,0,0-1.26-1.88c-.75-.55-1.91-1.27-2.57-.26-.46.71-.08,1.29.16,2.1a2.25,2.25,0,0,1,0,.86c.09.14-.09.53-.11.69l0,.06c-.13.33-.25.51-.39.84a7.91,7.91,0,0,1-1.67,1.89,8,8,0,0,1-2.31,1.3,3.86,3.86,0,0,1-1.3.28l0,.06-.06,0c-.07,0-.27,0-.33,0a1.07,1.07,0,0,1-.38-.07c-.16,0-.26-.25-.32-.29a5.19,5.19,0,0,1-.61-2.47,5.09,5.09,0,0,0,.56-1,6,6,0,0,0,.49-1.54c.09-.78,0-3.16-.93-3.92a1.5,1.5,0,0,0-.75-1.07c-1.79-.53-3.09,3.76-3.33,4.79a6.14,6.14,0,0,1-.24,1,7.24,7.24,0,0,1-2.2,1.12,8.83,8.83,0,0,1-2.63.36l-.86-.12c-.06,0-.06,0-.1,0l-.07,0a2.81,2.81,0,0,1-.74-.3c-.1,0-.24-.16-.36-.23a2.39,2.39,0,0,1-.22-.47,4.72,4.72,0,0,1,.36-2.62s.44-1.06.5-1.28c.51-1.18,2.4-4.18,1.24-5.16-1.45-1.16-4.15,2.42-4.8,3.27a15.86,15.86,0,0,0-.89,1.62,11,11,0,0,0-.91,2.69c-.88.28-1.78.73-2.47.88a10.19,10.19,0,0,1-1.67.2,16.79,16.79,0,0,1-3.09,0,22.17,22.17,0,0,1-9.74-3.18l-.06,0h0l-.13-.08a9.22,9.22,0,0,1-2.78-2.41,4.44,4.44,0,0,1-.6-1.05,2.84,2.84,0,0,1,0-.92,2.78,2.78,0,0,1,.45-1.06,10.49,10.49,0,0,1,1.49-1.49,8.33,8.33,0,0,1,.67-.5c1.3-.93,6-3.16,5.72-4.52-.63-1.91-6.89.7-7.84,1.1Z" transform="translate(-39.32 -17)"/><path class="cls-5" d="M108.78,219.23S98,164,135.12,150.25s139,21.79,148,55.4-45.83,55.86-45.93,55.88c-5.16.28-10.38.27-15.56.05-20.31-.93-40.31-5.83-59.22-13.32a237.61,237.61,0,0,1-29.25-14c-4.83-2.69-9.49-5.52-14.12-8.51-3.41-2.13-6.9-4.24-10.23-6.48Z" transform="translate(-39.32 -17)"/><path class="cls-6" d="M108.63,218.55A98.31,98.31,0,0,1,107.31,201c69.07,47.49,141.25,38,176.63,9.36,2.8,29.1-41.06,48.73-46.25,51-4.33.21-8.75.29-13.12.15a171.51,171.51,0,0,1-47-7.86l-.78-.24-.85-.28-.12-.08c-.85-.28-1.69-.55-2.6-.87l-.16,0-.79-.24,0,0-.69-.26-.22-.06-.5-.15-.4-.16-.57-.19-.06,0c-2.84-1-5.64-2.1-8.45-3.19a246.2,246.2,0,0,1-31.08-15.43c-5.05-3-10-6.18-14.9-9.41-2.21-1.47-4.46-3-6.68-4.44Z" transform="translate(-39.32 -17)"/><path class="cls-7" d="M111.74,59.77a67.33,67.33,0,0,1,10.74-8.25,68.86,68.86,0,0,1,12.59-5.59,127.68,127.68,0,0,1,28-5.61,167.88,167.88,0,0,1,57.59,5.11A218.26,218.26,0,0,1,275.05,68c17.39,10,33.49,22.72,45.31,38.9,10.45,14.23,17.22,31.18,18.31,48.68.18,2.19.36,4.4.58,6.54a2.05,2.05,0,0,0,4.1.15,45.58,45.58,0,0,0-.08-13.94,89.4,89.4,0,0,0-2.91-13.44,101.26,101.26,0,0,0-11.68-25.13c-11-17.23-26.66-31.15-44.05-42.12a220,220,0,0,0-55.85-25.08c-19.22-5.59-39.54-8.45-59.67-7.16a134.85,134.85,0,0,0-29.38,5c-9,2.63-18.3,6.44-24.88,13.2a21.09,21.09,0,0,0-3.94,5.47.55.55,0,0,0,.83.69Z" transform="translate(-39.32 -17)"/><path class="cls-7" d="M339.47,146.26a57.94,57.94,0,0,1,.37,8.94c-.11,2.77.2,5.56.26,8.35a145.52,145.52,0,0,1-1.1,17,93,93,0,0,1-9.22,31.09,73.84,73.84,0,0,1-21,25.11,114.63,114.63,0,0,1-26.52,14.76c-18.14,7.38-38.08,10.45-57.72,9.95-21.79-.51-43.17-5.53-63.28-13.68a246.2,246.2,0,0,1-31.08-15.43c-5.05-3-10-6.12-14.9-9.41s-9.66-6.3-14.34-9.74c-2.31-1.69-4.74-3.22-7-4.91-1.2-.92-2.87,1-1.75,2a209.69,209.69,0,0,0,28.34,22.33,250.65,250.65,0,0,0,31.28,17.24c20.76,9.48,43.21,15.76,66.2,17.17,20.53,1.24,41.44-1.23,60.79-8.1,20.61-7.35,40.57-19.44,52.24-38a85.51,85.51,0,0,0,11.76-31.95,99.09,99.09,0,0,0,1.27-17.18,90.78,90.78,0,0,0-1.66-17.43c-.57-2.78-1.3-5.58-1.83-8.41-.15-.69-1.19-.42-1.09.22Z" transform="translate(-39.32 -17)"/><path class="cls-7" d="M124.52,45.68c-3.09,2.09-6,4.09-8.92,6.39s-5.55,4.8-8.17,7.35a164.68,164.68,0,0,0-14.5,15.91,138.32,138.32,0,0,0-21.56,37.86,113.93,113.93,0,0,0-7.05,43.17c.33,7.31,1.2,14.72,3.75,21.67a80.1,80.1,0,0,0,10.69,19.06,91.45,91.45,0,0,0,35.73,29.48c1.58.74,3.07-1.26,1.49-2.25a133.05,133.05,0,0,1-29.46-26.63,85,85,0,0,1-11-16.92,54.48,54.48,0,0,1-5.14-19.69c-2.51-28,7.15-55.82,23.6-78.64a160.56,160.56,0,0,1,15-18c2.75-2.88,5.58-5.62,8.42-8.36s5.7-5.55,8.59-8.26c1-.93-.19-3-1.51-2.12Z" transform="translate(-39.32 -17)"/><path class="cls-7" d="M133.3,45.75a18.31,18.31,0,0,0,1.2-2.6,13.35,13.35,0,0,0,.38-3.18,18.45,18.45,0,0,0-.86-6,20.09,20.09,0,0,0-7.1-10.2c-3.91-3-9.26-4.3-14.06-5.46s-10.15-1.92-15.13-.61C88.51,20.14,81,28,76.12,35.71c-5.31,8.47-7.77,18.72-5.31,28.54A27.67,27.67,0,0,0,78.6,77.57,23.34,23.34,0,0,0,92.66,84c2.19.2,2.82-3.25.61-3.8A23.21,23.21,0,0,1,77,65.59C74.17,57.83,75.39,49.22,79,42c3.64-7.09,9.52-14.2,16.92-17.76a20.73,20.73,0,0,1,11.88-1.51c2.11.31,4.22.88,6.37,1.39A55.59,55.59,0,0,1,120.94,26a15.5,15.5,0,0,1,8.32,7.8,16.75,16.75,0,0,1,1.66,5.3,19.29,19.29,0,0,1,.14,2.93c-.08,1,0,2-.11,3-.1,1.19,1.81,1.8,2.35.72Z" transform="translate(-39.32 -17)"/><path class="cls-7" d="M306.55,88.78c1.26-7,7.79-11.84,14.78-12.57a33.54,33.54,0,0,1,12.35,1.29c2.18.61,4.21,1.3,6.35,2s4.13,1.42,6.1,2.32c3.88,1.93,6.58,5.12,8.88,8.65a42.68,42.68,0,0,1,4.75,10.51,32.92,32.92,0,0,1-1.5,23.13A26,26,0,0,1,350,134.23a13.11,13.11,0,0,1-10.8,2.2c-2.59-.62-4.39,2.77-2,4.25,4,2.51,9.21,1.5,13.21-.52a27.82,27.82,0,0,0,10.21-9.41,36.68,36.68,0,0,0,5.16-27.38,44.81,44.81,0,0,0-4.74-12.75c-2.36-4.23-5.25-8.3-9.18-11.18-4.12-3-9.52-4.45-14.27-5.83a45,45,0,0,0-14.68-2.17,22.41,22.41,0,0,0-13.52,5.17c-3.53,3.15-5.75,7.44-5,12.08.08,1,2,1.15,2.17.09Z" transform="translate(-39.32 -17)"/><path class="cls-7" d="M126.52,45.77a13.38,13.38,0,0,0-6-7.49c-2.8-1.75-7.41-3.47-10.5-1.64-.46.3-.58.89-.1,1.19a14.92,14.92,0,0,0,4.15,1.26,18.18,18.18,0,0,1,4.67,1.5,13.43,13.43,0,0,1,6,5.81c.41.93,2.07.38,1.79-.63Z" transform="translate(-39.32 -17)"/><path class="cls-7" d="M103,35.81a4.27,4.27,0,0,0-1,.42,1.93,1.93,0,0,0-.71.56.54.54,0,0,0-.13.33c.11-.17,0-.21,0-.16a.9.9,0,0,0-.17.4,1.1,1.1,0,0,0,1.25,1.37,2.86,2.86,0,0,0,.51-.27l-.6.13a1.29,1.29,0,0,0,.75-.11c0-.06,0-.06.15-.08s.24-.1,0-.06,0,.06,0,0,.09,0,.16,0,.46,0,0-.06a1.83,1.83,0,0,0,1-.31,1.14,1.14,0,0,0,.34-1A1.29,1.29,0,0,0,103,35.81Z" transform="translate(-39.32 -17)"/><path class="cls-7" d="M89.53,56c-4.06,3.06-3.36,8.76-1.81,12.91A9.67,9.67,0,0,0,92,74.06a6.1,6.1,0,0,0,3.56.72c.86-.13,2-.63,2.25-1.6a.91.91,0,0,0-.34-1.05c-1.09-.68-2.77-.48-4-1.08a7.23,7.23,0,0,1-2.93-3.76c-1.17-2.9-2.6-7.64.2-10.08.78-.67-.31-1.86-1.17-1.22Z" transform="translate(-39.32 -17)"/><path class="cls-7" d="M317.46,96.7c.8-3.43,5-3.91,7.9-3.41a32.81,32.81,0,0,1,5.19,1.49c1.69.56,3.73,1.49,5.59,1.41a.84.84,0,0,0,.64-1.36c-1.39-1.79-4.19-2.62-6.29-3.36a22.83,22.83,0,0,0-6.55-1.25c-3.8,0-7.65,2-8.44,5.93-.29,1.23,1.62,1.84,2,.55Z" transform="translate(-39.32 -17)"/><path class="cls-7" d="M340.83,100.79c.64.32,1.35.94,2.25.74a.67.67,0,0,0,.47-.45,1.67,1.67,0,0,0-.48-1.48,10.1,10.1,0,0,0-1.24-.85,1.16,1.16,0,0,0-1.71.51,1.11,1.11,0,0,0,.71,1.53Z" transform="translate(-39.32 -17)"/><path class="cls-7" d="M339.87,116.58a7.77,7.77,0,0,1-2.65,3.78c-1.25,1-2.86,1.47-3.48,2.93a1.16,1.16,0,0,0,.51,1.32c1.84,1.24,4.43-.49,5.69-1.88a9.79,9.79,0,0,0,2.7-5.67c.21-1.63-2.25-1.91-2.77-.48Z" transform="translate(-39.32 -17)"/><path class="cls-7" d="M234.83,368a51.68,51.68,0,0,1,10.64-9.65,29.94,29.94,0,0,1,6.49-3.21c1.75-.58,4.1-1,5.55-.37a3.79,3.79,0,0,1,1.05.74,2,2,0,0,1,.51.65,6.28,6.28,0,0,1,.58,2.13,13.56,13.56,0,0,1-1.1,5.32,42.39,42.39,0,0,1-7.68,12.59,41.26,41.26,0,0,1-6.55,6.18,27.63,27.63,0,0,1-6.89,3.56c-2.66,1.18-1.27,4.8,1.17,5,3.41.29,6.36-1.46,9-3.34a49,49,0,0,0,6.62-5.89,51.38,51.38,0,0,0,10.21-16c1.83-4.62,2.52-10.88-1.61-14.64-5-4.54-12.4-2.4-17.46.87-5.68,3.56-10.46,8.34-13.11,14.46-.68,1.41,1.58,2.82,2.61,1.63Z" transform="translate(-39.32 -17)"/><path class="cls-7" d="M240.83,385.75c-3.47-.32-6.78-1.82-9.82-3.31-3.74-1.75-7.4-3.61-10.87-5.63s-7-4.15-10.43-6.44c-1.6-1.08-3.26-2.21-4.82-3.35s-3.74-3.18-6-2.39a2,2,0,0,0-1.57,1.86c-.33,2.46,2.56,4.19,4.27,5.51s3.46,2.42,5.25,3.62c3.56,2.39,7.21,4.68,11,6.82s7.86,4.08,11.91,5.86c3.71,1.66,8,3.4,11.89,1.09a1.94,1.94,0,0,0-.87-3.64Z" transform="translate(-39.32 -17)"/><path class="cls-7" d="M234.8,366c-1-1.87-3.52-2.87-5.21-4.09s-3.2-3.59-5.46-3.67a2.2,2.2,0,0,0-2,3.23,8.64,8.64,0,0,0,2.56,2.62c.83.69,1.71,1.32,2.58,2,1.82,1.14,4.31,2.69,6.5,2.23A1.56,1.56,0,0,0,234.8,366Z" transform="translate(-39.32 -17)"/><path class="cls-7" d="M223.83,362.07a16.15,16.15,0,0,0,9.17-2.46,40.12,40.12,0,0,0,7.65-6.16,34.67,34.67,0,0,0,6.75-8.58,58.81,58.81,0,0,0,4.1-10.14,92.66,92.66,0,0,0,1.5-51.16,34.47,34.47,0,0,0-4.3-10.39c-.62-.89-2.48-.79-2.4.51.58,6.3,2.46,12.42,3.24,18.67a94.53,94.53,0,0,1,.31,18.42,95.55,95.55,0,0,1-3,18.21c-1.69,6.22-3.7,12.66-8,17.65a56.83,56.83,0,0,1-7.35,6.86,19.81,19.81,0,0,1-8.13,4c-2.71.47-2.24,4.45.44,4.54Z" transform="translate(-39.32 -17)"/><path class="cls-7" d="M199.76,362.31a11.7,11.7,0,0,0-4.21-.13c-1.59.09-3.14.21-4.76.2a60.59,60.59,0,0,1-8.66-.91c-6.69-1.17-13.31-2.55-19.94-4a146.56,146.56,0,0,1-37.87-13.33q-5-2.61-9.71-5.58c-1.64-1-3.24-2.11-4.88-3.13a11.63,11.63,0,0,0-5.5-2.19,1.87,1.87,0,0,0-1.94,2.3c1.16,3.32,4.82,5.44,7.76,7.36s5.8,3.55,8.77,5.16a148.51,148.51,0,0,0,19.32,8.82c13.3,5.07,27.34,7.58,41.29,10.22a63,63,0,0,0,10.77,1.22c3.57.05,8.24-.28,10.67-3.19a1.89,1.89,0,0,0-1.11-2.87Z" transform="translate(-39.32 -17)"/><path class="cls-7" d="M105.49,334.49c-1.35-1.59-3.87-1.41-5.87-1.5s-4-.16-6-.14c-4.15-.09-8.25-.23-12.39-.32s-8-.33-12-.66c-2.06-.11-4.08-.3-6.05-.44-2.4-.25-4.57-.6-6.84.24-1.93.71-1.68,3.46-.16,4.41,2,1.22,4.28,1.18,6.54,1.41L69,338c4.12.24,8.25.48,12.35.63s8.24.13,12.34,0c2-.07,4-.14,6-.31s4.62-.12,5.93-2a1.49,1.49,0,0,0-.16-1.86Z" transform="translate(-39.32 -17)"/><path class="cls-7" d="M59.05,332.77c-.84-2.11-2.46-4-3.63-5.95a52.25,52.25,0,0,1-3.34-6.27,38.44,38.44,0,0,1-2.89-12.93c-.2-3.47-.55-10.13,3.85-11.47,2.11-.6,4,1,5.35,2.43a27.24,27.24,0,0,1,4,5.86,43.22,43.22,0,0,1,3.33,7.45c.47,1.37.87,2.71,1.28,4.05s1.22,2.69,1.85,4.09c.73,1.63,2.94.75,3.13-.72a13.68,13.68,0,0,0,.18-4.32A27.14,27.14,0,0,0,71,310.5a49.38,49.38,0,0,0-3.46-8c-2.67-4.93-6.78-11.6-13.35-11.78a9.39,9.39,0,0,0-7.69,3.89c-2.06,2.47-2.67,5.76-2.83,8.85A40.94,40.94,0,0,0,46,319.6,45.87,45.87,0,0,0,50,328.09c1.63,2.61,3.71,5.57,6.49,7.07a1.84,1.84,0,0,0,2.61-2.39Z" transform="translate(-39.32 -17)"/><path class="cls-7" d="M69,318.43c1.56,4.15,10.52,1.48,9.56-2.8a2.57,2.57,0,0,0-2.91-1.83,2.93,2.93,0,0,0-1.63.91c-.25.26-.29.31-.08.12-.08.12-.21.19-.29.31s-.67.5-.39.35a2.57,2.57,0,0,0-.66.34,9,9,0,0,1-1.19.25,4.46,4.46,0,0,0-1.94.72,1.58,1.58,0,0,0-.47,1.63Z" transform="translate(-39.32 -17)"/><path class="cls-7" d="M114.66,235.2c-11.4,6.24-21.29,15.27-29.45,25.22a86,86,0,0,0-11.37,17.14,43,43,0,0,0-4,18.32,45.79,45.79,0,0,0,1.26,10.48,39.52,39.52,0,0,0,1.45,4.84c.78,2.08,1.27,4.06,3.65,4.88a2.16,2.16,0,0,0,2.61-1.37c.72-1.73,0-3.07-.62-4.66-.46-1.38-.93-2.76-1.29-4.15a44.22,44.22,0,0,1-1.42-8.42A41.22,41.22,0,0,1,78,280.34c2.29-5.84,5.88-11.29,9.55-16.35a106.15,106.15,0,0,1,12.18-14,160.05,160.05,0,0,1,16.11-13.17c1-.72-.18-2.2-1.2-1.67Z" transform="translate(-39.32 -17)"/><path class="cls-7" d="M113.31,222.9c-1.9-1.28-4.32-1.11-6.6-1a42.66,42.66,0,0,0-6.73,1,114.86,114.86,0,0,0-13.26,3.73l-14,4.52c-4.52,1.52-9.16,3-13.58,4.88a47.35,47.35,0,0,0-11.47,6.88c-3.21,2.67-6.35,6.14-7.82,10.07-1.78,4.91,1.5,8.79,5.52,11.41s8.55,3.67,13.15,4.37a65.83,65.83,0,0,0,15.24-.08c2.59-.3,5.11-.73,7.59-1.26s5.55-.88,7.36-2.84a1.68,1.68,0,0,0-.63-2.82c-2.07-.88-4.25-.32-6.36,0s-4.2.64-6.27.93a63.12,63.12,0,0,1-12,.72,36.58,36.58,0,0,1-11.71-2.15A17.2,17.2,0,0,1,47,258.61c-.92-.82-2.19-1.88-1.92-3.21a12.14,12.14,0,0,1,2.62-4.63,25.82,25.82,0,0,1,3.8-3.81,42.09,42.09,0,0,1,10.1-6c7.94-3.48,16.47-5.75,24.66-8.57,4.52-1.52,9-3.08,13.56-4.31,2.21-.62,4.4-1.09,6.65-1.52,1.12-.14,2.27-.33,3.36-.42.6-.12,1.24,0,1.83-.18a6.48,6.48,0,0,0,1.51-.72,1.38,1.38,0,0,0,.1-2.37Z" transform="translate(-39.32 -17)"/><path class="cls-7" d="M250.44,307.55a18.76,18.76,0,0,0,3.94,5.48,44.81,44.81,0,0,0,5.12,4.71,66,66,0,0,0,11.67,7.81c6.93,3.67,18.34,9.14,23.81.43,4.67-7.36,1.18-17.16-2.47-24.12a101.05,101.05,0,0,0-15.77-21.66,116.66,116.66,0,0,0-11.09-10.37q-3-2.35-6-4.53c-1-.7-2-1.45-3.08-2.09-.54-.35-1-.65-1.52-.95a5.82,5.82,0,0,0-2.28-.44,1.56,1.56,0,0,0-1.48,2.26c1,2,2.86,2.95,4.59,4.22l4.87,3.8a106.12,106.12,0,0,1,8.76,8.07,110.84,110.84,0,0,1,14.85,19,56.83,56.83,0,0,1,5.46,10.6c1.09,3.28,2,7,1.44,10.18-.45,2.65-1.83,5.13-4.89,5.23a13.68,13.68,0,0,1-5.16-1.15,53.12,53.12,0,0,1-5.59-2.32,77.53,77.53,0,0,1-12.06-7.21,53.15,53.15,0,0,1-5.3-4.33,42.33,42.33,0,0,0-5.67-4.55,1.5,1.5,0,0,0-2.12,1.93Z" transform="translate(-39.32 -17)"/><path class="cls-7" d="M143,241.3c-4.42,2.16-8.38,5.7-11.88,8.94a64.1,64.1,0,0,0-9.65,11.28c-5.34,8.11-8.27,17.91-6.69,27.5,2.79,17.39,19.07,29.25,35.36,34.09,11.91,3.53,24.74,4.62,37.23,4.4a1.08,1.08,0,0,0,0-2.15c-10.51-1.22-21.12-1.51-31.47-3.89-8.83-2.09-17.22-5.51-24.22-11.14-6-4.84-10.87-11.24-12.93-18.54-2.44-8.81-.42-18,3.88-25.84a58.22,58.22,0,0,1,9.43-12.25c1.92-1.89,3.88-3.68,5.91-5.33,2-1.82,4.3-3.41,6.22-5.3A1.09,1.09,0,0,0,143,241.3Z" transform="translate(-39.32 -17)"/><path class="cls-7" d="M197.48,327.84a11.23,11.23,0,0,0,1.34-.08,1,1,0,0,0,.74-.87.92.92,0,0,0-.67-.92,5.76,5.76,0,0,0-1.28-.14,1,1,0,0,0-1.09,1c0,.51.4,1.08,1,1Z" transform="translate(-39.32 -17)"/><path class="cls-7" d="M221.58,266.58c-.23,2,.57,4.21.87,6.23s.58,4.21.69,6.37A88,88,0,0,1,223,292a68.1,68.1,0,0,1-7.15,24.54,17.78,17.78,0,0,1-3.36,4.84,19.7,19.7,0,0,1-4.82,3.17c-.8.42-.83,1.91.2,2,4.19.79,7.37-2.48,9.48-5.68a51.79,51.79,0,0,0,5.47-12.22A69.47,69.47,0,0,0,226.16,281c-.21-2.55-.57-5.12-1-7.68-.48-2.39-.89-5.16-2.32-7.15-.4-.57-1.14-.11-1.22.42Z" transform="translate(-39.32 -17)"/><path class="cls-7" d="M72.19,313.57l-.1,0c.43.52.82,1.1,1.25,1.62l0-.06c-.13.34-.23.61-.32.88l.07-.11c-.55.32-1.07.58-1.58.84.06,0,1.23-.31.89-.19a2.76,2.76,0,0,1,.84-.23,2.36,2.36,0,0,1,1.1,0c.3-1.49.49-2.95.78-4.44a25.35,25.35,0,0,0-3.36-.35,5,5,0,0,0-1.9.4,2.61,2.61,0,0,0-1.08,1c-.16.24-.63,1.87-.37,1a2.35,2.35,0,0,0,3.31,2.66c0-.07,0-.07.15-.09l-1.2.26a1.69,1.69,0,0,0,.77,0l.82-.32c-.14.08-.27.16-.39.08l.47,0c.94,0,1.72,0,2.61,0a2.46,2.46,0,0,0,2.41-2.25,2.35,2.35,0,0,0-2.24-2.32c-1.64-.11-4.38.27-5.23,1.82a2,2,0,0,0,.22,2.4c-.29-.34-.23-.31.09.14a1.43,1.43,0,0,0,.45.36,1.87,1.87,0,0,0,2.09-.19l0-.06c.75-.87.8-2.51-.63-2.82Z" transform="translate(-39.32 -17)"/><path class="cls-7" d="M79.61,308a17.7,17.7,0,0,0,3.92,4c1,.61,3.68,2.47,4.85,1.36,1.27-1.29-1.56-2.06-2.33-2.46A13.23,13.23,0,0,1,81.16,307c-.62-.89-2.16.15-1.55,1Z" transform="translate(-39.32 -17)"/><path class="cls-7" d="M80.4,301.48c1,.89,2.11,1.74,3.21,2.68.83.69,1.56,1.65,2.73,1.71a.63.63,0,0,0,.61-.79c-.24-1.07-1.31-1.66-2.11-2.4-1-.81-2-1.67-3-2.48s-2.35.46-1.43,1.28Z" transform="translate(-39.32 -17)"/><path class="cls-7" d="M81.74,294.62c.79.75,1.69,1.48,2.54,2.27.71.6,1.38,1.28,2.34,1.13a.54.54,0,0,0,.45-.56c.1-.94-.71-1.53-1.36-2.1-.79-.75-1.62-1.44-2.42-2.19-1-1-2.59.55-1.55,1.45Z" transform="translate(-39.32 -17)"/><path class="cls-7" d="M82.63,286.24a3.21,3.21,0,0,1,1.66,1.12c.43.52,1.34,1.09,1.89.26.4-.75-.24-1.74-.79-2.33a5.71,5.71,0,0,0-2.1-1.24,1.14,1.14,0,0,0-.66,2.19Z" transform="translate(-39.32 -17)"/><path class="cls-7" d="M84.16,280.51a9.69,9.69,0,0,0,1,.8,4.6,4.6,0,0,0,.59.54,3.75,3.75,0,0,0,.84.27,1,1,0,0,0,1-1.17c-.24-.81-1.08-1.34-1.74-1.92a1.11,1.11,0,0,0-1.66,1.48Z" transform="translate(-39.32 -17)"/><path class="cls-7" d="M87.74,274.55a1.32,1.32,0,0,0,.88,0,1.65,1.65,0,0,0,.53-.67,1.14,1.14,0,0,0-.73-1.37,1.12,1.12,0,0,0-.81.07,1.33,1.33,0,0,0-.6.63,1.17,1.17,0,0,0,.73,1.38Z" transform="translate(-39.32 -17)"/><path class="cls-7" d="M107.31,249.08c.81-.16,1.67.21,2.49-.11a.76.76,0,0,0,.35-1.05c-.54-1.16-2.33-1-3.31-.72a1,1,0,1,0,.47,1.88Z" transform="translate(-39.32 -17)"/><path class="cls-7" d="M111.36,245.42a11.46,11.46,0,0,1,2.23.39,2.3,2.3,0,0,0,1.85-.08c.34-.13.37-.44.25-.77-.57-1.35-3-1.39-4.25-1.49s-1.37,1.82-.08,1.95Z" transform="translate(-39.32 -17)"/><path class="cls-7" d="M115.08,241.07l3.39,1.87a5.89,5.89,0,0,0,3,1c.42,0,.73-.46.5-.77a5.65,5.65,0,0,0-2.41-1.93l-3.4-1.87c-1.13-.63-2.27,1.09-1.09,1.66Z" transform="translate(-39.32 -17)"/><path class="cls-7" d="M119.62,237.55a18.21,18.21,0,0,1,3.22,1.1,8.48,8.48,0,0,0,2.94,1,.7.7,0,0,0,.52-1.18c-1.21-1.67-4.12-2.33-6-2.78-1.23-.36-1.86,1.51-.63,1.86Z" transform="translate(-39.32 -17)"/><path class="cls-7" d="M78.59,184.2a63.29,63.29,0,0,0,10.87,14.23c2.1,2.16,4.27,4.18,6.55,6.2,2.13,1.84,4.49,4.24,7.35,5.1.69.27,1.3-.52,1-1.22-1.23-2.44-3.89-4.27-5.85-6.09-2.22-2-4.48-3.89-6.6-5.89a85.33,85.33,0,0,1-11.62-13.2c-.74-1-2.35-.22-1.69.87Z" transform="translate(-39.32 -17)"/><path class="cls-7" d="M78.63,175c2.09,3.07,4.39,6.1,6.76,9,1.21,1.42,2.45,2.78,3.8,4.13,1,1.15,2.37,2.91,4.11,3a.74.74,0,0,0,.75-.87c-.25-1.57-2-2.87-3.13-4-1.29-1.31-2.51-2.58-3.7-3.9a108.13,108.13,0,0,1-7-8.43c-.65-.84-2.1.19-1.54,1Z" transform="translate(-39.32 -17)"/><path class="cls-7" d="M82.4,168.35c1.73,2.09,3.45,4.16,5.16,6.24,1.54,2,3.06,4.34,5.23,5.61.36.23,1,0,.77-.52-.85-2.37-2.88-4.23-4.49-6.07-1.78-2.12-3.66-4.22-5.44-6.33-.7-.77-1.82.28-1.23,1.07Z" transform="translate(-39.32 -17)"/><path class="cls-7" d="M83.37,155.41c1.22,1.68,2.43,3.36,3.54,5.06.65.82,1.21,1.67,1.77,2.52a5.48,5.48,0,0,0,1.69,1.73c.35.13.94,0,.89-.45-.17-1.69-1.78-3.29-2.7-4.61-1.22-1.68-2.43-3.36-3.57-5-.68-.93-2.23-.13-1.62.75Z" transform="translate(-39.32 -17)"/><path class="cls-7" d="M86.69,149.2,89,151.92a13.8,13.8,0,0,0,2.27,2.42c.37.23.64-.19.57-.48a16.23,16.23,0,0,0-1.94-2.65l-2.22-2.88c-.51-.66-1.51.22-1,.87Z" transform="translate(-39.32 -17)"/><path class="cls-7" d="M87,139a12.68,12.68,0,0,0,2.68,3.35c.37.23.66-.09.64-.44a12.85,12.85,0,0,0-1.63-3.78c-.6-1-2.37-.06-1.69.87Z" transform="translate(-39.32 -17)"/><path class="cls-7" d="M116.93,72.21a10.23,10.23,0,0,0,2,1.45.81.81,0,0,0,1-1.13,11.28,11.28,0,0,0-2-1.86,1,1,0,0,0-1.3.27.92.92,0,0,0,.29,1.27Z" transform="translate(-39.32 -17)"/><path class="cls-7" d="M117.87,65.69c1.41,2.3,3.59,5.76,6.46,6.22.32,0,.65-.34.55-.57a10.19,10.19,0,0,0-2.3-3,21.69,21.69,0,0,1-2.79-3.58c-.68-1.18-2.7-.19-1.92,1Z" transform="translate(-39.32 -17)"/><path class="cls-7" d="M122.24,61.4c3.73,2,5,7.45,9.4,8.65a.7.7,0,0,0,.82-1c-1.12-2-3.26-3.38-4.75-5.15-1.33-1.51-2.53-3.6-4.8-3.92-.76-.15-1.57.94-.67,1.41Z" transform="translate(-39.32 -17)"/><path class="cls-7" d="M126.31,55.59a56.07,56.07,0,0,0,6.84,6.29c2.28,1.76,5,4.13,7.95,4.72a.59.59,0,0,0,.62-.94c-1.93-2.14-4.8-3.52-7.15-5.15-2.45-1.88-4.87-3.8-7.17-5.91-.71-.62-1.82.28-1.09,1Z" transform="translate(-39.32 -17)"/><path class="cls-7" d="M132.37,53c2.19,1.37,4.28,2.76,6.4,4.09,1,.7,2,1.31,3,2a9.65,9.65,0,0,0,3.36,1.68c.5.14,1.21-.41.81-1-1.25-1.88-3.81-3.06-5.71-4.34-2.22-1.46-4.36-2.89-6.57-4.36-1.23-.85-2.56,1.16-1.29,2Z" transform="translate(-39.32 -17)"/><path class="cls-7" d="M141,48.54c1.49,1.78,3.06,3.43,4.67,5,1.43,1.48,3,3.23,4.93,3.84.53.25,1-.41.71-.81-.87-1.8-2.72-3.29-4.13-4.68q-2.31-2.32-4.53-4.84c-.92-1.08-2.61.46-1.65,1.47Z" transform="translate(-39.32 -17)"/><path class="cls-7" d="M148.83,46.77a20.15,20.15,0,0,0,2.26,1.91,7.32,7.32,0,0,0,2.4,1.43c.49,0,.92-.35.67-.75a10.78,10.78,0,0,0-1.79-2c-.72-.61-1.39-1.28-2.06-2-.87-.88-2.35.45-1.48,1.33Z" transform="translate(-39.32 -17)"/><path class="cls-7" d="M157,45.89,160,48a3.36,3.36,0,0,0,2.42,1,.53.53,0,0,0,.39-.59c-.12-1-1-1.47-1.75-2l-2.92-2.08c-1-.7-2,.83-1.06,1.6Z" transform="translate(-39.32 -17)"/><path class="cls-7" d="M166.6,45.44c2.45.44,4.47,1.54,6.71,2.43a.45.45,0,0,0,.47-.7c-1.56-2.07-4.36-3.15-6.87-3.63a1,1,0,1,0-.31,1.9Z" transform="translate(-39.32 -17)"/><path class="cls-7" d="M176,46.13c1,.71,2,1.77,3.28,1.8a.6.6,0,0,0,.66-.75c-.32-1.21-1.53-2-2.39-2.76-1.28-1-2.87.72-1.55,1.71Z" transform="translate(-39.32 -17)"/><path class="cls-7" d="M196.33,172.67a18.44,18.44,0,0,0-11.16-1.8c-3.48.33-7.84,1.36-9.62,4.6a8.43,8.43,0,0,0,1.73,9.86c2.84,2.86,7,3.87,10.89,4.57s8,.73,11.84-.79c3.26-1.31,6.23-4.13,7-7.6a6.37,6.37,0,0,0-1.47-5.86,12.15,12.15,0,0,0-4.75-2.8A27.08,27.08,0,0,0,189,170.32c-3.77.23-7.67,1.47-10.18,4.25a6.31,6.31,0,0,0-1.77,6.08,7.2,7.2,0,0,0,3.69,4.16,20.17,20.17,0,0,0,11.53,1.77c3.51-.4,9.06-2.18,8.51-6.54-.24-2.25-2.19-3.46-4.12-4.43a33.61,33.61,0,0,0-6-2.28c-3.54-.87-8.22-1.71-11.42.55a5,5,0,0,0-1.93,6.06c.79,1.67,2.55,2.78,4.21,3.64a20.18,20.18,0,0,0,10.85,2.28c3.63-.32,9.77-1.83,8.58-6.67-.6-2.21-2.59-3.22-4.55-4a27,27,0,0,0-5.65-1.69c-3.6-.66-11-1.84-11.18,3.55-.19,4.47,5.7,6.33,9.31,6.83a17.1,17.1,0,0,0,5.93-.14c2.51-.44,3.32-4.28,1-5.5a98.07,98.07,0,0,0-12.58-5.78c-2.89-1.07-4.82,3.17-2.23,4.7,3.74,2.26,7.62,4.19,11.46,6.17.32-1.8.65-3.6,1-5.5a10.47,10.47,0,0,1-4.56-.1,7.86,7.86,0,0,1-2.14-.67,5.41,5.41,0,0,1-.95-.51l-.48-.3a1.34,1.34,0,0,1,.39,1.75l-1.18,1c.06,0-.21,0-.21,0s.89,0,1,0a9.49,9.49,0,0,1,1.68.05,25.79,25.79,0,0,1,3.39.45,28.36,28.36,0,0,1,3.42,1.06,11.36,11.36,0,0,0,1.33.58l.12.07c.19.12.19.12.1,0s-.4-2.51.23-2.29a6.07,6.07,0,0,1-1.1.49c-.44.14-.9.19-1.4.3a13.71,13.71,0,0,1-8.28-1.34,12.07,12.07,0,0,1-1.4-.88c-.16,0-.47-.21-.31-.19l0,.06c0,.41,0,.91,0,1.32.06,0-.58.23.1,0a5.37,5.37,0,0,1,1-.15,18,18,0,0,1,6.74,1.21,17.06,17.06,0,0,1,3,1.23,6.32,6.32,0,0,0,1.43.82c1,.39-1-2.13-.24-2.24.27,0-.13.08-.17.14a12.16,12.16,0,0,1-5.57,1,11.27,11.27,0,0,1-2.79-.33,17.85,17.85,0,0,1-2.6-.87c-.36-.22-.64-.32-.8-.59.07.14.07.14,0,.2.15-.5.92-1,1.38-1.32,3.6-2.34,8.24-1.45,12-.16,1.09.42,2.22.8,3.26,1.29l.92.57a1.94,1.94,0,0,1,.39.32c-.07-.29,0,.41,0,.26a5.65,5.65,0,0,1-.29.82,5.16,5.16,0,0,1-1.9,2c-3.19,2.1-7.72,1.43-11.46.61-2-.44-4.66-1-6-2.7-.8-1-1.19-2.49-.06-3.3,1.6-1.25,4.37-1.69,6.41-1.92a41.89,41.89,0,0,1,7.68,0c1.64.11,2.42-2.25,1-3Z" transform="translate(-39.32 -17)"/><path class="cls-7" d="M188.55,183.85a24.52,24.52,0,0,0-2.18,4.75c-.65,1.76-1.28,3.63-1.81,5.47s-1,3.54-1.52,5.32-1.06,3.69-.44,5.5c.27.75,1.41,1.37,2.07.62a10.61,10.61,0,0,0,1.9-4.83c.45-1.73.87-3.55,1.3-5.37s1-3.57,1.46-5.36a29.4,29.4,0,0,1,1.54-5.06c.59-1.3-1.52-2.13-2.32-1Z" transform="translate(-39.32 -17)"/><path class="cls-7" d="M183.2,202.93a20.05,20.05,0,0,0-5.64,1.14c-1.81.54-4,1-5.47,2.18-1.37,1.06-.26,3,1.18,3.17,2,.14,4-.82,5.74-1.43a16.51,16.51,0,0,0,5.14-2.47,1.49,1.49,0,0,0-1-2.59Z" transform="translate(-39.32 -17)"/><path class="cls-7" d="M182.74,203.89c0,1.77,1.53,3.54,2.61,4.89,1.19,1.59,2.48,3.39,4.34,4.23,1.5.59,2.4-1.18,2-2.36-.67-1.59-2.49-3-3.72-4.25s-2.35-2.82-4-3.33a1,1,0,0,0-1.23.82Z" transform="translate(-39.32 -17)"/><path class="cls-8" d="M169.25,257c-5.57-2-11.07-4.17-16.41-6.59a46.46,46.46,0,0,1-5.07,3.26l-2.16,2c-1.59,2.28,1.2,4.43,3.06,5.52a21.46,21.46,0,0,0,9.8,3.21c3.47.33,4.46-.14,7.23-1.08l1.8-4.31a11.3,11.3,0,0,1,1.75-2Z" transform="translate(-39.32 -17)"/><path class="cls-8" d="M172.35,258c-.8,2.26-2.77,5.38-2.15,6.77.51,1.07,1,.7,1.39,1a7.36,7.36,0,0,0,3.59-.27,7.24,7.24,0,0,0,2.2-1.12,18,18,0,0,1,1.49-4.35c-2.13-.67-4.37-1.31-6.52-2.07Z" transform="translate(-39.32 -17)"/><path class="cls-8" d="M182.63,263.61l-1,2.52a5.19,5.19,0,0,0,.61,2.47l1.09.43a6.81,6.81,0,0,0,3.64-1.64l2.2-3.48a3.41,3.41,0,0,0-.15-1.19c-2.15-.51-4.37-1.05-6.54-1.66a8.92,8.92,0,0,1,.2,2.55Z" transform="translate(-39.32 -17)"/><path class="cls-8" d="M192.92,263.61a6.75,6.75,0,0,1-1.54,5.48l4.09,5.23a23.61,23.61,0,0,0,9.05,5.67c1.53,0,3.11.1,4.73.11,0-.05.1,0,.2,0s0-.07.1,0c3.5-2.07,2.37-9.72,2.74-13.42a168.1,168.1,0,0,1-19.37-3Z" transform="translate(-39.32 -17)"/><path class="cls-7" d="M272.84,154.53c-4.16-14.32-18.64-24.12-32.64-14.75-3.3,2.21-.19,7.49,3.14,5.25,10.64-7.12,20.38.43,23.49,11.12C267.92,159.92,273.94,158.31,272.84,154.53Z" transform="translate(-39.32 -17)"/><path class="cls-7" d="M141.43,117.35c11.56-9.71,29.18-10.11,35.57,5.25,1.5,3.61-4.08,6.34-5.59,2.69-4.86-11.66-17.25-10.61-25.88-3.36C142.49,124.49,138.37,119.92,141.43,117.35Z" transform="translate(-39.32 -17)"/><path class="cls-7" d="M175.86,204.55c-4.39,0-8.28-1-10.79-2.91s-3-5.25-2.92-8.31c.13-3.92-6.1-3.91-6.23,0-.16,4.72,1.06,9.36,4.75,12.61s12.66,6.21,19.36,2C183.4,205.76,179.88,204.55,175.86,204.55Z" transform="translate(-39.32 -17)"/><path class="cls-7" d="M207.28,209c-3.94,6.5-17.59,4-21-6.95-1.18-3.75-2.54-.39-1.57,3.42,3.27,12.83,23.25,14.43,28,6.6C214.71,208.72,209.32,205.66,207.28,209Z" transform="translate(-39.32 -17)"/></svg>