<svg id="Capa_1" data-name="Capa 1" xmlns="http://www.w3.org/2000/svg" viewBox="0 0 350 300.21"><defs><style>.cls-1,.cls-6{fill:#6b4d2f;}.cls-1,.cls-2,.cls-3,.cls-4,.cls-5{fill-rule:evenodd;}.cls-2{fill:#e9a76d;}.cls-3{fill:#f4dba7;}.cls-4{fill:#fff;}.cls-5{fill:#d7bb80;}</style></defs><title>3</title><path class="cls-1" d="M92.35,116.82a5.9,5.9,0,0,0-.21-1.46v-.21a6.18,6.18,0,0,0-.31-.83,15.63,15.63,0,0,0-6.67-8.86c-7.29-4.58-16.55-3-23.64,1.25s-11.87,11.56-15.93,18.65a153.68,153.68,0,0,0-10.94,23.32,200.4,200.4,0,0,0-11.45,50c-.94,8.85-1.67,17.81-.84,26.66.84,8.43,3.65,16.87,6.57,24.79a161.32,161.32,0,0,0,11.24,24.36c4.38,7.71,9,16.26,15.62,22.19a2.16,2.16,0,0,0,1.88.52,105.6,105.6,0,0,0,12.08,11.46,119.34,119.34,0,0,0,25.83,15.72c19.06,8.86,38.74,17.18,59.57,20.73,21,3.54,42.49,3.22,63.64,1.56,17.8-1.35,35.72-3.44,53-8a127.65,127.65,0,0,0,26.66-10.42,78.49,78.49,0,0,0,14.27-9.37c12.08-7.81,21-20.41,25.82-33.74a67,67,0,0,0,4.07-27.19c-.63-10.51-4.07-20.82-8.44-30.3-2.29-5.1-4.89-10-7.5-14.79s-5.31-9.48-7-14.58a41,41,0,0,1,1.35-28.43c3.85-9.06,11-16,16.87-23.75a18.78,18.78,0,0,0,3.44,1.15c6.24,1.66,13,4.37,19.58,3.33,3.85-.63,8.33-2.39,7.91-7a15.34,15.34,0,0,0-4.06-8.22,55.32,55.32,0,0,0-7.92-6.88c-1.56-1.14-3-2.29-4.68-3.33l-.63-.42c2.5-1.35,4.9-2.71,7.4-4,2.6-1.46,5.31-2.92,7.91-4.48,2.29-1.35,4.48-3.44,5-6.15a5.69,5.69,0,0,0-4.79-7,45.43,45.43,0,0,0-8.44-.52,42.7,42.7,0,0,0-12,1.15,63.58,63.58,0,0,0-9.48-19.47A87.45,87.45,0,0,0,325.54,71.2c-1.57-1.46-3.13-2.91-4.79-4.27a67.85,67.85,0,0,0-22.81-14c-11.36-4.27-23.23-6.25-35.31-4.9a79.68,79.68,0,0,0-55.92,33,66.47,66.47,0,0,0-9.07,17.8,60.86,60.86,0,0,0-2.29,21.15c.32,6.76,1.56,13.43,2.5,20.2.84,6.15,1.67,12.81-.21,18.85-3.54,10.94-15,15.73-25.82,16.46a77.6,77.6,0,0,1-19-1.25A118.41,118.41,0,0,1,135,170.14c-11-3.75-21.67-9.58-29.37-18.43a52.66,52.66,0,0,1-8.65-13.54,66.89,66.89,0,0,1-4.06-15c-.21-1.25-.1-2.6-.21-4a9.93,9.93,0,0,0-.31-2.39Z" transform="translate(-22 -47.66)"/><path class="cls-2" d="M81.21,155.25A31.79,31.79,0,0,1,88,158.58c1.87,1.35,3.64,3.23,5.83,4A1.21,1.21,0,0,0,95.37,161c-.73-2.39-3.23-4.26-5.21-5.62a30,30,0,0,0-7.39-3.54c-2.29-.83-3.85,2.61-1.56,3.44Z" transform="translate(-22 -47.66)"/><path class="cls-2" d="M75.79,162.64a49.65,49.65,0,0,1,6,3.33c1.67,1.15,3.23,2.5,5.1,2.92a1,1,0,0,0,1-1.35c-.84-2-2.92-3.34-4.69-4.48A59.53,59.53,0,0,0,77,159.62c-1.87-.83-3.12,2.08-1.25,3Z" transform="translate(-22 -47.66)"/><path class="cls-2" d="M71.94,168.58c1.87,2.08,4.17,4.16,7,4.89a1.47,1.47,0,0,0,1.14-2.7,28.18,28.18,0,0,1-6.25-4c-1.14-.94-2.81.62-1.87,1.77Z" transform="translate(-22 -47.66)"/><path class="cls-2" d="M61.94,231.17c2,1.25,4,2.71,6.35,3.13.52.1,1.15-.63.84-1.15a18.4,18.4,0,0,0-4.79-5c-2-1.56-4.38,1.66-2.4,3Z" transform="translate(-22 -47.66)"/><path class="cls-2" d="M60.79,238a48.86,48.86,0,0,0,5.63,4.79c1.67,1.15,3.54,2.71,5.73,2.71.73,0,.93-.93.62-1.45-1-1.67-3.43-2.71-5-3.86a54.37,54.37,0,0,1-5.2-4.47c-1.25-1.36-3.13.93-1.78,2.28Z" transform="translate(-22 -47.66)"/><path class="cls-2" d="M62.36,248.35a47.12,47.12,0,0,0,6,4.28c1.77,1.14,3.75,2.7,5.83,3,.62,0,1.15-.74.73-1.26-1.35-1.66-3.65-2.5-5.42-3.64-2-1.35-3.85-2.81-5.73-4.27-1.24-1-2.7.94-1.45,1.87Z" transform="translate(-22 -47.66)"/><path class="cls-2" d="M66.31,260.23c2,1.35,3.86,2.7,5.84,4.06a32.4,32.4,0,0,0,5.72,3.44c.63.2,1.36-.53.84-1.15a27.25,27.25,0,0,0-5.1-4.06c-2-1.36-4-2.71-5.84-4.06-1.25-.94-2.71.94-1.46,1.77Z" transform="translate(-22 -47.66)"/><path class="cls-2" d="M59.34,263.77a92.23,92.23,0,0,0,10.72,9.37,43.26,43.26,0,0,0,5.73,4,17,17,0,0,0,5.83,2.81.84.84,0,0,0,.63-1.45A24.63,24.63,0,0,0,77,275c-2.08-1.25-4.16-2.61-6.14-4.07a75.63,75.63,0,0,1-10.42-8.74c-.83-.84-2,.62-1.14,1.56Z" transform="translate(-22 -47.66)"/><path class="cls-2" d="M66.73,282.31c4.27,3,8.75,5.93,13.33,8.54,2.19,1.35,4.38,2.6,6.67,3.75a21.52,21.52,0,0,0,7.5,2.7.75.75,0,0,0,.52-1.35c-1.67-1.77-3.86-2.81-6-4.06s-4.59-2.4-6.77-3.65c-4.48-2.6-9-5.52-13.23-8.43-1.67-1.25-3.65,1.25-2,2.5Z" transform="translate(-22 -47.66)"/><path class="cls-2" d="M70.59,291.89A132.47,132.47,0,0,0,86.1,302.62c5.32,3.23,11,6.55,17.19,7.6.62.2,1.14-.84.52-1.25-5-3.54-10.63-5.73-15.83-8.86a119.69,119.69,0,0,1-15.52-10.72c-1.56-1.25-3.44,1.15-1.87,2.5Z" transform="translate(-22 -47.66)"/><path class="cls-2" d="M299,98.9c-3.44-.1-7.71,0-10.73,2.19a9,9,0,0,0-3,10.21,10.14,10.14,0,0,0,8.33,6.56,12.9,12.9,0,0,0,10.63-4.17c2.6-2.6,5.1-7.08,3.95-10.73-1.14-3.85-5.31-5.83-9.06-6.14-7.81-.72-16.24,5.52-13.12,14,2.92,7.91,12.91,8.54,18.33,3,6-6.25,1.35-15.83-6.67-17.08-7.7-1.25-14.26,6.45-12,13.85a9.67,9.67,0,0,0,8,6.56c4.16.42,7.81-2.4,9.68-5.83a8.1,8.1,0,0,0-2.6-10.73,9.42,9.42,0,0,0-11.25.83c-6.25,5.21-5.2,16,3.44,17.92,7.81,1.66,16-7.5,12.39-15a7.6,7.6,0,0,0-11-3.33,10.55,10.55,0,0,0-4.58,9.58c.52,4.38,4.79,8,9.27,6.46,3.54-1.25,5.1-5.31,5.52-8.75.52-4.17-1.15-8.33-5.21-9.79-3.75-1.46-7.71.1-10.52,2.71-3,2.81-5.31,6.66-4.58,10.93a10.8,10.8,0,0,0,6.87,7.92,13.88,13.88,0,0,0,18.23-9.38c2.08-8.12-5.52-15.72-13.65-12.81-3.22,1.15-6.35,4-8.43,6.56a10,10,0,0,0-.42,11.56c4,6.36,13.23,7.82,19.17,3.54a9.57,9.57,0,0,0,3.64-10.72,13.8,13.8,0,0,0-7.39-7.92,18.48,18.48,0,0,0-11.36-1.35c-4.47.73-4.16,6.56,0,7.5,3,.73,6.88.94,9.07,3a3.19,3.19,0,0,1,1.14,1.56c.11.63-.31.63-.1.31-.21.42-.84.63-1.36.83-1.66.53-4.27.21-5.31-1.66,0-.11-.31-.62-.21-.94-.1.32.21,0,.21-.1a13.07,13.07,0,0,1,3.33-3,4.87,4.87,0,0,1,1.46-.84c-.1.11.84,0,.21-.1a1.7,1.7,0,0,1,1.36,1.67c.1,1.66-1.57,3.43-3.44,4a4.13,4.13,0,0,1-3-.21c-.94-.42-.52-.21-.31-.11-.42-.21-.53-.42-.32-.21a3.92,3.92,0,0,1-.62-.72c.31.51,0,0,.1-.21a8.52,8.52,0,0,1,1.56-2.19,5.87,5.87,0,0,1,1.36-1c-.32.1.1-2.08.42-.11,0,0-.11.11-.11,0,.21.94-.63-.52-.73-.52-.21-.21.1-.1.1.21.11-.52-.1.31-.1.31a4.23,4.23,0,0,1-.21,1.15c.11-.42-.52,1.14-.41,1.25a11.81,11.81,0,0,1,2.91-.73c.32.1.52.83.83.83s.32-.62.53-.93c-.21.41.41-.11.31-.21a.1.1,0,0,0-.11.1c-.1.31-.41.42-.83.42-1,0-.94-.73-1.46-.94.21.11-.31,1-.31,1.15a4.68,4.68,0,0,1-1.35,1.46,2.87,2.87,0,0,1-.94,0,.1.1,0,0,1,.1.1c-.1,0-.41-.73-.1,0-.1-.1-.1-.84-.1-.21a3.31,3.31,0,0,1,.1-1c-.1.31.21-.31.31-.52a3.14,3.14,0,0,1,.73-.62c.84-.42,0,0,.1-.21h0c.42.52-.1-.42-.2-.73s.52-.63,0-.21c0,0-.84,1-.52.73,0,0-.73.73-.84.52a2.61,2.61,0,0,1,.42-.1c.52.2.1.2,0-.11a7.13,7.13,0,0,1-.42-.73c.21.73.11-.21.21-.63-.1.42.31-.31.42-.41.31-.52.41-.52.73-.63a2.11,2.11,0,0,1,1.56.21c.42.21,1.25.63,1.15,1.25,0,.21-.94.94-1.36,1.15a2.15,2.15,0,0,1-2,0c-.31-.31-.73-.94-.41-1.46-.42.62.41-.21.62-.31a6.66,6.66,0,0,1,1.25-.63c1.67-.42,2.29.21,3.65.42-.53-.11.31,0,.2.21a2.76,2.76,0,0,1-.73-1.67c0-.42,0-.31-.2.31A19,19,0,0,1,298,107a3.87,3.87,0,0,1-3.12,1.87,1.22,1.22,0,0,1-1.36-.52,1.26,1.26,0,0,1-.21-.73c.32-.83-.1.11.11,0s.31-.41.42-.52a13.88,13.88,0,0,1,5.1-2.6c2.91-.52,3.54-5.52,0-5.63Z" transform="translate(-22 -47.66)"/><path class="cls-2" d="M348.14,111.19c2.29-.1,4.68-.41,7-.41,1.77,0,3.54,0,5.21.1s4.58.1,5.42.52c-.52-.42-1.15-.83-1.67-1.25.1.11.21.32.31.42-.31-.63-.52-1.36-.83-2-.11-.41.1-.21-.62.21a24.8,24.8,0,0,1-2.71,1.56c-2.19,1.25-4.48,2.39-6.77,3.65l-5,2.7a51.06,51.06,0,0,0-.31-5.52Z" transform="translate(-22 -47.66)"/><path class="cls-2" d="M346.78,129.83c.73.63,1.36,1.26,2.09,1.88,1.77,1.66,3.64,3.23,5.51,4.79,2.4,2.09,5.73,4.69,6.25,8.13.11-.74.21-1.46.32-2.2a.09.09,0,0,1,.1-.09c.52-.42,1.15-.84,1.67-1.26-2.4,1.26-5.11,1-7.71.52-3.23-.62-6.46-1.56-9.58-2.49-.73-.21-1.56-.42-2.4-.74a35.1,35.1,0,0,0,2.71-5.62,30,30,0,0,0,1-2.92Z" transform="translate(-22 -47.66)"/><path class="cls-3" d="M307.21,314.8c-3.13,1.87-6.36,3.65-9.59,5.21a151.49,151.49,0,0,1-22.91,8.64c-16,4.59-32.6,6.87-49.16,8.44-20.3,1.77-40.93,2.81-61.23.21a146.92,146.92,0,0,1-29.16-6.36c-9.79-3.33-19.27-7.39-28.64-11.56-10-4.27-19.79-9-28.54-15.62S61.73,289,53.3,281.89a3.49,3.49,0,0,0-1.57-.73c-1.14-1.87-2.39-3.85-3.43-5.83a143.61,143.61,0,0,1-9.06-20,146.3,146.3,0,0,1-6.46-20.93,87,87,0,0,1-1.56-23.85,212,212,0,0,1,7.49-45.62,162.92,162.92,0,0,1,8-21.87,116.94,116.94,0,0,1,10.73-19.78c4.06-5.84,10-11.67,17.71-11.77a11.91,11.91,0,0,1,8.22,3.12,15,15,0,0,1,2,2.5c-.1.42-.21.83-.31,1.25a21.71,21.71,0,0,0-.21,4.48,33.16,33.16,0,0,0,.42,8.43A56.24,56.24,0,0,0,91.83,148C98,158.58,107.35,166.71,118,172.54c11.25,6.14,23.95,9.47,36.56,11.14,13,1.77,26.76,1.77,38.43-5.21a31.31,31.31,0,0,0,11.77-12.91c3-6.56,3.33-14,2.7-20.93-1.25-13.44-5.2-26.88-2.08-40.31,2.71-11.14,10.1-21.56,18.44-29.16A73.92,73.92,0,0,1,251.8,59c10.83-3.44,21.87-4,33.12-2.61,9,1,17.7,4.48,25.83,8.75,2.6,3.44,5.83,6.25,8.64,9.37a105.88,105.88,0,0,1,9.79,11.77c5.52,7.92,9.58,16.77,10.52,26.45a37.55,37.55,0,0,1-7.19,25.42c-5.72,8.23-12.91,15.31-17.81,24.16a50.3,50.3,0,0,0-5.52,29.57c1.36,10.73,6.77,19.69,11.67,29,4.79,8.95,9.16,18.33,11.56,28.22a62.2,62.2,0,0,1,.62,26.67c-3.33,15.93-13,29.47-25.82,39.05Z" transform="translate(-22 -47.66)"/><path class="cls-4" d="M190,180c.94-.52,2-1,2.92-1.56a31.31,31.31,0,0,0,11.77-12.91c3-6.56,3.33-14,2.7-20.93-1.25-13.44-5.2-26.88-2.08-40.31,2.71-11.14,10.1-21.56,18.44-29.16A73.92,73.92,0,0,1,251.8,59c10.83-3.44,21.87-4,33.12-2.61,9,1,17.7,4.48,25.83,8.75,0,0-50.2-14.69-82.49,23.64S227.74,168.68,190,180Z" transform="translate(-22 -47.66)"/><path class="cls-5" d="M307.21,314.8c-3.13,1.87-6.36,3.65-9.59,5.21a151.49,151.49,0,0,1-22.91,8.64c-16,4.59-32.6,6.87-49.16,8.44-20.3,1.77-40.93,2.81-61.23.21a146.92,146.92,0,0,1-29.16-6.36c-9.79-3.33-19.27-7.39-28.64-11.56-10-4.27-19.79-9-28.54-15.62S61.73,289,53.3,281.89a3.49,3.49,0,0,0-1.57-.73c-1.14-1.87-2.39-3.85-3.43-5.83a143.61,143.61,0,0,1-9.06-20,146.3,146.3,0,0,1-6.46-20.93,87,87,0,0,1-1.56-23.85,212,212,0,0,1,7.49-45.62,162.92,162.92,0,0,1,8-21.87,116.94,116.94,0,0,1,10.73-19.78c4.06-5.84,10-11.67,17.71-11.77a11.91,11.91,0,0,1,8.22,3.12,1.6,1.6,0,0,0,.42.41l1.25,3.34a21.71,21.71,0,0,0-.21,4.48,33.16,33.16,0,0,0,.42,8.43A56.24,56.24,0,0,0,91.83,148a57.85,57.85,0,0,0,9,11.66c-12.19,22.08-38.22,85.4,31.87,131,86.13,56,182.56,25.2,196.31-2.5a67.62,67.62,0,0,1-21.76,26.66Zm6.66-246c1.77,1.87,3.75,3.74,5.52,5.72a105.88,105.88,0,0,1,9.79,11.77c5.52,7.92,9.58,16.77,10.52,26.45a37.55,37.55,0,0,1-7.19,25.42c-5.72,8.23-12.91,15.31-17.81,24.16a50.3,50.3,0,0,0-5.52,29.57c1.05,8.65,4.8,16.15,8.75,23.54h0c-20.41-22.7-17-58.53,1.78-90.29,14-23.64,1.56-46.24-5.84-56.34Z" transform="translate(-22 -47.66)"/><path class="cls-6" d="M309.29,63.18c2.81,4.27,6.66,7.61,10.1,11.35a105.88,105.88,0,0,1,9.79,11.77c5.52,7.92,9.58,16.77,10.52,26.45a37.55,37.55,0,0,1-7.19,25.42c-5.72,8.23-12.91,15.31-17.81,24.16a50.3,50.3,0,0,0-5.52,29.57c1.36,10.73,6.77,19.69,11.67,29,4.79,8.95,9.16,18.33,11.56,28.22a62.2,62.2,0,0,1,.62,26.67c-3.85,18.74-16.45,33.95-32.7,43.63-2.6,1.56-.1,5.41,2.6,4.48,17-6.46,29.58-22,35.62-38.74a67,67,0,0,0,4.07-27.19c-.63-10.51-4.07-20.82-8.44-30.3-2.29-5.1-4.89-10-7.5-14.79s-5.31-9.48-7-14.58a41,41,0,0,1,1.35-28.43c3.85-9.17,11.24-16.25,17.08-24.06a54.49,54.49,0,0,0,7.6-13,41.8,41.8,0,0,0,2.71-15.62c0-11.77-4.38-23.33-11.25-32.8A87.45,87.45,0,0,0,325.54,71.2c-4.27-4-9-8.12-14.38-10.31a1.54,1.54,0,0,0-1.87,2.29Z" transform="translate(-22 -47.66)"/><path class="cls-6" d="M326.47,73.08A66.48,66.48,0,0,0,297.94,53c-11.36-4.27-23.23-6.25-35.31-4.9a79.68,79.68,0,0,0-55.92,33,66.47,66.47,0,0,0-9.07,17.8,60.86,60.86,0,0,0-2.29,21.15c.32,6.76,1.56,13.43,2.5,20.2.84,6.15,1.67,12.81-.21,18.85-3.54,10.94-15,15.73-25.82,16.46a77.6,77.6,0,0,1-19-1.25A118.41,118.41,0,0,1,135,170.14c-11-3.75-21.67-9.58-29.37-18.43a52.66,52.66,0,0,1-8.65-13.54,66.89,66.89,0,0,1-4.06-15c-.21-1.25-.1-2.6-.21-4s-.41-2.71-.52-4.06a3,3,0,0,0-5.62-.83,31.43,31.43,0,0,0-1.46,4.06,21.71,21.71,0,0,0-.21,4.48,33.16,33.16,0,0,0,.42,8.43A56.24,56.24,0,0,0,91.83,148C98,158.58,107.35,166.71,118,172.54c11.25,6.14,23.95,9.47,36.56,11.14,13,1.77,26.76,1.77,38.43-5.21a31.31,31.31,0,0,0,11.77-12.91c3-6.56,3.33-14,2.7-20.93-1.25-13.44-5.2-26.88-2.08-40.31,2.71-11.14,10.1-21.56,18.44-29.16A73.92,73.92,0,0,1,251.8,59c10.83-3.44,21.87-4,33.12-2.61,11.66,1.36,23,6.67,32.81,12.92a70.73,70.73,0,0,1,7.18,5.31,1.12,1.12,0,0,0,1.56-1.56Z" transform="translate(-22 -47.66)"/><path class="cls-6" d="M318.87,307.82c-7.19,4-13.85,8.75-21.25,12.19a151.49,151.49,0,0,1-22.91,8.64c-16,4.59-32.6,6.87-49.16,8.44-20.3,1.77-40.93,2.81-61.23.21a146.92,146.92,0,0,1-29.16-6.36c-9.79-3.33-19.27-7.39-28.64-11.56-10-4.27-19.79-9-28.54-15.62S61.73,289,53.3,281.89c-2.82-2.4-6.67,1.56-4.59,4.48a126,126,0,0,0,21,22.29,119.34,119.34,0,0,0,25.83,15.72c19.06,8.86,38.74,17.18,59.57,20.73,21,3.54,42.49,3.22,63.64,1.56,17.8-1.35,35.72-3.44,53-8a127.65,127.65,0,0,0,26.66-10.42c8.33-4.37,16.87-10.1,22.08-18.12.73-1-.32-3-1.67-2.29Z" transform="translate(-22 -47.66)"/><path class="cls-6" d="M91.42,124.11a15.29,15.29,0,0,0-6.26-18.65c-7.29-4.58-16.55-3-23.64,1.25s-11.87,11.56-15.93,18.65a153.68,153.68,0,0,0-10.94,23.32,200.4,200.4,0,0,0-11.45,50c-.94,8.85-1.67,17.81-.84,26.66.84,8.43,3.65,16.87,6.57,24.79a161.32,161.32,0,0,0,11.24,24.36c4.38,7.71,9,16.26,15.62,22.19,1.67,1.56,4.59-.63,3.55-2.71-3.13-6.45-7.61-12.29-11-18.64a143.61,143.61,0,0,1-9.06-20,146.3,146.3,0,0,1-6.46-20.93,87,87,0,0,1-1.56-23.85,212,212,0,0,1,7.49-45.62,162.92,162.92,0,0,1,8-21.87,116.94,116.94,0,0,1,10.73-19.78c4.06-5.84,10-11.67,17.71-11.77a11.91,11.91,0,0,1,8.22,3.12c2.19,2.19,4,5.1,3.44,8.23-.41,2.6,3.54,3.85,4.59,1.25Z" transform="translate(-22 -47.66)"/><path class="cls-6" d="M343,111c4,.63,8.12-.1,12.08-.2,1.77,0,3.54,0,5.21.1s4.58.1,5.42.52c-.52-.42-1.15-.83-1.67-1.25.1.11.21.32.31.42-.31-.63-.52-1.36-.83-2-.11-.41.1-.21-.62.21a24.8,24.8,0,0,1-2.71,1.56c-2.19,1.25-4.48,2.39-6.77,3.65l-6.88,3.74c-1.14.73-2.39,1.25-3.54,2a6.09,6.09,0,0,0-2.81,4,3.32,3.32,0,0,0,2.08,3.65c3.23,1.14,5.94-.84,8.85-2.4,2.61-1.35,5.21-2.81,7.82-4.16s5.31-2.92,7.91-4.48c2.29-1.35,4.48-3.44,5-6.15a5.69,5.69,0,0,0-4.79-7,45.43,45.43,0,0,0-8.44-.52c-5.41-.1-12.18.21-16.87,3.23-2.18,1.46-.93,4.69,1.25,5.1Z" transform="translate(-22 -47.66)"/><path class="cls-6" d="M343.76,125.67c.94,2.39,3.23,4.37,5.11,6s3.64,3.23,5.51,4.79c2.4,2.09,5.73,4.69,6.25,8.13.11-.74.21-1.46.32-2.2a.09.09,0,0,1,.1-.09c.52-.42,1.15-.84,1.67-1.26-2.4,1.26-5.11,1-7.71.52-3.23-.62-6.46-1.56-9.58-2.49-2.92-.84-7.4-3-9.79,0a4.37,4.37,0,0,0,.1,5.2c1.36,1.88,3.65,2.29,5.63,2.92,6.24,1.66,13,4.37,19.58,3.33,3.85-.63,8.33-2.39,7.91-7a15.34,15.34,0,0,0-4.06-8.22,55.32,55.32,0,0,0-7.92-6.88c-1.56-1.14-3-2.29-4.68-3.33a13.8,13.8,0,0,0-5.84-2.81,2.47,2.47,0,0,0-2.6,3.33Z" transform="translate(-22 -47.66)"/><path class="cls-6" d="M299,98.9c-3.44-.1-7.71,0-10.73,2.19a9,9,0,0,0-3,10.21,10.14,10.14,0,0,0,8.33,6.56,12.9,12.9,0,0,0,10.63-4.17c2.6-2.6,5.1-7.08,3.95-10.73-1.14-3.85-5.31-5.83-9.06-6.14-7.81-.72-16.24,5.52-13.12,14,2.92,7.91,12.91,8.54,18.33,3,6-6.25,1.35-15.83-6.67-17.08-7.7-1.25-14.26,6.45-12,13.85a9.67,9.67,0,0,0,8,6.56c4.16.42,7.81-2.4,9.68-5.83a8.1,8.1,0,0,0-2.6-10.73,9.42,9.42,0,0,0-11.25.83c-6.25,5.21-5.2,16,3.44,17.92,7.81,1.66,16-7.5,12.39-15a7.6,7.6,0,0,0-11-3.33,10.55,10.55,0,0,0-4.58,9.58c.52,4.38,4.79,8,9.27,6.46,3.54-1.25,5.1-5.31,5.52-8.75.52-4.17-1.15-8.33-5.21-9.79-3.75-1.46-7.71.1-10.52,2.71-3,2.81-5.31,6.66-4.58,10.93a10.8,10.8,0,0,0,6.87,7.92,13.88,13.88,0,0,0,18.23-9.38c2.08-8.12-5.52-15.72-13.65-12.81-3.22,1.15-6.35,4-8.43,6.56a10,10,0,0,0-.42,11.56c4,6.36,13.23,7.82,19.17,3.54a9.57,9.57,0,0,0,3.64-10.72,13.8,13.8,0,0,0-7.39-7.92,18.48,18.48,0,0,0-11.36-1.35c-4.47.73-4.16,6.56,0,7.5,3,.73,6.88.94,9.07,3a3.19,3.19,0,0,1,1.14,1.56c.11.63-.31.63-.1.31-.21.42-.84.63-1.36.83-1.66.53-4.27.21-5.31-1.66,0-.11-.31-.62-.21-.94-.1.32.21,0,.21-.1a13.07,13.07,0,0,1,3.33-3,4.87,4.87,0,0,1,1.46-.84c-.1.11.84,0,.21-.1a1.7,1.7,0,0,1,1.36,1.67c.1,1.66-1.57,3.43-3.44,4a4.13,4.13,0,0,1-3-.21c-.94-.42-.52-.21-.31-.11-.42-.21-.53-.42-.32-.21a3.92,3.92,0,0,1-.62-.72c.31.51,0,0,.1-.21a8.52,8.52,0,0,1,1.56-2.19,5.87,5.87,0,0,1,1.36-1c-.32.1.1-2.08.42-.11,0,0-.11.11-.11,0,.21.94-.63-.52-.73-.52-.21-.21.1-.1.1.21.11-.52-.1.31-.1.31a4.23,4.23,0,0,1-.21,1.15c.11-.42-.52,1.14-.41,1.25a11.81,11.81,0,0,1,2.91-.73c.32.1.52.83.83.83s.32-.62.53-.93c-.21.41.41-.11.31-.21a.1.1,0,0,0-.11.1c-.1.31-.41.42-.83.42-1,0-.94-.73-1.46-.94.21.11-.31,1-.31,1.15a4.68,4.68,0,0,1-1.35,1.46,2.87,2.87,0,0,1-.94,0,.1.1,0,0,1,.1.1c-.1,0-.41-.73-.1,0-.1-.1-.1-.84-.1-.21a3.31,3.31,0,0,1,.1-1c-.1.31.21-.31.31-.52a3.14,3.14,0,0,1,.73-.62c.84-.42,0,0,.1-.21h0c.42.52-.1-.42-.2-.73s.52-.63,0-.21c0,0-.84,1-.52.73,0,0-.73.73-.84.52a2.61,2.61,0,0,1,.42-.1c.52.2.1.2,0-.11a7.13,7.13,0,0,1-.42-.73c.21.73.11-.21.21-.63-.1.42.31-.31.42-.41.31-.52.41-.52.73-.63a2.11,2.11,0,0,1,1.56.21c.42.21,1.25.63,1.15,1.25,0,.21-.94.94-1.36,1.15a2.15,2.15,0,0,1-2,0c-.31-.31-.73-.94-.41-1.46-.42.62.41-.21.62-.31a6.66,6.66,0,0,1,1.25-.63c1.67-.42,2.29.21,3.65.42-.53-.11.31,0,.31.21a2.39,2.39,0,0,1-.84-1.67c0-.42,0-.31-.2.31A19,19,0,0,1,298,107a3.87,3.87,0,0,1-3.12,1.87,1.22,1.22,0,0,1-1.36-.52,1.26,1.26,0,0,1-.21-.73c.32-.83-.1.11.11,0s.31-.41.42-.52a13.88,13.88,0,0,1,5.1-2.6c2.91-.52,3.54-5.52,0-5.63Z" transform="translate(-22 -47.66)"/><path class="cls-6" d="M70.59,291.89A132.47,132.47,0,0,0,86.1,302.62c5.32,3.23,11,6.55,17.19,7.6.62.2,1.14-.84.52-1.25-5-3.54-10.63-5.73-15.83-8.86a119.69,119.69,0,0,1-15.52-10.72c-1.56-1.25-3.44,1.15-1.87,2.5Z" transform="translate(-22 -47.66)"/><path class="cls-6" d="M66.73,282.31c4.27,3,8.75,5.93,13.33,8.54,2.19,1.35,4.38,2.6,6.67,3.75a21.52,21.52,0,0,0,7.5,2.7.75.75,0,0,0,.52-1.35c-1.67-1.77-3.86-2.81-6-4.06s-4.59-2.4-6.77-3.65c-4.48-2.6-9-5.52-13.23-8.43-1.67-1.25-3.65,1.25-2,2.5Z" transform="translate(-22 -47.66)"/><path class="cls-6" d="M59.34,263.77a92.23,92.23,0,0,0,10.72,9.37,43.26,43.26,0,0,0,5.73,4,17,17,0,0,0,5.83,2.81.84.84,0,0,0,.63-1.45A24.63,24.63,0,0,0,77,275c-2.08-1.25-4.16-2.61-6.14-4.07a75.63,75.63,0,0,1-10.42-8.74c-.83-.84-2,.62-1.14,1.56Z" transform="translate(-22 -47.66)"/><path class="cls-6" d="M66.31,260.23c2,1.35,3.86,2.7,5.84,4.06a32.4,32.4,0,0,0,5.72,3.44c.63.2,1.36-.53.84-1.15a27.25,27.25,0,0,0-5.1-4.06c-2-1.36-4-2.71-5.84-4.06-1.25-.94-2.71.94-1.46,1.77Z" transform="translate(-22 -47.66)"/><path class="cls-6" d="M62.36,248.35a47.12,47.12,0,0,0,6,4.28c1.77,1.14,3.75,2.7,5.83,3,.62,0,1.15-.74.73-1.26-1.35-1.66-3.65-2.5-5.42-3.64-2-1.35-3.85-2.81-5.73-4.27-1.24-1-2.7.94-1.45,1.87Z" transform="translate(-22 -47.66)"/><path class="cls-6" d="M60.79,238a48.86,48.86,0,0,0,5.63,4.79c1.67,1.15,3.54,2.71,5.73,2.71.73,0,.93-.93.62-1.45-1-1.67-3.43-2.71-5-3.86a54.37,54.37,0,0,1-5.2-4.47c-1.25-1.36-3.13.93-1.78,2.28Z" transform="translate(-22 -47.66)"/><path class="cls-6" d="M61.94,231.17c2,1.25,4,2.71,6.35,3.13.52.1,1.15-.63.84-1.15a18.4,18.4,0,0,0-4.79-5c-2-1.56-4.38,1.66-2.4,3Z" transform="translate(-22 -47.66)"/><path class="cls-6" d="M71.94,168.58c1.87,2.08,4.17,4.16,7,4.89a1.47,1.47,0,0,0,1.14-2.7,28.18,28.18,0,0,1-6.25-4c-1.14-.94-2.81.62-1.87,1.77Z" transform="translate(-22 -47.66)"/><path class="cls-6" d="M75.79,162.64a49.65,49.65,0,0,1,6,3.33c1.67,1.15,3.23,2.5,5.1,2.92a1,1,0,0,0,1-1.35c-.84-2-2.92-3.34-4.69-4.48A59.53,59.53,0,0,0,77,159.62c-1.87-.83-3.12,2.08-1.25,3Z" transform="translate(-22 -47.66)"/><path class="cls-6" d="M81.21,155.25A31.79,31.79,0,0,1,88,158.58c1.87,1.35,3.64,3.23,5.83,4A1.21,1.21,0,0,0,95.37,161c-.73-2.39-3.23-4.26-5.21-5.62a34.09,34.09,0,0,0-7.39-3.54c-2.29-.83-3.85,2.61-1.56,3.44Z" transform="translate(-22 -47.66)"/></svg>